SplineFontDB: 3.0
FontName: Delius-Regular
FullName: Delius-Regular
FamilyName: Delius
Weight: Book
Copyright: Copyright (c) 2010 by Natalia Raices. All rights reserved.
Version: 1.001
ItalicAngle: 0
UnderlinePosition: -150
UnderlineWidth: 50
Ascent: 800
Descent: 200
sfntRevision: 0x00010042
LayerCount: 2
Layer: 0 1 "Back"  1
Layer: 1 1 "Fore"  0
XUID: [1021 288 713564382 1122046]
FSType: 0
OS2Version: 2
OS2_WeightWidthSlopeOnly: 0
OS2_UseTypoMetrics: 1
CreationTime: 1311358423
ModificationTime: 1311369447
PfmFamily: 17
TTFWeight: 400
TTFWidth: 5
LineGap: 0
VLineGap: 0
Panose: 2 0 6 3 0 0 0 0 0 0
OS2TypoAscent: 186
OS2TypoAOffset: 1
OS2TypoDescent: -70
OS2TypoDOffset: 1
OS2TypoLinegap: 0
OS2WinAscent: 0
OS2WinAOffset: 1
OS2WinDescent: 0
OS2WinDOffset: 1
HheadAscent: 0
HheadAOffset: 1
HheadDescent: 0
HheadDOffset: 1
OS2SubXSize: 700
OS2SubYSize: 650
OS2SubXOff: 0
OS2SubYOff: 140
OS2SupXSize: 700
OS2SupYSize: 650
OS2SupXOff: 0
OS2SupYOff: 477
OS2StrikeYSize: 50
OS2StrikeYPos: 250
OS2FamilyClass: 2560
OS2Vendor: 'pyrs'
OS2CodePages: 00000001.00000000
OS2UnicodeRanges: 00000061.00000000.00000000.00000000
Lookup: 258 0 0 "'kern' Horizontal Kerning in Latin lookup 0"  {"'kern' Horizontal Kerning in Latin lookup 0 subtable"  } ['kern' ('DFLT' <'dflt' > 'latn' <'dflt' > ) ]
Lookup: 258 0 0 "'kern' Horizontal Kerning in Latin lookup 1"  {"'kern' Horizontal Kerning in Latin lookup 1 subtable"  } ['kern' ('DFLT' <'dflt' > 'latn' <'dflt' > ) ]
DEI: 91125
TtTable: prep
PUSHW_1
 511
SCANCTRL
PUSHB_1
 4
SCANTYPE
EndTTInstrs
ShortTable: maxp 16
  1
  0
  298
  119
  6
  59
  4
  2
  0
  1
  1
  0
  64
  0
  2
  1
EndShort

StartChar: exclam
Encoding: 33 33 4
Width: 242
GlyphClass: 2
Flags: W
LayerCount: 2
Fore
SplineSet
156 85 m 128,-1,1
 167 70 167 70 167 46.5 c 128,-1,2
 167 23 167 23 152.5 4 c 128,-1,3
 138 -15 138 -15 117.5 -15 c 128,-1,4
 97 -15 97 -15 86 1 c 128,-1,5
 75 17 75 17 75 39.5 c 128,-1,6
 75 62 75 62 89.5 81 c 128,-1,7
 104 100 104 100 124.5 100 c 128,-1,0
 145 100 145 100 156 85 c 128,-1,1
154 468 m 2,8,-1
 157 256 l 2,9,10
 157 206 157 206 121 206 c 128,-1,11
 85 206 85 206 85 256 c 2,12,-1
 88 468 l 2,13,14
 88 527 88 527 84.5 615.5 c 128,-1,15
 81 704 81 704 81 710 c 0,16,17
 81 760 81 760 121 760 c 128,-1,18
 161 760 161 760 161 710 c 0,19,20
 161 704 161 704 157.5 615.5 c 128,-1,21
 154 527 154 527 154 468 c 2,8,-1
EndSplineSet
EndChar

StartChar: quotedbl
Encoding: 34 34 5
Width: 342
GlyphClass: 2
Flags: W
LayerCount: 2
Fore
SplineSet
276.5 711.5 m 128,-1,1
 287 698 287 698 287 684 c 128,-1,2
 287 670 287 670 281 626 c 128,-1,3
 275 582 275 582 273.5 551.5 c 128,-1,4
 272 521 272 521 267 505.5 c 128,-1,5
 262 490 262 490 247.5 490 c 128,-1,6
 233 490 233 490 227.5 506 c 128,-1,7
 222 522 222 522 220.5 552 c 128,-1,8
 219 582 219 582 213 625.5 c 128,-1,9
 207 669 207 669 207 683.5 c 128,-1,10
 207 698 207 698 217.5 711.5 c 128,-1,11
 228 725 228 725 247 725 c 128,-1,0
 266 725 266 725 276.5 711.5 c 128,-1,1
124.5 711.5 m 128,-1,13
 135 698 135 698 135 684 c 128,-1,14
 135 670 135 670 129 626 c 128,-1,15
 123 582 123 582 121.5 551.5 c 128,-1,16
 120 521 120 521 115 505.5 c 128,-1,17
 110 490 110 490 95.5 490 c 128,-1,18
 81 490 81 490 75.5 506 c 128,-1,19
 70 522 70 522 68.5 552 c 128,-1,20
 67 582 67 582 61 625.5 c 128,-1,21
 55 669 55 669 55 683.5 c 128,-1,22
 55 698 55 698 65.5 711.5 c 128,-1,23
 76 725 76 725 95 725 c 128,-1,12
 114 725 114 725 124.5 711.5 c 128,-1,13
EndSplineSet
EndChar

StartChar: numbersign
Encoding: 35 35 6
Width: 803
GlyphClass: 2
Flags: W
LayerCount: 2
Fore
SplineSet
472 274 m 1,0,-1
 504 441 l 1,1,-1
 328 441 l 1,2,-1
 296 274 l 1,3,-1
 472 274 l 1,0,-1
665 212 m 2,4,-1
 524 214 l 1,5,6
 511 144 511 144 491 27 c 0,7,8
 483 -14 483 -14 450 -14 c 0,9,10
 437 -14 437 -14 429 -5 c 128,-1,11
 421 4 421 4 421 17.5 c 128,-1,12
 421 31 421 31 426 54 c 0,13,14
 446 149 446 149 458 216 c 1,15,-1
 285 216 l 1,16,17
 274 159 274 159 264 98.5 c 128,-1,18
 254 38 254 38 252 26 c 0,19,20
 244 -15 244 -15 211 -15 c 0,21,22
 198 -15 198 -15 190 -6 c 128,-1,23
 182 3 182 3 182 16.5 c 128,-1,24
 182 30 182 30 187 53 c 128,-1,25
 192 76 192 76 202.5 123 c 128,-1,26
 213 170 213 170 221 215 c 1,27,-1
 94 212 l 1,28,29
 48 212 48 212 48 245 c 128,-1,30
 48 278 48 278 94 278 c 2,31,-1
 234 275 l 1,32,-1
 266 440 l 1,33,-1
 137 437 l 1,34,35
 91 437 91 437 91 470 c 128,-1,36
 91 503 91 503 137 503 c 2,37,-1
 276 500 l 1,38,39
 287 551 287 551 296.5 606 c 128,-1,40
 306 661 306 661 308 672 c 0,41,42
 316 713 316 713 349 713 c 0,43,44
 362 713 362 713 370 703.5 c 128,-1,45
 378 694 378 694 378 681.5 c 128,-1,46
 378 669 378 669 373 646.5 c 128,-1,47
 368 624 368 624 358.5 581.5 c 128,-1,48
 349 539 349 539 341 499 c 1,49,-1
 514 499 l 1,50,51
 525 550 525 550 535 606 c 128,-1,52
 545 662 545 662 547 673 c 0,53,54
 555 714 555 714 588 714 c 0,55,56
 601 714 601 714 609 704.5 c 128,-1,57
 617 695 617 695 617 682.5 c 128,-1,58
 617 670 617 670 612 647.5 c 128,-1,59
 607 625 607 625 597.5 582.5 c 128,-1,60
 588 540 588 540 580 500 c 1,61,-1
 709 503 l 1,62,63
 755 503 755 503 755 470 c 128,-1,64
 755 437 755 437 709 437 c 2,65,-1
 567 440 l 1,66,-1
 535 275 l 1,67,-1
 665 278 l 1,68,69
 711 278 711 278 711 245 c 128,-1,70
 711 212 711 212 665 212 c 2,4,-1
EndSplineSet
EndChar

StartChar: dollar
Encoding: 36 36 7
Width: 554
GlyphClass: 2
Flags: W
LayerCount: 2
Fore
SplineSet
503 186 m 0,0,1
 503 111 503 111 453 56.5 c 128,-1,2
 403 2 403 2 319 -11 c 1,3,4
 321 -36 321 -36 321 -59 c 0,5,6
 321 -110 321 -110 286 -110 c 128,-1,7
 251 -110 251 -110 251 -59 c 1,8,-1
 252 -13 l 1,9,10
 175 -8 175 -8 113.5 26.5 c 128,-1,11
 52 61 52 61 52 93 c 0,12,13
 52 107 52 107 60 115.5 c 128,-1,14
 68 124 68 124 81 124 c 128,-1,15
 94 124 94 124 114 108 c 0,16,17
 179 56 179 56 254 51 c 1,18,19
 256 191 256 191 256 358 c 1,20,21
 175 404 175 404 128.5 450 c 128,-1,22
 82 496 82 496 82 555.5 c 128,-1,23
 82 615 82 615 129 658.5 c 128,-1,24
 176 702 176 702 252 710 c 1,25,-1
 252 749 l 2,26,27
 252 800 252 800 286 800 c 128,-1,28
 320 800 320 800 320 749 c 2,29,-1
 320 710 l 1,30,31
 384 704 384 704 427 680 c 128,-1,32
 470 656 470 656 470 627 c 0,33,34
 470 616 470 616 462.5 607.5 c 128,-1,35
 455 599 455 599 440.5 599 c 128,-1,36
 426 599 426 599 388.5 621.5 c 128,-1,37
 351 644 351 644 318 645 c 1,38,39
 316 525 316 525 316 404 c 1,40,41
 397 356 397 356 435 321 c 128,-1,42
 473 286 473 286 488 254 c 128,-1,43
 503 222 503 222 503 186 c 0,0,1
396 98.5 m 128,-1,45
 428 135 428 135 428 180.5 c 128,-1,46
 428 226 428 226 399 258 c 128,-1,47
 370 290 370 290 316 323 c 1,48,49
 316 121 316 121 317 54 c 1,50,44
 364 62 364 62 396 98.5 c 128,-1,45
155 555 m 0,51,52
 155 502 155 502 256 438 c 1,53,54
 256 574 256 574 254 645 c 1,55,56
 211 640 211 640 183 617 c 128,-1,57
 155 594 155 594 155 555 c 0,51,52
EndSplineSet
EndChar

StartChar: percent
Encoding: 37 37 8
Width: 804
GlyphClass: 2
Flags: W
LayerCount: 2
Fore
SplineSet
585 706 m 0,0,1
 585 663 585 663 529 602 c 1,2,3
 331 35 331 35 321 10 c 128,-1,4
 311 -15 311 -15 285 -15 c 0,5,6
 272 -15 272 -15 263 -6 c 128,-1,7
 254 3 254 3 254 18.5 c 128,-1,8
 254 34 254 34 279 95 c 0,9,10
 380 342 380 342 457 577 c 1,11,12
 440 569 440 569 411.5 569 c 128,-1,13
 383 569 383 569 336 583 c 1,14,15
 341 565 341 565 341 542 c 0,16,17
 341 469 341 469 300.5 419 c 128,-1,18
 260 369 260 369 194.5 369 c 128,-1,19
 129 369 129 369 88.5 417.5 c 128,-1,20
 48 466 48 466 48 540.5 c 128,-1,21
 48 615 48 615 90 665 c 128,-1,22
 132 715 132 715 191 715 c 128,-1,23
 250 715 250 715 303 671.5 c 128,-1,24
 356 628 356 628 403.5 628 c 128,-1,25
 451 628 451 628 472 646 c 1,26,-1
 480 674 l 2,27,28
 498 739 498 739 517 753 c 0,29,30
 526 760 526 760 542.5 760 c 128,-1,31
 559 760 559 760 572 744.5 c 128,-1,32
 585 729 585 729 585 706 c 0,0,1
257.5 458.5 m 128,-1,34
 280 491 280 491 280 541 c 128,-1,35
 280 591 280 591 258 624.5 c 128,-1,36
 236 658 236 658 196 658 c 128,-1,37
 156 658 156 658 133.5 625.5 c 128,-1,38
 111 593 111 593 111 543 c 128,-1,39
 111 493 111 493 133.5 459.5 c 128,-1,40
 156 426 156 426 195.5 426 c 128,-1,33
 235 426 235 426 257.5 458.5 c 128,-1,34
716.5 282.5 m 128,-1,42
 757 234 757 234 757 159.5 c 128,-1,43
 757 85 757 85 715 35 c 128,-1,44
 673 -15 673 -15 607.5 -15 c 128,-1,45
 542 -15 542 -15 501.5 33.5 c 128,-1,46
 461 82 461 82 461 156.5 c 128,-1,47
 461 231 461 231 503 281 c 128,-1,48
 545 331 545 331 610.5 331 c 128,-1,41
 676 331 676 331 716.5 282.5 c 128,-1,42
670.5 74.5 m 128,-1,50
 693 107 693 107 693 157 c 128,-1,51
 693 207 693 207 671 240.5 c 128,-1,52
 649 274 649 274 609.5 274 c 128,-1,53
 570 274 570 274 547.5 241.5 c 128,-1,54
 525 209 525 209 525 159 c 128,-1,55
 525 109 525 109 547 75.5 c 128,-1,56
 569 42 569 42 608.5 42 c 128,-1,49
 648 42 648 42 670.5 74.5 c 128,-1,50
EndSplineSet
EndChar

StartChar: ampersand
Encoding: 38 38 9
Width: 765
GlyphClass: 2
Flags: W
LayerCount: 2
Fore
SplineSet
410 354 m 1,0,-1
 535 349 l 1,1,2
 587 349 587 349 631 375 c 128,-1,3
 675 401 675 401 675 450 c 0,4,5
 675 524 675 524 599 550 c 0,6,7
 570 560 570 560 557.5 569 c 128,-1,8
 545 578 545 578 545 593.5 c 128,-1,9
 545 609 545 609 555.5 617.5 c 128,-1,10
 566 626 566 626 583 626 c 0,11,12
 638 626 638 626 690.5 572 c 128,-1,13
 743 518 743 518 743 456.5 c 128,-1,14
 743 395 743 395 706 356 c 0,15,16
 642 286 642 286 508 286 c 1,17,18
 535 241 535 241 535 177 c 128,-1,19
 535 113 535 113 471.5 49 c 128,-1,20
 408 -15 408 -15 297.5 -15 c 128,-1,21
 187 -15 187 -15 117 56 c 128,-1,22
 47 127 47 127 47 232 c 0,23,24
 47 292 47 292 81.5 349 c 128,-1,25
 116 406 116 406 174 444 c 1,26,27
 144 471 144 471 121 510 c 128,-1,28
 98 549 98 549 98 590 c 0,29,30
 98 654 98 654 144 699.5 c 128,-1,31
 190 745 190 745 270 745 c 0,32,33
 322 745 322 745 366 722 c 128,-1,34
 410 699 410 699 410 672 c 0,35,36
 410 656 410 656 400.5 647.5 c 128,-1,37
 391 639 391 639 379 639 c 128,-1,38
 367 639 367 639 337 659.5 c 128,-1,39
 307 680 307 680 265.5 680 c 128,-1,40
 224 680 224 680 196 656 c 128,-1,41
 168 632 168 632 168 595.5 c 128,-1,42
 168 559 168 559 185.5 526.5 c 128,-1,43
 203 494 203 494 228 477 c 1,44,45
 249 483 249 483 275.5 483 c 128,-1,46
 302 483 302 483 321 470.5 c 128,-1,47
 340 458 340 458 340 436.5 c 128,-1,48
 340 415 340 415 320 402.5 c 128,-1,49
 300 390 300 390 272 390 c 128,-1,50
 244 390 244 390 222 401 c 1,51,52
 173 377 173 377 146 334 c 128,-1,53
 119 291 119 291 119 235 c 0,54,55
 119 157 119 157 169.5 105 c 128,-1,56
 220 53 220 53 296 53 c 128,-1,57
 372 53 372 53 418.5 95 c 128,-1,58
 465 137 465 137 465 194 c 0,59,60
 465 281 465 281 415 281 c 0,61,62
 402 281 402 281 382 272 c 128,-1,63
 362 263 362 263 347 263 c 128,-1,64
 332 263 332 263 322.5 273.5 c 128,-1,65
 313 284 313 284 313 299 c 0,66,67
 313 324 313 324 341.5 339 c 128,-1,68
 370 354 370 354 410 354 c 1,0,-1
EndSplineSet
EndChar

StartChar: quotesingle
Encoding: 39 39 10
Width: 190
GlyphClass: 2
Flags: W
LayerCount: 2
Fore
SplineSet
124.5 711.5 m 128,-1,1
 135 698 135 698 135 684 c 128,-1,2
 135 670 135 670 129 626 c 128,-1,3
 123 582 123 582 121.5 551.5 c 128,-1,4
 120 521 120 521 115 505.5 c 128,-1,5
 110 490 110 490 95.5 490 c 128,-1,6
 81 490 81 490 75.5 506 c 128,-1,7
 70 522 70 522 68.5 552 c 128,-1,8
 67 582 67 582 61 625.5 c 128,-1,9
 55 669 55 669 55 683.5 c 128,-1,10
 55 698 55 698 65.5 711.5 c 128,-1,11
 76 725 76 725 95 725 c 128,-1,0
 114 725 114 725 124.5 711.5 c 128,-1,1
EndSplineSet
EndChar

StartChar: parenleft
Encoding: 40 40 11
Width: 302
GlyphClass: 2
Flags: W
LayerCount: 2
Fore
SplineSet
272.5 749 m 128,-1,1
 282 738 282 738 282 723.5 c 128,-1,2
 282 709 282 709 272.5 694 c 128,-1,3
 263 679 263 679 242 652.5 c 128,-1,4
 221 626 221 626 205 597 c 0,5,6
 121 448 121 448 121 239 c 0,7,8
 121 76 121 76 177 -52 c 0,9,10
 207 -123 207 -123 256 -184 c 0,11,12
 268 -199 268 -199 268 -209 c 0,13,14
 268 -230 268 -230 249 -230 c 0,15,16
 218 -230 218 -230 177 -175.5 c 128,-1,17
 136 -121 136 -121 110 -59 c 0,18,19
 46 91 46 91 46 284 c 0,20,21
 46 367 46 367 67 455.5 c 128,-1,22
 88 544 88 544 118 609.5 c 128,-1,23
 148 675 148 675 182.5 717.5 c 128,-1,24
 217 760 217 760 240 760 c 128,-1,0
 263 760 263 760 272.5 749 c 128,-1,1
EndSplineSet
EndChar

StartChar: parenright
Encoding: 41 41 12
Width: 303
GlyphClass: 2
Flags: W
LayerCount: 2
Fore
SplineSet
256 284 m 0,0,1
 256 91 256 91 192 -59 c 0,2,3
 166 -121 166 -121 125 -175.5 c 128,-1,4
 84 -230 84 -230 53 -230 c 0,5,6
 34 -230 34 -230 34 -209 c 0,7,8
 34 -199 34 -199 46 -184 c 0,9,10
 181 -15 181 -15 181 239 c 0,11,12
 181 448 181 448 97 597 c 0,13,14
 81 626 81 626 60 652.5 c 128,-1,15
 39 679 39 679 29.5 694 c 128,-1,16
 20 709 20 709 20 723.5 c 128,-1,17
 20 738 20 738 29.5 749 c 128,-1,18
 39 760 39 760 62 760 c 128,-1,19
 85 760 85 760 119.5 717.5 c 128,-1,20
 154 675 154 675 184 609.5 c 128,-1,21
 214 544 214 544 235 455.5 c 128,-1,22
 256 367 256 367 256 284 c 0,0,1
EndSplineSet
EndChar

StartChar: asterisk
Encoding: 42 42 13
Width: 424
GlyphClass: 2
Flags: W
LayerCount: 2
Fore
SplineSet
234 555 m 1,0,-1
 245 465 l 1,1,2
 245 447 245 447 236 435.5 c 128,-1,3
 227 424 227 424 212 424 c 128,-1,4
 197 424 197 424 188 435.5 c 128,-1,5
 179 447 179 447 179 459 c 128,-1,6
 179 471 179 471 183.5 502 c 128,-1,7
 188 533 188 533 190 555 c 1,8,9
 172 543 172 543 149.5 524.5 c 128,-1,10
 127 506 127 506 116 499.5 c 128,-1,11
 105 493 105 493 93.5 493 c 128,-1,12
 82 493 82 493 72.5 501.5 c 128,-1,13
 63 510 63 510 63 523 c 128,-1,14
 63 536 63 536 70.5 544.5 c 128,-1,15
 78 553 78 553 88.5 557 c 128,-1,16
 99 561 99 561 124 570.5 c 128,-1,17
 149 580 149 580 170 591 c 1,18,19
 149 602 149 602 124 611.5 c 128,-1,20
 99 621 99 621 88.5 625 c 128,-1,21
 78 629 78 629 70.5 637.5 c 128,-1,22
 63 646 63 646 63 659 c 128,-1,23
 63 672 63 672 72.5 680.5 c 128,-1,24
 82 689 82 689 93.5 689 c 128,-1,25
 105 689 105 689 116 682.5 c 128,-1,26
 127 676 127 676 149.5 657.5 c 128,-1,27
 172 639 172 639 190 627 c 1,28,29
 190 627 190 627 179 719 c 1,30,31
 179 737 179 737 188 748.5 c 128,-1,32
 197 760 197 760 212 760 c 128,-1,33
 227 760 227 760 236 748.5 c 128,-1,34
 245 737 245 737 245 724.5 c 128,-1,35
 245 712 245 712 240.5 680.5 c 128,-1,36
 236 649 236 649 234 627 c 1,37,38
 252 639 252 639 274.5 657.5 c 128,-1,39
 297 676 297 676 308 682.5 c 128,-1,40
 319 689 319 689 330.5 689 c 128,-1,41
 342 689 342 689 351.5 680.5 c 128,-1,42
 361 672 361 672 361 659 c 128,-1,43
 361 646 361 646 353.5 637.5 c 128,-1,44
 346 629 346 629 335.5 625 c 128,-1,45
 325 621 325 621 300 611.5 c 128,-1,46
 275 602 275 602 254 591 c 1,47,48
 275 580 275 580 300 570.5 c 128,-1,49
 325 561 325 561 335.5 557 c 128,-1,50
 346 553 346 553 353.5 544.5 c 128,-1,51
 361 536 361 536 361 523 c 128,-1,52
 361 510 361 510 351.5 501.5 c 128,-1,53
 342 493 342 493 330.5 493 c 128,-1,54
 319 493 319 493 308 499.5 c 128,-1,55
 297 506 297 506 274.5 524.5 c 128,-1,56
 252 543 252 543 234 555 c 1,0,-1
EndSplineSet
EndChar

StartChar: plus
Encoding: 43 43 14
Width: 529
GlyphClass: 2
Flags: W
LayerCount: 2
Fore
SplineSet
296 291 m 1,0,-1
 442 294 l 2,1,2
 460 294 460 294 471.5 285 c 128,-1,3
 483 276 483 276 483 261 c 128,-1,4
 483 246 483 246 471.5 237 c 128,-1,5
 460 228 460 228 442 228 c 0,6,7
 392 228 392 228 296 231 c 1,8,-1
 300 74 l 2,9,10
 300 55 300 55 290.5 44 c 128,-1,11
 281 33 281 33 265 33 c 0,12,13
 232 33 232 33 232 74 c 0,14,15
 232 79 232 79 236 231 c 1,16,17
 134 228 134 228 102 228 c 128,-1,18
 70 228 70 228 58.5 237 c 128,-1,19
 47 246 47 246 47 261 c 128,-1,20
 47 276 47 276 58.5 285 c 128,-1,21
 70 294 70 294 88 294 c 2,22,-1
 236 291 l 1,23,24
 232 431 232 431 232 434 c 0,25,26
 232 475 232 475 265 475 c 0,27,28
 281 475 281 475 290.5 464 c 128,-1,29
 300 453 300 453 300 442 c 128,-1,30
 300 431 300 431 296 291 c 1,0,-1
EndSplineSet
EndChar

StartChar: comma
Encoding: 44 44 15
Width: 210
GlyphClass: 2
Flags: W
LayerCount: 2
Fore
SplineSet
151 49 m 0,0,1
 151 -19 151 -19 116.5 -86 c 128,-1,2
 82 -153 82 -153 48 -153 c 0,3,4
 40 -153 40 -153 34 -147.5 c 128,-1,5
 28 -142 28 -142 28 -134.5 c 128,-1,6
 28 -127 28 -127 46.5 -95.5 c 128,-1,7
 65 -64 65 -64 65 -38.5 c 128,-1,8
 65 -13 65 -13 61 5.5 c 128,-1,9
 57 24 57 24 57 44 c 128,-1,10
 57 64 57 64 71.5 83 c 128,-1,11
 86 102 86 102 107.5 102 c 128,-1,12
 129 102 129 102 140 86.5 c 128,-1,13
 151 71 151 71 151 49 c 0,0,1
EndSplineSet
EndChar

StartChar: hyphen
Encoding: 45 45 16
Width: 428
GlyphClass: 2
Flags: W
LayerCount: 2
Fore
SplineSet
214 291 m 1,0,-1
 321 294 l 2,1,2
 339 294 339 294 350.5 285 c 128,-1,3
 362 276 362 276 362 261 c 128,-1,4
 362 246 362 246 350.5 237 c 128,-1,5
 339 228 339 228 321 228 c 2,6,-1
 214 231 l 1,7,-1
 107 228 l 2,8,9
 89 228 89 228 77.5 237 c 128,-1,10
 66 246 66 246 66 261 c 128,-1,11
 66 276 66 276 77.5 285 c 128,-1,12
 89 294 89 294 107 294 c 2,13,-1
 214 291 l 1,0,-1
EndSplineSet
EndChar

StartChar: period
Encoding: 46 46 17
Width: 207
GlyphClass: 2
Flags: W
LayerCount: 2
Fore
SplineSet
139 91.5 m 128,-1,1
 150 76 150 76 150 52.5 c 128,-1,2
 150 29 150 29 135.5 9.5 c 128,-1,3
 121 -10 121 -10 100 -10 c 128,-1,4
 79 -10 79 -10 67.5 6 c 128,-1,5
 56 22 56 22 56 45.5 c 128,-1,6
 56 69 56 69 70.5 88 c 128,-1,7
 85 107 85 107 106.5 107 c 128,-1,0
 128 107 128 107 139 91.5 c 128,-1,1
EndSplineSet
EndChar

StartChar: slash
Encoding: 47 47 18
Width: 363
GlyphClass: 2
Flags: W
LayerCount: 2
Fore
SplineSet
92 -152 m 0,0,1
 56 -152 56 -152 56 -112 c 0,2,3
 56 -95 56 -95 92.5 61.5 c 128,-1,4
 129 218 129 218 149 311.5 c 128,-1,5
 169 405 169 405 187.5 498.5 c 128,-1,6
 206 592 206 592 216.5 649 c 128,-1,7
 227 706 227 706 230 718 c 0,8,9
 239 760 239 760 270 760 c 0,10,11
 306 760 306 760 306 718 c 0,12,13
 306 704 306 704 294 651 c 0,14,15
 200 253 200 253 146 -41 c 0,16,17
 135 -98 135 -98 132 -110 c 0,18,19
 124 -152 124 -152 92 -152 c 0,0,1
EndSplineSet
EndChar

StartChar: zero
Encoding: 48 48 19
Width: 658
GlyphClass: 2
Flags: W
LayerCount: 2
Fore
SplineSet
596 350 m 128,-1,1
 596 201 596 201 522 93 c 128,-1,2
 448 -15 448 -15 329 -15 c 128,-1,3
 210 -15 210 -15 136 93 c 128,-1,4
 62 201 62 201 62 350 c 128,-1,5
 62 499 62 499 136 607 c 128,-1,6
 210 715 210 715 329 715 c 128,-1,7
 448 715 448 715 522 607 c 128,-1,0
 596 499 596 499 596 350 c 128,-1,1
524 350 m 128,-1,9
 524 470 524 470 468.5 559.5 c 128,-1,10
 413 649 413 649 329 649 c 128,-1,11
 245 649 245 649 189.5 559.5 c 128,-1,12
 134 470 134 470 134 350 c 128,-1,13
 134 230 134 230 189.5 140.5 c 128,-1,14
 245 51 245 51 329 51 c 128,-1,15
 413 51 413 51 468.5 140.5 c 128,-1,8
 524 230 524 230 524 350 c 128,-1,9
EndSplineSet
EndChar

StartChar: one
Encoding: 49 49 20
Width: 397
GlyphClass: 2
Flags: W
LayerCount: 2
Fore
SplineSet
297.5 91 m 128,-1,1
 299 48 299 48 299 33 c 128,-1,2
 299 18 299 18 288 4 c 128,-1,3
 277 -10 277 -10 260 -10 c 128,-1,4
 243 -10 243 -10 232 4 c 128,-1,5
 221 18 221 18 221 33 c 128,-1,6
 221 48 221 48 222 91 c 0,7,8
 226 191 226 191 226 351 c 2,9,-1
 226 602 l 1,10,-1
 178 542 l 2,11,12
 166 527 166 527 150.5 506.5 c 128,-1,13
 135 486 135 486 127 476 c 128,-1,14
 119 466 119 466 108.5 453 c 128,-1,15
 98 440 98 440 92.5 434 c 128,-1,16
 87 428 87 428 80 422 c 0,17,18
 67 412 67 412 54 412 c 128,-1,19
 41 412 41 412 32 422 c 128,-1,20
 23 432 23 432 23 442.5 c 128,-1,21
 23 453 23 453 25.5 459.5 c 128,-1,22
 28 466 28 466 37 477.5 c 128,-1,23
 46 489 46 489 55 499 c 128,-1,24
 64 509 64 509 84.5 531.5 c 128,-1,25
 105 554 105 554 125.5 578 c 128,-1,26
 146 602 146 602 170.5 633.5 c 128,-1,27
 195 665 195 665 206 678 c 0,28,29
 231 710 231 710 253.5 710 c 128,-1,30
 276 710 276 710 287.5 696 c 128,-1,31
 299 682 299 682 299 667 c 128,-1,32
 299 652 299 652 298 608 c 0,33,34
 294 505 294 505 294 390.5 c 128,-1,35
 294 276 294 276 295 205 c 128,-1,0
 296 134 296 134 297.5 91 c 128,-1,1
EndSplineSet
EndChar

StartChar: two
Encoding: 50 50 21
Width: 548
GlyphClass: 2
Flags: W
LayerCount: 2
Fore
SplineSet
267 64 m 1,0,-1
 457 69 l 2,1,2
 479 69 479 69 493 58 c 128,-1,3
 507 47 507 47 507 32 c 0,4,5
 507 -5 507 -5 457 -5 c 1,6,-1
 267 0 l 1,7,-1
 96 -5 l 1,8,9
 46 -5 46 -5 46 41 c 0,10,11
 46 78 46 78 74 113.5 c 128,-1,12
 102 149 102 149 120 169 c 128,-1,13
 138 189 138 189 180 234.5 c 128,-1,14
 222 280 222 280 238 297.5 c 128,-1,15
 254 315 254 315 273 335.5 c 128,-1,16
 292 356 292 356 300 365.5 c 128,-1,17
 308 375 308 375 325.5 396 c 128,-1,18
 343 417 343 417 352 431.5 c 128,-1,19
 361 446 361 446 372 465 c 0,20,21
 393 501 393 501 393 532 c 0,22,23
 393 582 393 582 357 615.5 c 128,-1,24
 321 649 321 649 275.5 649 c 128,-1,25
 230 649 230 649 201.5 632.5 c 128,-1,26
 173 616 173 616 160 596 c 0,27,28
 127 543 127 543 101 543 c 0,29,30
 87 543 87 543 77.5 552.5 c 128,-1,31
 68 562 68 562 68 576 c 0,32,33
 68 615 68 615 126 665 c 128,-1,34
 184 715 184 715 272 715 c 128,-1,35
 360 715 360 715 412.5 660 c 128,-1,36
 465 605 465 605 465 539 c 256,37,38
 465 473 465 473 426 414 c 1,39,40
 395 369 395 369 354.5 325 c 128,-1,41
 314 281 314 281 295.5 259.5 c 128,-1,42
 277 238 277 238 233 192 c 128,-1,43
 189 146 189 146 163 116 c 128,-1,44
 137 86 137 86 128 64 c 1,45,-1
 267 64 l 1,0,-1
EndSplineSet
EndChar

StartChar: three
Encoding: 51 51 22
Width: 568
GlyphClass: 2
Flags: W
LayerCount: 2
Fore
SplineSet
267 700 m 1,0,-1
 419 704 l 1,1,2
 479 704 479 704 479 658 c 0,3,4
 479 637 479 637 460 613.5 c 128,-1,5
 441 590 441 590 392 541 c 128,-1,6
 343 492 343 492 303 443 c 1,7,8
 400 423 400 423 453 363 c 128,-1,9
 506 303 506 303 506 215 c 128,-1,10
 506 127 506 127 442.5 56 c 128,-1,11
 379 -15 379 -15 268 -15 c 0,12,13
 184 -15 184 -15 120.5 31 c 128,-1,14
 57 77 57 77 57 117 c 0,15,16
 57 128 57 128 64 137 c 128,-1,17
 71 146 71 146 81.5 146 c 128,-1,18
 92 146 92 146 99.5 140.5 c 128,-1,19
 107 135 107 135 116.5 123.5 c 128,-1,20
 126 112 126 112 138 101 c 128,-1,21
 150 90 150 90 163 80.5 c 128,-1,22
 176 71 176 71 207 61 c 128,-1,23
 238 51 238 51 276 51 c 0,24,25
 345 51 345 51 389.5 99 c 128,-1,26
 434 147 434 147 434 219 c 128,-1,27
 434 291 434 291 383 336.5 c 128,-1,28
 332 382 332 382 263 386 c 1,29,30
 232 355 232 355 212 343 c 128,-1,31
 192 331 192 331 171 331 c 128,-1,32
 150 331 150 331 138.5 342.5 c 128,-1,33
 127 354 127 354 127 374.5 c 128,-1,34
 127 395 127 395 152 417.5 c 128,-1,35
 177 440 177 440 227 450 c 1,36,37
 314 546 314 546 383 632 c 1,38,-1
 267 636 l 1,39,-1
 115 631 l 2,40,41
 93 631 93 631 80 641 c 128,-1,42
 67 651 67 651 67 668 c 128,-1,43
 67 685 67 685 80 695 c 128,-1,44
 93 705 93 705 115 705 c 2,45,46
 115 705 115 705 267 700 c 1,0,-1
EndSplineSet
EndChar

StartChar: four
Encoding: 52 52 23
Width: 578
GlyphClass: 2
Flags: W
LayerCount: 2
Fore
SplineSet
432 228 m 1,0,-1
 437 40 l 2,1,2
 437 17 437 17 426.5 3.5 c 128,-1,3
 416 -10 416 -10 398 -10 c 128,-1,4
 380 -10 380 -10 369.5 3.5 c 128,-1,5
 359 17 359 17 359 40 c 2,6,-1
 363 230 l 1,7,-1
 289 231 l 1,8,-1
 70 227 l 2,9,10
 49 227 49 227 37 238.5 c 128,-1,11
 25 250 25 250 25 263 c 128,-1,12
 25 276 25 276 26.5 283.5 c 128,-1,13
 28 291 28 291 34.5 302 c 128,-1,14
 41 313 41 313 47.5 323 c 128,-1,15
 54 333 54 333 70 353.5 c 128,-1,16
 86 374 86 374 101 392 c 0,17,18
 117 411 117 411 198 514 c 2,19,-1
 315 663 l 2,20,21
 351 710 351 710 385 710 c 0,22,23
 437 710 437 710 437 650 c 0,24,25
 437 644 437 644 436 599 c 0,26,27
 432 494 432 494 432 297 c 1,28,-1
 489 300 l 1,29,30
 511 300 511 300 525 290 c 128,-1,31
 539 280 539 280 539 263 c 128,-1,32
 539 246 539 246 525 236 c 128,-1,33
 511 226 511 226 497.5 226 c 128,-1,34
 484 226 484 226 432 228 c 1,0,-1
115 295 m 1,35,-1
 364 295 l 1,36,37
 366 368 366 368 366 474 c 1,38,-1
 364 614 l 1,39,40
 320 563 320 563 234.5 453 c 128,-1,41
 149 343 149 343 115 295 c 1,35,-1
EndSplineSet
EndChar

StartChar: five
Encoding: 53 53 24
Width: 575
GlyphClass: 2
Flags: W
LayerCount: 2
Fore
SplineSet
432 631 m 2,0,-1
 290 636 l 1,1,2
 236 636 236 636 202 634 c 128,-1,3
 168 632 168 632 156 632 c 1,4,5
 162 581 162 581 162 544 c 0,6,7
 162 483 162 483 156 429 c 2,8,-1
 154 411 l 1,9,10
 225 465 225 465 301 465 c 0,11,12
 407 465 407 465 464.5 399 c 128,-1,13
 522 333 522 333 522 232.5 c 128,-1,14
 522 132 522 132 456.5 58.5 c 128,-1,15
 391 -15 391 -15 280 -15 c 0,16,17
 192 -15 192 -15 127 38.5 c 128,-1,18
 62 92 62 92 62 139 c 0,19,20
 62 154 62 154 70.5 163.5 c 128,-1,21
 79 173 79 173 92 173 c 128,-1,22
 105 173 105 173 112.5 166.5 c 128,-1,23
 120 160 120 160 129 144.5 c 128,-1,24
 138 129 138 129 144 122 c 0,25,26
 204 51 204 51 280 51 c 128,-1,27
 356 51 356 51 403 107 c 128,-1,28
 450 163 450 163 450 234 c 128,-1,29
 450 305 450 305 408.5 352 c 128,-1,30
 367 399 367 399 297 399 c 0,31,32
 229 399 229 399 157 344 c 0,33,34
 133 325 133 325 120 325 c 0,35,36
 81 325 81 325 81 367 c 0,37,38
 81 378 81 378 87.5 434.5 c 128,-1,39
 94 491 94 491 94 531 c 128,-1,40
 94 571 94 571 88.5 608 c 128,-1,41
 83 645 83 645 83 658 c 0,42,43
 83 705 83 705 138 705 c 1,44,-1
 290 700 l 1,45,-1
 432 705 l 2,46,47
 454 705 454 705 467 695 c 128,-1,48
 480 685 480 685 480 668 c 128,-1,49
 480 651 480 651 467 641 c 128,-1,50
 454 631 454 631 432 631 c 2,0,-1
EndSplineSet
EndChar

StartChar: six
Encoding: 54 54 25
Width: 577
GlyphClass: 2
Flags: W
LayerCount: 2
Fore
SplineSet
468 385 m 128,-1,1
 524 317 524 317 524 223 c 128,-1,2
 524 129 524 129 464.5 57 c 128,-1,3
 405 -15 405 -15 296 -15 c 128,-1,4
 187 -15 187 -15 124.5 64.5 c 128,-1,5
 62 144 62 144 62 266 c 0,6,7
 62 451 62 451 164.5 580.5 c 128,-1,8
 267 710 267 710 424 710 c 0,9,10
 488 710 488 710 488 675 c 0,11,12
 488 638 488 638 433 638 c 0,13,14
 318 638 318 638 237 556 c 128,-1,15
 156 474 156 474 141 361 c 1,16,17
 166 398 166 398 212 425.5 c 128,-1,18
 258 453 258 453 314 453 c 0,19,0
 412 453 412 453 468 385 c 128,-1,1
409 98 m 128,-1,21
 452 147 452 147 452 219 c 128,-1,22
 452 291 452 291 411 340 c 128,-1,23
 370 389 370 389 300.5 389 c 128,-1,24
 231 389 231 389 186 335 c 128,-1,25
 141 281 141 281 141 213 c 128,-1,26
 141 145 141 145 187.5 97 c 128,-1,27
 234 49 234 49 300 49 c 128,-1,20
 366 49 366 49 409 98 c 128,-1,21
EndSplineSet
EndChar

StartChar: seven
Encoding: 55 55 26
Width: 490
GlyphClass: 2
Flags: W
LayerCount: 2
Fore
SplineSet
243 700 m 1,0,-1
 405 705 l 1,1,2
 465 705 465 705 465 658 c 0,3,4
 465 638 465 638 447.5 599.5 c 128,-1,5
 430 561 430 561 390 481.5 c 128,-1,6
 350 402 350 402 314 320 c 0,7,8
 246 163 246 163 218 64 c 2,9,-1
 207 24 l 1,10,11
 194 -10 194 -10 166 -10 c 0,12,13
 151 -10 151 -10 141.5 1.5 c 128,-1,14
 132 13 132 13 132 26 c 128,-1,15
 132 39 132 39 133.5 49.5 c 128,-1,16
 135 60 135 60 139 74 c 128,-1,17
 143 88 143 88 146.5 100.5 c 128,-1,18
 150 113 150 113 158 132.5 c 128,-1,19
 166 152 166 152 172 167 c 128,-1,20
 178 182 178 182 189 208.5 c 128,-1,21
 200 235 200 235 208 253 c 128,-1,22
 216 271 216 271 230 304.5 c 128,-1,23
 244 338 244 338 263.5 382.5 c 128,-1,24
 283 427 283 427 323.5 517 c 128,-1,25
 364 607 364 607 374 632 c 1,26,-1
 243 636 l 1,27,-1
 81 631 l 1,28,29
 31 631 31 631 31 668 c 128,-1,30
 31 705 31 705 81 705 c 1,31,-1
 243 700 l 1,0,-1
EndSplineSet
EndChar

StartChar: eight
Encoding: 56 56 27
Width: 576
GlyphClass: 2
Flags: W
LayerCount: 2
Fore
SplineSet
472.5 309.5 m 128,-1,1
 517 258 517 258 517 180.5 c 128,-1,2
 517 103 517 103 453 44 c 128,-1,3
 389 -15 389 -15 288 -15 c 128,-1,4
 187 -15 187 -15 123 44 c 128,-1,5
 59 103 59 103 59 180.5 c 128,-1,6
 59 258 59 258 105.5 310 c 128,-1,7
 152 362 152 362 223 394 c 1,8,9
 163 428 163 428 130 466.5 c 128,-1,10
 97 505 97 505 97 564 c 128,-1,11
 97 623 97 623 151 669 c 128,-1,12
 205 715 205 715 287.5 715 c 128,-1,13
 370 715 370 715 424.5 668.5 c 128,-1,14
 479 622 479 622 479 564 c 128,-1,15
 479 506 479 506 447.5 467.5 c 128,-1,16
 416 429 416 429 361 394 c 1,17,0
 428 361 428 361 472.5 309.5 c 128,-1,1
445 188 m 0,18,19
 445 288 445 288 288 355 c 1,20,21
 131 288 131 288 131 188 c 0,22,23
 131 126 131 126 176 88.5 c 128,-1,24
 221 51 221 51 288 51 c 128,-1,25
 355 51 355 51 400 88.5 c 128,-1,26
 445 126 445 126 445 188 c 0,18,19
378 491 m 128,-1,28
 409 521 409 521 409 559 c 128,-1,29
 409 597 409 597 373 623 c 128,-1,30
 337 649 337 649 289 649 c 128,-1,31
 241 649 241 649 204 623 c 128,-1,32
 167 597 167 597 167 559 c 128,-1,33
 167 521 167 521 199 491.5 c 128,-1,34
 231 462 231 462 290 430 c 1,35,27
 347 461 347 461 378 491 c 128,-1,28
EndSplineSet
EndChar

StartChar: nine
Encoding: 57 57 28
Width: 575
GlyphClass: 2
Flags: W
LayerCount: 2
Fore
SplineSet
107 318 m 128,-1,1
 51 389 51 389 51 482 c 128,-1,2
 51 575 51 575 113.5 645 c 128,-1,3
 176 715 176 715 282 715 c 128,-1,4
 388 715 388 715 450.5 635.5 c 128,-1,5
 513 556 513 556 513 434 c 0,6,7
 513 243 513 243 411.5 116.5 c 128,-1,8
 310 -10 310 -10 151 -10 c 0,9,10
 87 -10 87 -10 87 25 c 0,11,12
 87 62 87 62 142 62 c 0,13,14
 259 62 259 62 339 141 c 128,-1,15
 419 220 419 220 434 339 c 1,16,17
 409 302 409 302 363 274.5 c 128,-1,18
 317 247 317 247 261 247 c 0,19,0
 163 247 163 247 107 318 c 128,-1,1
167.5 602 m 128,-1,21
 123 553 123 553 123 481 c 128,-1,22
 123 409 123 409 164 360 c 128,-1,23
 205 311 205 311 274.5 311 c 128,-1,24
 344 311 344 311 389 365 c 128,-1,25
 434 419 434 419 434 487 c 128,-1,26
 434 555 434 555 389 603 c 128,-1,27
 344 651 344 651 278 651 c 128,-1,20
 212 651 212 651 167.5 602 c 128,-1,21
EndSplineSet
EndChar

StartChar: colon
Encoding: 58 58 29
Width: 226
GlyphClass: 2
Flags: W
LayerCount: 2
Fore
SplineSet
149 494.5 m 128,-1,1
 160 479 160 479 160 455.5 c 128,-1,2
 160 432 160 432 145.5 412.5 c 128,-1,3
 131 393 131 393 110 393 c 128,-1,4
 89 393 89 393 77.5 409 c 128,-1,5
 66 425 66 425 66 448.5 c 128,-1,6
 66 472 66 472 80.5 491 c 128,-1,7
 95 510 95 510 116.5 510 c 128,-1,0
 138 510 138 510 149 494.5 c 128,-1,1
149 91.5 m 128,-1,9
 160 76 160 76 160 52.5 c 128,-1,10
 160 29 160 29 145.5 9.5 c 128,-1,11
 131 -10 131 -10 110 -10 c 128,-1,12
 89 -10 89 -10 77.5 6 c 128,-1,13
 66 22 66 22 66 45.5 c 128,-1,14
 66 69 66 69 80.5 88 c 128,-1,15
 95 107 95 107 116.5 107 c 128,-1,8
 138 107 138 107 149 91.5 c 128,-1,9
EndSplineSet
EndChar

StartChar: semicolon
Encoding: 59 59 30
Width: 242
GlyphClass: 2
Flags: W
LayerCount: 2
Fore
SplineSet
170 49 m 0,0,1
 170 -19 170 -19 135.5 -86 c 128,-1,2
 101 -153 101 -153 67 -153 c 0,3,4
 59 -153 59 -153 53 -147.5 c 128,-1,5
 47 -142 47 -142 47 -134.5 c 128,-1,6
 47 -127 47 -127 65.5 -95.5 c 128,-1,7
 84 -64 84 -64 84 -38.5 c 128,-1,8
 84 -13 84 -13 80 5.5 c 128,-1,9
 76 24 76 24 76 44 c 128,-1,10
 76 64 76 64 90.5 83 c 128,-1,11
 105 102 105 102 126.5 102 c 128,-1,12
 148 102 148 102 159 86.5 c 128,-1,13
 170 71 170 71 170 49 c 0,0,1
160 494.5 m 128,-1,15
 171 479 171 479 171 455.5 c 128,-1,16
 171 432 171 432 156.5 412.5 c 128,-1,17
 142 393 142 393 121 393 c 128,-1,18
 100 393 100 393 88.5 409 c 128,-1,19
 77 425 77 425 77 448.5 c 128,-1,20
 77 472 77 472 91.5 491 c 128,-1,21
 106 510 106 510 127.5 510 c 128,-1,14
 149 510 149 510 160 494.5 c 128,-1,15
EndSplineSet
EndChar

StartChar: less
Encoding: 60 60 31
Width: 543
GlyphClass: 2
Flags: W
LayerCount: 2
Fore
SplineSet
52 268 m 128,-1,1
 45 279 45 279 45 291 c 128,-1,2
 45 303 45 303 48 310 c 128,-1,3
 51 317 51 317 59.5 325 c 128,-1,4
 68 333 68 333 77.5 339 c 128,-1,5
 87 345 87 345 106 354.5 c 128,-1,6
 125 364 125 364 141.5 372 c 128,-1,7
 158 380 158 380 188 394.5 c 128,-1,8
 218 409 218 409 245.5 423 c 128,-1,9
 273 437 273 437 307.5 454.5 c 128,-1,10
 342 472 342 472 357 480 c 128,-1,11
 372 488 372 488 390 496 c 0,12,13
 419 509 419 509 435 509 c 128,-1,14
 451 509 451 509 461.5 499.5 c 128,-1,15
 472 490 472 490 472 476.5 c 128,-1,16
 472 463 472 463 465 454.5 c 128,-1,17
 458 446 458 446 440 437 c 128,-1,18
 422 428 422 428 402 420 c 0,19,20
 328 390 328 390 298.5 376 c 128,-1,21
 269 362 269 362 254 355 c 128,-1,22
 239 348 239 348 230 344 c 128,-1,23
 221 340 221 340 207.5 333 c 128,-1,24
 194 326 194 326 185.5 321.5 c 128,-1,25
 177 317 177 317 168 312 c 0,26,27
 151 301 151 301 151 294 c 0,28,29
 151 278 151 278 346 192 c 0,30,31
 384 175 384 175 403 167 c 128,-1,32
 422 159 422 159 440 149 c 0,33,34
 473 131 473 131 473 112.5 c 128,-1,35
 473 94 473 94 462.5 83 c 128,-1,36
 452 72 452 72 440 72 c 128,-1,37
 428 72 428 72 415.5 76 c 128,-1,38
 403 80 403 80 384 89 c 128,-1,39
 365 98 365 98 348 108 c 0,40,41
 239 166 239 166 187 190.5 c 128,-1,42
 135 215 135 215 116 224 c 128,-1,43
 97 233 97 233 78 245 c 128,-1,0
 59 257 59 257 52 268 c 128,-1,1
EndSplineSet
EndChar

StartChar: equal
Encoding: 61 61 32
Width: 592
GlyphClass: 2
Flags: W
LayerCount: 2
Fore
SplineSet
296 363 m 1,0,-1
 473 366 l 2,1,2
 491 366 491 366 502.5 357 c 128,-1,3
 514 348 514 348 514 333 c 128,-1,4
 514 318 514 318 502.5 309 c 128,-1,5
 491 300 491 300 473 300 c 2,6,-1
 296 303 l 1,7,-1
 119 300 l 2,8,9
 101 300 101 300 89.5 309 c 128,-1,10
 78 318 78 318 78 333 c 128,-1,11
 78 348 78 348 89.5 357 c 128,-1,12
 101 366 101 366 119 366 c 2,13,14
 119 366 119 366 296 363 c 1,0,-1
296 219 m 1,15,-1
 473 222 l 2,16,17
 491 222 491 222 502.5 213 c 128,-1,18
 514 204 514 204 514 189 c 128,-1,19
 514 174 514 174 502.5 165 c 128,-1,20
 491 156 491 156 473 156 c 2,21,-1
 296 159 l 1,22,-1
 119 156 l 2,23,24
 101 156 101 156 89.5 165 c 128,-1,25
 78 174 78 174 78 189 c 128,-1,26
 78 204 78 204 89.5 213 c 128,-1,27
 101 222 101 222 119 222 c 2,28,-1
 296 219 l 1,15,-1
EndSplineSet
EndChar

StartChar: greater
Encoding: 62 62 33
Width: 543
GlyphClass: 2
Flags: W
LayerCount: 2
Fore
SplineSet
495 310 m 128,-1,1
 498 303 498 303 498 291 c 128,-1,2
 498 279 498 279 491 268 c 128,-1,3
 484 257 484 257 465 245 c 128,-1,4
 446 233 446 233 427 224 c 128,-1,5
 408 215 408 215 369.5 197 c 128,-1,6
 331 179 331 179 303 164.5 c 128,-1,7
 275 150 275 150 244 133.5 c 128,-1,8
 213 117 213 117 195.5 107.5 c 128,-1,9
 178 98 178 98 159 89 c 0,10,11
 123 72 123 72 107 72 c 128,-1,12
 91 72 91 72 80.5 83 c 128,-1,13
 70 94 70 94 70 108 c 128,-1,14
 70 122 70 122 77 130.5 c 128,-1,15
 84 139 84 139 102.5 149 c 128,-1,16
 121 159 121 159 140 167 c 0,17,18
 189 188 189 188 290.5 234.5 c 128,-1,19
 392 281 392 281 392 294 c 0,20,21
 392 304 392 304 336 333 c 0,22,23
 322 340 322 340 313 344 c 0,24,25
 278 359 278 359 256.5 370 c 128,-1,26
 235 381 235 381 198 396.5 c 128,-1,27
 161 412 161 412 141 420 c 128,-1,28
 121 428 121 428 103 437 c 128,-1,29
 85 446 85 446 78 454.5 c 128,-1,30
 71 463 71 463 71 476.5 c 128,-1,31
 71 490 71 490 81.5 499.5 c 128,-1,32
 92 509 92 509 103 509 c 128,-1,33
 114 509 114 509 124.5 506.5 c 128,-1,34
 135 504 135 504 153 496 c 128,-1,35
 171 488 171 488 186 480 c 128,-1,36
 201 472 201 472 235.5 454.5 c 128,-1,37
 270 437 270 437 297.5 423 c 128,-1,38
 325 409 325 409 355 394.5 c 128,-1,39
 385 380 385 380 401.5 372 c 128,-1,40
 418 364 418 364 437 354.5 c 128,-1,41
 456 345 456 345 465.5 339 c 128,-1,42
 475 333 475 333 483.5 325 c 128,-1,0
 492 317 492 317 495 310 c 128,-1,1
EndSplineSet
EndChar

StartChar: question
Encoding: 63 63 34
Width: 451
GlyphClass: 2
Flags: W
LayerCount: 2
Fore
SplineSet
339 436 m 0,0,1
 313 408 313 408 287 382 c 0,2,3
 225 320 225 320 225 261.5 c 128,-1,4
 225 203 225 203 190 203 c 0,5,6
 153 203 153 203 153 259 c 0,7,8
 153 335 153 335 215 402 c 0,9,10
 241 430 241 430 267 456 c 0,11,12
 329 520 329 520 329 581 c 0,13,14
 329 629 329 629 294.5 662.5 c 128,-1,15
 260 696 260 696 223.5 696 c 128,-1,16
 187 696 187 696 163 684 c 128,-1,17
 139 672 139 672 128 658 c 0,18,19
 100 620 100 620 83 620 c 128,-1,20
 66 620 66 620 57.5 629.5 c 128,-1,21
 49 639 49 639 49 652 c 0,22,23
 49 687 49 687 100.5 723.5 c 128,-1,24
 152 760 152 760 215 760 c 0,25,26
 298 760 298 760 349.5 708.5 c 128,-1,27
 401 657 401 657 401 579 c 128,-1,28
 401 501 401 501 339 436 c 0,0,1
224 85 m 128,-1,30
 235 70 235 70 235 46.5 c 128,-1,31
 235 23 235 23 220.5 4 c 128,-1,32
 206 -15 206 -15 185.5 -15 c 128,-1,33
 165 -15 165 -15 154 1 c 128,-1,34
 143 17 143 17 143 39.5 c 128,-1,35
 143 62 143 62 157.5 81 c 128,-1,36
 172 100 172 100 192.5 100 c 128,-1,29
 213 100 213 100 224 85 c 128,-1,30
EndSplineSet
EndChar

StartChar: at
Encoding: 64 64 35
Width: 1003
GlyphClass: 2
Flags: W
LayerCount: 2
Fore
SplineSet
710 413 m 0,0,1
 710 398 710 398 690 243 c 1,2,-1
 690 199 l 2,3,4
 690 58 690 58 766 58 c 0,5,6
 810 58 810 58 844.5 109 c 128,-1,7
 879 160 879 160 879 273.5 c 128,-1,8
 879 387 879 387 826.5 473.5 c 128,-1,9
 774 560 774 560 690.5 602 c 128,-1,10
 607 644 607 644 507 644 c 0,11,12
 353 644 353 644 243.5 519 c 128,-1,13
 134 394 134 394 134 221.5 c 128,-1,14
 134 49 134 49 229 -57.5 c 128,-1,15
 324 -164 324 -164 454 -164 c 0,16,17
 508 -164 508 -164 553.5 -151.5 c 128,-1,18
 599 -139 599 -139 623 -124.5 c 128,-1,19
 647 -110 647 -110 668 -97.5 c 128,-1,20
 689 -85 689 -85 699.5 -85 c 128,-1,21
 710 -85 710 -85 718 -93.5 c 128,-1,22
 726 -102 726 -102 726 -115 c 128,-1,23
 726 -128 726 -128 705.5 -147 c 128,-1,24
 685 -166 685 -166 650.5 -184.5 c 128,-1,25
 616 -203 616 -203 562 -216.5 c 128,-1,26
 508 -230 508 -230 449 -230 c 0,27,28
 284 -230 284 -230 171.5 -104.5 c 128,-1,29
 59 21 59 21 59 218 c 0,30,31
 59 351 59 351 116.5 464 c 128,-1,32
 174 577 174 577 277.5 643.5 c 128,-1,33
 381 710 381 710 508 710 c 0,34,35
 702 710 702 710 828 591 c 128,-1,36
 954 472 954 472 954 267 c 0,37,38
 954 148 954 148 899.5 69.5 c 128,-1,39
 845 -9 845 -9 767 -9 c 0,40,41
 655 -9 655 -9 636 117 c 1,42,43
 612 63 612 63 568 27 c 128,-1,44
 524 -9 524 -9 462.5 -9 c 128,-1,45
 401 -9 401 -9 359 31 c 0,46,47
 285 101 285 101 285 226 c 0,48,49
 285 329 285 329 346.5 405.5 c 128,-1,50
 408 482 408 482 505 482 c 0,51,52
 566 482 566 482 629 437 c 1,53,54
 637 482 637 482 671 482 c 0,55,56
 710 482 710 482 710 413 c 0,0,1
630 216 m 1,57,-1
 630 365 l 1,58,59
 577 416 577 416 511 416 c 128,-1,60
 445 416 445 416 400 362.5 c 128,-1,61
 355 309 355 309 355 234 c 128,-1,62
 355 159 355 159 384 106.5 c 128,-1,63
 413 54 413 54 465.5 54 c 128,-1,64
 518 54 518 54 561.5 101 c 128,-1,65
 605 148 605 148 630 216 c 1,57,-1
EndSplineSet
EndChar

StartChar: A
Encoding: 65 65 36
Width: 642
GlyphClass: 2
Flags: W
LayerCount: 2
Fore
SplineSet
510 318 m 1,0,-1
 554 319 l 2,1,2
 576 319 576 319 590 308 c 128,-1,3
 604 297 604 297 604 280 c 0,4,5
 604 242 604 242 534 242 c 1,6,7
 550 193 550 193 557.5 170 c 128,-1,8
 565 147 565 147 578 112 c 0,9,10
 604 40 604 40 604 26 c 128,-1,11
 604 12 604 12 595 1 c 128,-1,12
 586 -10 586 -10 570 -10 c 0,13,14
 541 -10 541 -10 526 25 c 1,15,16
 512 63 512 63 491.5 131 c 128,-1,17
 471 199 471 199 456 246 c 1,18,19
 336 249 336 249 289 249 c 128,-1,20
 242 249 242 249 177 246 c 1,21,22
 115 38 115 38 111 27 c 0,23,24
 97 -10 97 -10 72 -10 c 0,25,26
 57 -10 57 -10 48 0 c 128,-1,27
 39 10 39 10 39 24.5 c 128,-1,28
 39 39 39 39 48 69.5 c 128,-1,29
 57 100 57 100 75.5 154 c 128,-1,30
 94 208 94 208 105 244 c 1,31,-1
 87 244 l 2,32,33
 39 244 39 244 39 281 c 128,-1,34
 39 318 39 318 87 318 c 0,35,36
 110 318 110 318 128 317 c 1,37,38
 131 325 131 325 259 700 c 0,39,40
 280 760 280 760 317 760 c 0,41,42
 342 760 342 760 355.5 745.5 c 128,-1,43
 369 731 369 731 378 708.5 c 128,-1,44
 387 686 387 686 408 622 c 0,45,46
 474 421 474 421 510 318 c 1,0,-1
199 315 m 1,47,48
 255 312 255 312 318.5 312 c 128,-1,49
 382 312 382 312 434 315 c 1,50,51
 331 646 331 646 319 646 c 0,52,53
 305 646 305 646 226 398 c 1,54,-1
 199 315 l 1,47,48
EndSplineSet
EndChar

StartChar: B
Encoding: 66 66 37
Width: 655
GlyphClass: 2
Flags: W
LayerCount: 2
Fore
SplineSet
110 83 m 1,0,-1
 113 368 l 2,1,2
 113 424 113 424 112 528.5 c 128,-1,3
 111 633 111 633 111 646 c 1,4,5
 99 644 99 644 95 644 c 0,6,7
 65 644 65 644 65 677 c 0,8,9
 65 699 65 699 91 717.5 c 128,-1,10
 117 736 117 736 154 746 c 0,11,12
 231 765 231 765 292.5 765 c 128,-1,13
 354 765 354 765 407.5 747 c 128,-1,14
 461 729 461 729 492 701 c 0,15,16
 552 645 552 645 552 581 c 0,17,18
 552 465 552 465 444 408 c 1,19,20
 515 388 515 388 561 331.5 c 128,-1,21
 607 275 607 275 607 206 c 0,22,23
 607 100 607 100 520 42.5 c 128,-1,24
 433 -15 433 -15 288 -15 c 0,25,26
 187 -15 187 -15 121.5 6.5 c 128,-1,27
 56 28 56 28 56 62 c 0,28,29
 56 74 56 74 63.5 82 c 128,-1,30
 71 90 71 90 84 90 c 128,-1,31
 97 90 97 90 110 83 c 1,0,-1
285 52 m 0,32,33
 396 52 396 52 462 93.5 c 128,-1,34
 528 135 528 135 528 212 c 0,35,36
 528 275 528 275 475.5 315.5 c 128,-1,37
 423 356 423 356 363 366 c 1,38,39
 276 351 276 351 244.5 351 c 128,-1,40
 213 351 213 351 185 358 c 1,41,42
 185 138 185 138 189 61 c 1,43,44
 236 52 236 52 285 52 c 0,32,33
285 697 m 0,45,46
 241 697 241 697 188 683 c 1,47,48
 185 630 185 630 185 432 c 1,49,50
 204 442 204 442 253.5 442 c 128,-1,51
 303 442 303 442 345 434 c 1,52,53
 366 435 366 435 395.5 449.5 c 128,-1,54
 425 464 425 464 452 499 c 128,-1,55
 479 534 479 534 479 579.5 c 128,-1,56
 479 625 479 625 431.5 661 c 128,-1,57
 384 697 384 697 285 697 c 0,45,46
EndSplineSet
EndChar

StartChar: C
Encoding: 67 67 38
Width: 658
GlyphClass: 2
Flags: W
LayerCount: 2
Fore
SplineSet
620 95 m 0,0,1
 620 63 620 63 548.5 24 c 128,-1,2
 477 -15 477 -15 381 -15 c 0,3,4
 241 -15 241 -15 149 98.5 c 128,-1,5
 57 212 57 212 57 375.5 c 128,-1,6
 57 539 57 539 150 652 c 128,-1,7
 243 765 243 765 383 765 c 0,8,9
 466 765 466 765 532 734 c 128,-1,10
 598 703 598 703 598 664 c 0,11,12
 598 648 598 648 588.5 639 c 128,-1,13
 579 630 579 630 562.5 630 c 128,-1,14
 546 630 546 630 523.5 646 c 128,-1,15
 501 662 501 662 466.5 678.5 c 128,-1,16
 432 695 432 695 383 695 c 0,17,18
 276 695 276 695 207 600.5 c 128,-1,19
 138 506 138 506 138 377.5 c 128,-1,20
 138 249 138 249 207 152 c 128,-1,21
 276 55 276 55 382 55 c 0,22,23
 431 55 431 55 470.5 65.5 c 128,-1,24
 510 76 510 76 530 88 c 128,-1,25
 550 100 550 100 567 110.5 c 128,-1,26
 584 121 584 121 593 121 c 0,27,28
 620 121 620 121 620 95 c 0,0,1
EndSplineSet
EndChar

StartChar: D
Encoding: 68 68 39
Width: 709
GlyphClass: 2
Flags: W
LayerCount: 2
Fore
SplineSet
114 368 m 1,0,-1
 109 654 l 1,1,2
 61 654 61 654 61 692 c 0,3,4
 61 726 61 726 127 743 c 128,-1,5
 193 760 193 760 276 760 c 128,-1,6
 359 760 359 760 434 726 c 128,-1,7
 509 692 509 692 556 636 c 0,8,9
 652 520 652 520 652 364 c 0,10,11
 652 214 652 214 559 104 c 0,12,13
 514 50 514 50 441.5 17.5 c 128,-1,14
 369 -15 369 -15 275.5 -15 c 128,-1,15
 182 -15 182 -15 119.5 6.5 c 128,-1,16
 57 28 57 28 57 62 c 0,17,18
 57 74 57 74 64.5 82 c 128,-1,19
 72 90 72 90 85 90 c 128,-1,20
 98 90 98 90 111 83 c 1,21,-1
 114 368 l 1,0,-1
498 589 m 0,22,23
 461 634 461 634 401 661 c 128,-1,24
 341 688 341 688 266 688 c 0,25,26
 229 688 229 688 191 679 c 1,27,28
 186 602 186 602 186 391.5 c 128,-1,29
 186 181 186 181 192 61 c 1,30,31
 216 56 216 56 276 56 c 0,32,33
 418 56 418 56 496 147 c 128,-1,34
 574 238 574 238 574 367.5 c 128,-1,35
 574 497 574 497 498 589 c 0,22,23
EndSplineSet
EndChar

StartChar: E
Encoding: 69 69 40
Width: 588
GlyphClass: 2
Flags: W
LayerCount: 2
Fore
SplineSet
329 66 m 1,0,-1
 491 71 l 1,1,2
 541 71 541 71 541 33 c 128,-1,3
 541 -5 541 -5 491 -5 c 1,4,-1
 329 0 l 1,5,6
 329 0 329 0 154 -5 c 1,7,8
 109 -5 109 -5 109 33 c 0,9,10
 109 68 109 68 111.5 151 c 128,-1,11
 114 234 114 234 114 363 c 1,12,13
 105 362 105 362 94 362 c 0,14,15
 46 362 46 362 46 399 c 0,16,17
 46 416 46 416 59 427 c 128,-1,18
 72 438 72 438 88.5 438 c 128,-1,19
 105 438 105 438 114 437 c 1,20,21
 112 638 112 638 107 680 c 1,22,23
 95 697 95 697 95 717 c 0,24,25
 95 755 95 755 148 755 c 1,26,-1
 341 750 l 1,27,-1
 491 755 l 1,28,29
 541 755 541 755 541 717 c 128,-1,30
 541 679 541 679 491 679 c 1,31,-1
 341 684 l 1,32,33
 227 684 227 684 191 680 c 1,34,35
 186 549 186 549 186 435 c 1,36,37
 230 433 230 433 256 433 c 2,38,-1
 436 438 l 2,39,40
 459 438 459 438 472.5 427.5 c 128,-1,41
 486 417 486 417 486 399 c 0,42,43
 486 362 486 362 436 362 c 1,44,-1
 256 367 l 2,45,46
 228 367 228 367 186 365 c 1,47,-1
 186 266 l 2,48,49
 186 117 186 117 191 70 c 1,50,51
 261 66 261 66 329 66 c 1,0,-1
EndSplineSet
EndChar

StartChar: F
Encoding: 70 70 41
Width: 566
GlyphClass: 2
Flags: W
LayerCount: 2
Fore
SplineSet
255 433 m 2,0,-1
 424 438 l 2,1,2
 447 438 447 438 461 427 c 128,-1,3
 475 416 475 416 475 399 c 128,-1,4
 475 382 475 382 461 372 c 128,-1,5
 447 362 447 362 424 362 c 2,6,-1
 255 367 l 2,7,8
 227 367 227 367 185 365 c 1,9,-1
 190 48 l 2,10,11
 190 -10 190 -10 149 -10 c 128,-1,12
 108 -10 108 -10 108 48 c 0,13,14
 108 87 108 87 110.5 185 c 128,-1,15
 113 283 113 283 113 363 c 1,16,17
 104 362 104 362 93 362 c 0,18,19
 45 362 45 362 45 399 c 0,20,21
 45 416 45 416 58 427 c 128,-1,22
 71 438 71 438 87.5 438 c 128,-1,23
 104 438 104 438 113 437 c 1,24,25
 111 638 111 638 106 680 c 1,26,27
 94 697 94 697 94 717 c 0,28,29
 94 755 94 755 150 755 c 1,30,-1
 340 750 l 1,31,-1
 486 755 l 1,32,33
 540 755 540 755 540 717 c 128,-1,34
 540 679 540 679 486 679 c 1,35,-1
 340 684 l 1,36,37
 226 684 226 684 190 680 c 1,38,39
 185 549 185 549 185 435 c 1,40,41
 229 433 229 433 255 433 c 2,0,-1
EndSplineSet
EndChar

StartChar: G
Encoding: 71 71 42
Width: 722
GlyphClass: 2
Flags: W
LayerCount: 2
Fore
SplineSet
365 395 m 2,0,-1
 497 390 l 1,1,2
 531 390 531 390 576 393 c 128,-1,3
 621 396 621 396 626 396 c 0,4,5
 677 396 677 396 677 352 c 0,6,7
 677 183 677 183 594 83.5 c 128,-1,8
 511 -16 511 -16 376.5 -16 c 128,-1,9
 242 -16 242 -16 149.5 98 c 128,-1,10
 57 212 57 212 57 375.5 c 128,-1,11
 57 539 57 539 152.5 652 c 128,-1,12
 248 765 248 765 393 765 c 0,13,14
 483 765 483 765 555.5 730 c 128,-1,15
 628 695 628 695 628 654 c 0,16,17
 628 638 628 638 618.5 629 c 128,-1,18
 609 620 609 620 593 620 c 128,-1,19
 577 620 577 620 557.5 631.5 c 128,-1,20
 538 643 538 643 520.5 657.5 c 128,-1,21
 503 672 503 672 469 683.5 c 128,-1,22
 435 695 435 695 393 695 c 0,23,24
 282 695 282 695 210 600.5 c 128,-1,25
 138 506 138 506 138 377.5 c 128,-1,26
 138 249 138 249 207 152 c 128,-1,27
 276 55 276 55 382 55 c 0,28,29
 472 55 472 55 531.5 124.5 c 128,-1,30
 591 194 591 194 593 320 c 1,31,32
 543 324 543 324 497 324 c 1,33,-1
 365 319 l 1,34,35
 317 319 317 319 317 356 c 0,36,37
 317 374 317 374 330 384.5 c 128,-1,38
 343 395 343 395 365 395 c 2,0,-1
EndSplineSet
EndChar

StartChar: H
Encoding: 72 72 43
Width: 718
GlyphClass: 2
Flags: W
LayerCount: 2
Fore
SplineSet
612 709 m 2,0,-1
 607 436 l 1,1,-1
 623 436 l 2,2,3
 645 436 645 436 659.5 424.5 c 128,-1,4
 674 413 674 413 674 396 c 128,-1,5
 674 379 674 379 660 368.5 c 128,-1,6
 646 358 646 358 623 358 c 2,7,-1
 607 358 l 1,8,-1
 612 41 l 2,9,10
 612 19 612 19 600 4.5 c 128,-1,11
 588 -10 588 -10 571 -10 c 128,-1,12
 554 -10 554 -10 542 4.5 c 128,-1,13
 530 19 530 19 530 41 c 2,14,-1
 535 361 l 1,15,16
 388 364 388 364 322.5 364 c 128,-1,17
 257 364 257 364 182 361 c 1,18,19
 182 199 182 199 184.5 124 c 128,-1,20
 187 49 187 49 187 34 c 128,-1,21
 187 19 187 19 175 4.5 c 128,-1,22
 163 -10 163 -10 146 -10 c 128,-1,23
 129 -10 129 -10 117 4.5 c 128,-1,24
 105 19 105 19 105 34 c 128,-1,25
 105 49 105 49 106 94 c 0,26,27
 110 197 110 197 110 359 c 1,28,-1
 92 359 l 2,29,30
 44 359 44 359 44 396 c 0,31,32
 44 414 44 414 57 424.5 c 128,-1,33
 70 435 70 435 92 435 c 2,34,-1
 110 435 l 1,35,-1
 105 709 l 2,36,37
 105 731 105 731 117 745.5 c 128,-1,38
 129 760 129 760 146 760 c 128,-1,39
 163 760 163 760 175 745.5 c 128,-1,40
 187 731 187 731 187 709 c 2,41,-1
 182 432 l 1,42,43
 282 430 282 430 372 430 c 128,-1,44
 462 430 462 430 535 433 c 1,45,-1
 530 709 l 2,46,47
 530 731 530 731 542 745.5 c 128,-1,48
 554 760 554 760 571 760 c 128,-1,49
 588 760 588 760 600 745.5 c 128,-1,50
 612 731 612 731 612 709 c 2,0,-1
EndSplineSet
EndChar

StartChar: I
Encoding: 73 73 44
Width: 436
GlyphClass: 2
Flags: W
LayerCount: 2
Fore
SplineSet
260 66 m 1,0,-1
 348 71 l 1,1,2
 371 71 371 71 384.5 60.5 c 128,-1,3
 398 50 398 50 398 33 c 128,-1,4
 398 16 398 16 384 5 c 128,-1,5
 370 -6 370 -6 348 -6 c 1,6,-1
 219 0 l 1,7,-1
 87 -5 l 1,8,9
 37 -5 37 -5 37 33 c 128,-1,10
 37 71 37 71 87 71 c 0,11,12
 98 71 98 71 178 66 c 1,13,14
 183 291 183 291 183 374.5 c 128,-1,15
 183 458 183 458 178 683 c 1,16,17
 90 679 90 679 87 679 c 0,18,19
 39 679 39 679 39 716 c 0,20,21
 39 734 39 734 52 744.5 c 128,-1,22
 65 755 65 755 87 755 c 2,23,-1
 219 750 l 1,24,25
 253 750 253 750 298 753 c 128,-1,26
 343 756 343 756 356.5 756 c 128,-1,27
 370 756 370 756 384.5 744.5 c 128,-1,28
 399 733 399 733 399 716 c 128,-1,29
 399 699 399 699 385 688.5 c 128,-1,30
 371 678 371 678 355.5 678 c 128,-1,31
 340 678 340 678 260 683 c 1,32,33
 255 453 255 453 255 372 c 128,-1,34
 255 291 255 291 260 66 c 1,0,-1
EndSplineSet
EndChar

StartChar: J
Encoding: 74 74 45
Width: 523
GlyphClass: 2
Flags: W
LayerCount: 2
Fore
SplineSet
411 374 m 1,0,-1
 412 254 l 1,1,2
 412 118 412 118 349 54 c 128,-1,3
 286 -10 286 -10 207 -10 c 128,-1,4
 128 -10 128 -10 79.5 25.5 c 128,-1,5
 31 61 31 61 31 91 c 0,6,7
 31 107 31 107 40.5 116.5 c 128,-1,8
 50 126 50 126 63 126 c 128,-1,9
 76 126 76 126 89 115 c 128,-1,10
 102 104 102 104 113 91 c 128,-1,11
 124 78 124 78 147 67 c 128,-1,12
 170 56 170 56 200 56 c 0,13,14
 257 56 257 56 297.5 108.5 c 128,-1,15
 338 161 338 161 338 276 c 1,16,17
 338 276 338 276 339 374 c 1,18,19
 339 598 339 598 337 684 c 1,20,21
 326 685 326 685 305 685 c 2,22,-1
 170 680 l 1,23,24
 122 680 122 680 122 717 c 0,25,26
 122 734 122 734 135 745 c 128,-1,27
 148 756 148 756 170 756 c 2,28,-1
 302 751 l 1,29,30
 336 751 336 751 381 754 c 128,-1,31
 426 757 426 757 439.5 757 c 128,-1,32
 453 757 453 757 467.5 745.5 c 128,-1,33
 482 734 482 734 482 717 c 128,-1,34
 482 700 482 700 466.5 689.5 c 128,-1,35
 451 679 451 679 428 679 c 2,36,-1
 413 679 l 1,37,38
 411 587 411 587 411 374 c 1,0,-1
EndSplineSet
EndChar

StartChar: K
Encoding: 75 75 46
Width: 618
GlyphClass: 2
Flags: W
LayerCount: 2
Fore
SplineSet
175 345 m 1,0,-1
 180 41 l 2,1,2
 180 19 180 19 168 4.5 c 128,-1,3
 156 -10 156 -10 139 -10 c 128,-1,4
 122 -10 122 -10 110 4.5 c 128,-1,5
 98 19 98 19 98 41 c 2,6,-1
 103 372 l 1,7,-1
 98 708 l 2,8,9
 98 730 98 730 110 744.5 c 128,-1,10
 122 759 122 759 139 759 c 128,-1,11
 156 759 156 759 168 744.5 c 128,-1,12
 180 730 180 730 180 715.5 c 128,-1,13
 180 701 180 701 179 663 c 0,14,15
 175 511 175 511 175 424 c 1,16,17
 205 436 205 436 261 436 c 0,18,19
 263 436 263 436 308 433 c 1,20,21
 357 475 357 475 397.5 557 c 128,-1,22
 438 639 438 639 453 716 c 1,23,24
 463 760 463 760 494 760 c 0,25,26
 508 760 508 760 518 750 c 128,-1,27
 528 740 528 740 528 723 c 0,28,29
 528 656 528 656 474 547.5 c 128,-1,30
 420 439 420 439 366 386 c 1,31,32
 393 324 393 324 444 235 c 128,-1,33
 495 146 495 146 521 110 c 1,34,35
 545 81 545 81 566.5 71.5 c 128,-1,36
 588 62 588 62 596 62.5 c 128,-1,37
 604 63 604 63 604 57 c 0,38,39
 604 28 604 28 588.5 9 c 128,-1,40
 573 -10 573 -10 550 -10 c 0,41,42
 512 -10 512 -10 463 58.5 c 128,-1,43
 414 127 414 127 297 349 c 1,44,45
 248 340 248 340 224 340 c 128,-1,46
 200 340 200 340 175 345 c 1,0,-1
EndSplineSet
EndChar

StartChar: L
Encoding: 76 76 47
Width: 544
GlyphClass: 2
Flags: W
LayerCount: 2
Fore
SplineSet
180 709 m 2,0,-1
 175 372 l 1,1,2
 175 271 175 271 179 71 c 1,3,4
 220 66 220 66 284.5 66 c 128,-1,5
 349 66 349 66 402.5 69.5 c 128,-1,6
 456 73 456 73 470.5 73 c 128,-1,7
 485 73 485 73 498.5 62.5 c 128,-1,8
 512 52 512 52 512 34 c 128,-1,9
 512 16 512 16 498.5 5.5 c 128,-1,10
 485 -5 485 -5 462 -5 c 2,11,-1
 311 0 l 1,12,-1
 149 -5 l 2,13,14
 126 -5 126 -5 112 8 c 128,-1,15
 98 21 98 21 98 46 c 2,16,-1
 103 372 l 1,17,-1
 98 709 l 2,18,19
 98 732 98 732 109 746 c 128,-1,20
 120 760 120 760 139 760 c 128,-1,21
 158 760 158 760 169 746 c 128,-1,22
 180 732 180 732 180 709 c 2,0,-1
EndSplineSet
EndChar

StartChar: M
Encoding: 77 77 48
Width: 812
GlyphClass: 2
Flags: W
LayerCount: 2
Fore
SplineSet
103 372 m 1,0,-1
 98 704 l 2,1,2
 98 730 98 730 109.5 742.5 c 128,-1,3
 121 755 121 755 143 755 c 128,-1,4
 165 755 165 755 180 720 c 0,5,6
 261 537 261 537 282.5 491.5 c 128,-1,7
 304 446 304 446 348 351.5 c 128,-1,8
 392 257 392 257 407 227 c 1,9,10
 505 416 505 416 587 617 c 0,11,12
 619 695 619 695 633 725 c 128,-1,13
 647 755 647 755 674 755 c 0,14,15
 715 755 715 755 715 704 c 0,16,17
 715 696 715 696 713.5 649.5 c 128,-1,18
 712 603 712 603 711 527 c 128,-1,19
 710 451 710 451 710 372 c 128,-1,20
 710 293 710 293 711 217.5 c 128,-1,21
 712 142 712 142 713.5 95.5 c 128,-1,22
 715 49 715 49 715 34 c 128,-1,23
 715 19 715 19 703 4.5 c 128,-1,24
 691 -10 691 -10 674 -10 c 128,-1,25
 657 -10 657 -10 645 4.5 c 128,-1,26
 633 19 633 19 633 34 c 128,-1,27
 633 49 633 49 634 96 c 0,28,29
 640 266 640 266 640 372 c 2,30,-1
 640 566 l 1,31,-1
 447 142 l 2,32,33
 433 111 433 111 408.5 111 c 128,-1,34
 384 111 384 111 370 145 c 1,35,36
 249 415 249 415 175 570 c 1,37,-1
 175 372 l 1,38,-1
 180 41 l 2,39,40
 180 19 180 19 168 4.5 c 128,-1,41
 156 -10 156 -10 139 -10 c 128,-1,42
 122 -10 122 -10 110 4.5 c 128,-1,43
 98 19 98 19 98 41 c 2,44,-1
 103 372 l 1,0,-1
EndSplineSet
EndChar

StartChar: N
Encoding: 78 78 49
Width: 691
GlyphClass: 2
Flags: W
LayerCount: 2
Fore
SplineSet
103 372 m 1,0,-1
 98 708 l 2,1,2
 98 730 98 730 110 745 c 128,-1,3
 122 760 122 760 140 760 c 0,4,5
 172 760 172 760 188 733 c 0,6,7
 197 719 197 719 335.5 470.5 c 128,-1,8
 474 222 474 222 518 151 c 1,9,-1
 518 372 l 2,10,11
 518 541 518 541 515.5 621 c 128,-1,12
 513 701 513 701 513 716 c 128,-1,13
 513 731 513 731 525 745.5 c 128,-1,14
 537 760 537 760 554 760 c 128,-1,15
 571 760 571 760 583 745.5 c 128,-1,16
 595 731 595 731 595 716 c 128,-1,17
 595 701 595 701 594 653 c 0,18,19
 590 541 590 541 590 372 c 1,20,-1
 592 41 l 2,21,22
 592 18 592 18 579.5 4 c 128,-1,23
 567 -10 567 -10 545 -10 c 128,-1,24
 523 -10 523 -10 507 17 c 0,25,26
 502 25 502 25 470 82 c 0,27,28
 373 260 373 260 325.5 340.5 c 128,-1,29
 278 421 278 421 235 499.5 c 128,-1,30
 192 578 192 578 175 605 c 1,31,-1
 175 372 l 1,32,-1
 180 41 l 2,33,34
 180 19 180 19 168 4.5 c 128,-1,35
 156 -10 156 -10 139 -10 c 128,-1,36
 122 -10 122 -10 110 4.5 c 128,-1,37
 98 19 98 19 98 41 c 2,38,-1
 103 372 l 1,0,-1
EndSplineSet
EndChar

StartChar: O
Encoding: 79 79 50
Width: 774
GlyphClass: 2
Flags: W
LayerCount: 2
Fore
SplineSet
564.5 154 m 128,-1,1
 636 250 636 250 636 377.5 c 128,-1,2
 636 505 636 505 565 598.5 c 128,-1,3
 494 692 494 692 387 692 c 128,-1,4
 280 692 280 692 209 598.5 c 128,-1,5
 138 505 138 505 138 377.5 c 128,-1,6
 138 250 138 250 209.5 154 c 128,-1,7
 281 58 281 58 387 58 c 128,-1,0
 493 58 493 58 564.5 154 c 128,-1,1
717 376 m 128,-1,9
 717 213 717 213 622 99 c 128,-1,10
 527 -15 527 -15 386.5 -15 c 128,-1,11
 246 -15 246 -15 151.5 99 c 128,-1,12
 57 213 57 213 57 375.5 c 128,-1,13
 57 538 57 538 152 651.5 c 128,-1,14
 247 765 247 765 388 765 c 128,-1,15
 529 765 529 765 623 652 c 128,-1,8
 717 539 717 539 717 376 c 128,-1,9
EndSplineSet
EndChar

StartChar: P
Encoding: 80 80 51
Width: 601
GlyphClass: 2
Flags: W
LayerCount: 2
Fore
SplineSet
283 696 m 0,0,1
 211 696 211 696 180 678 c 1,2,3
 177 633 177 633 177 527 c 128,-1,4
 177 421 177 421 179 376 c 1,5,6
 235 359 235 359 309 359 c 128,-1,7
 383 359 383 359 439 407 c 128,-1,8
 495 455 495 455 495 519 c 0,9,10
 495 598 495 598 439.5 647 c 128,-1,11
 384 696 384 696 283 696 c 0,0,1
179 308 m 1,12,-1
 184 41 l 2,13,14
 184 19 184 19 172 4.5 c 128,-1,15
 160 -10 160 -10 143 -10 c 128,-1,16
 126 -10 126 -10 114 4.5 c 128,-1,17
 102 19 102 19 102 34.5 c 128,-1,18
 102 50 102 50 104 98 c 0,19,20
 108 240 108 240 108 345.5 c 128,-1,21
 108 451 108 451 107 510.5 c 128,-1,22
 106 570 106 570 104.5 604.5 c 128,-1,23
 103 639 103 639 103 646 c 1,24,25
 91 644 91 644 87 644 c 0,26,27
 57 644 57 644 57 677 c 0,28,29
 57 718 57 718 136 741.5 c 128,-1,30
 215 765 215 765 277 765 c 0,31,32
 419 765 419 765 494 693.5 c 128,-1,33
 569 622 569 622 569 526.5 c 128,-1,34
 569 431 569 431 494.5 362 c 128,-1,35
 420 293 420 293 304 293 c 0,36,37
 234 293 234 293 179 308 c 1,12,-1
EndSplineSet
EndChar

StartChar: Q
Encoding: 81 81 52
Width: 754
GlyphClass: 2
Flags: W
LayerCount: 2
Fore
SplineSet
616 376 m 0,0,1
 616 505 616 505 548 598.5 c 128,-1,2
 480 692 480 692 377 692 c 128,-1,3
 274 692 274 692 206 598.5 c 128,-1,4
 138 505 138 505 138 377.5 c 128,-1,5
 138 250 138 250 206.5 154 c 128,-1,6
 275 58 275 58 377 58 c 0,7,8
 420 58 420 58 448 70 c 1,9,10
 428 104 428 104 406.5 137 c 128,-1,11
 385 170 385 170 378 182 c 128,-1,12
 371 194 371 194 371 208 c 128,-1,13
 371 222 371 222 383 233 c 128,-1,14
 395 244 395 244 413 244 c 128,-1,15
 431 244 431 244 447 216 c 1,16,-1
 505 106 l 1,17,18
 558 149 558 149 587 220.5 c 128,-1,19
 616 292 616 292 616 376 c 0,0,1
697 376 m 0,20,21
 697 269 697 269 656 180.5 c 128,-1,22
 615 92 615 92 542 41 c 1,23,24
 612 -74 612 -74 618.5 -85.5 c 128,-1,25
 625 -97 625 -97 625 -111.5 c 128,-1,26
 625 -126 625 -126 616.5 -137 c 128,-1,27
 608 -148 608 -148 589 -148 c 128,-1,28
 570 -148 570 -148 553 -118 c 0,29,30
 547 -108 547 -108 523.5 -64 c 128,-1,31
 500 -20 500 -20 484 8 c 1,32,33
 434 -15 434 -15 376 -15 c 0,34,35
 240 -15 240 -15 148.5 99 c 128,-1,36
 57 213 57 213 57 375.5 c 128,-1,37
 57 538 57 538 149.5 651.5 c 128,-1,38
 242 765 242 765 378 765 c 128,-1,39
 514 765 514 765 605.5 652 c 128,-1,40
 697 539 697 539 697 376 c 0,20,21
EndSplineSet
EndChar

StartChar: R
Encoding: 82 82 53
Width: 636
GlyphClass: 2
Flags: W
LayerCount: 2
Fore
SplineSet
179 307 m 1,0,-1
 184 41 l 2,1,2
 184 19 184 19 172 4.5 c 128,-1,3
 160 -10 160 -10 143 -10 c 128,-1,4
 126 -10 126 -10 114 4.5 c 128,-1,5
 102 19 102 19 102 34.5 c 128,-1,6
 102 50 102 50 104 98 c 0,7,8
 108 240 108 240 108 345.5 c 128,-1,9
 108 451 108 451 107 510.5 c 128,-1,10
 106 570 106 570 104.5 604.5 c 128,-1,11
 103 639 103 639 103 646 c 1,12,13
 91 644 91 644 87 644 c 0,14,15
 57 644 57 644 57 677 c 0,16,17
 57 718 57 718 136 741.5 c 128,-1,18
 215 765 215 765 277 765 c 0,19,20
 414 765 414 765 484 700.5 c 128,-1,21
 554 636 554 636 554 542 c 0,22,23
 554 478 554 478 513.5 419.5 c 128,-1,24
 473 361 473 361 403 332 c 1,25,26
 497 109 497 109 560 74 c 0,27,28
 578 64 578 64 588 66 c 0,29,30
 609 69 609 69 609 54 c 0,31,32
 609 26 609 26 591 8 c 128,-1,33
 573 -10 573 -10 550 -10 c 0,34,35
 512 -10 512 -10 470 46 c 1,36,37
 410 132 410 132 331 309 c 1,38,39
 283 300 283 300 236 300 c 1,40,-1
 179 307 l 1,0,-1
480 536 m 0,41,42
 480 607 480 607 429 651.5 c 128,-1,43
 378 696 378 696 294.5 696 c 128,-1,44
 211 696 211 696 180 678 c 1,45,46
 177 626 177 626 177 517 c 128,-1,47
 177 408 177 408 178 385 c 1,48,49
 223 397 223 397 270 397 c 128,-1,50
 317 397 317 397 356 387 c 1,51,52
 401 396 401 396 440.5 439.5 c 128,-1,53
 480 483 480 483 480 536 c 0,41,42
EndSplineSet
EndChar

StartChar: S
Encoding: 83 83 54
Width: 556
GlyphClass: 2
Flags: W
LayerCount: 2
Fore
SplineSet
512 200 m 0,0,1
 512 109 512 109 444 47 c 128,-1,2
 376 -15 376 -15 269 -15 c 0,3,4
 186 -15 186 -15 114 24.5 c 128,-1,5
 42 64 42 64 42 103 c 0,6,7
 42 118 42 118 51.5 128 c 128,-1,8
 61 138 61 138 76 138 c 128,-1,9
 91 138 91 138 109.5 125 c 128,-1,10
 128 112 128 112 144.5 96.5 c 128,-1,11
 161 81 161 81 194.5 68 c 128,-1,12
 228 55 228 55 269 55 c 0,13,14
 339 55 339 55 385.5 94.5 c 128,-1,15
 432 134 432 134 432 200 c 0,16,17
 432 244 432 244 394.5 282.5 c 128,-1,18
 357 321 357 321 303.5 351.5 c 128,-1,19
 250 382 250 382 196.5 414 c 128,-1,20
 143 446 143 446 105.5 491 c 128,-1,21
 68 536 68 536 68 590 c 0,22,23
 68 661 68 661 129.5 713 c 128,-1,24
 191 765 191 765 273 765 c 128,-1,25
 355 765 355 765 413 737 c 128,-1,26
 471 709 471 709 471 674 c 0,27,28
 471 658 471 658 461.5 649 c 128,-1,29
 452 640 452 640 437 640 c 128,-1,30
 422 640 422 640 407 648.5 c 128,-1,31
 392 657 392 657 379.5 667.5 c 128,-1,32
 367 678 367 678 341 686.5 c 128,-1,33
 315 695 315 695 271.5 695 c 128,-1,34
 228 695 228 695 188 665.5 c 128,-1,35
 148 636 148 636 148 594.5 c 128,-1,36
 148 553 148 553 185.5 518.5 c 128,-1,37
 223 484 223 484 276.5 453.5 c 128,-1,38
 330 423 330 423 383.5 389.5 c 128,-1,39
 437 356 437 356 474.5 307 c 128,-1,40
 512 258 512 258 512 200 c 0,0,1
EndSplineSet
EndChar

StartChar: T
Encoding: 84 84 55
Width: 523
GlyphClass: 2
Flags: W
LayerCount: 2
Fore
SplineSet
267 750 m 1,0,-1
 448 756 l 2,1,2
 471 756 471 756 485 745.5 c 128,-1,3
 499 735 499 735 499 717 c 128,-1,4
 499 699 499 699 485 688.5 c 128,-1,5
 471 678 471 678 448 678 c 2,6,-1
 308 683 l 1,7,8
 303 458 303 458 303 372 c 1,9,-1
 308 41 l 2,10,11
 308 18 308 18 297 4 c 128,-1,12
 286 -10 286 -10 267 -10 c 128,-1,13
 248 -10 248 -10 237 4 c 128,-1,14
 226 18 226 18 226 41 c 2,15,-1
 231 372 l 1,16,17
 231 459 231 459 226 684 c 1,18,-1
 75 679 l 1,19,20
 27 679 27 679 27 717 c 128,-1,21
 27 755 27 755 75 755 c 1,22,-1
 267 750 l 1,0,-1
EndSplineSet
EndChar

StartChar: U
Encoding: 85 85 56
Width: 683
GlyphClass: 2
Flags: W
LayerCount: 2
Fore
SplineSet
341 -15 m 128,-1,1
 224 -15 224 -15 161.5 61.5 c 128,-1,2
 99 138 99 138 97 247 c 0,3,4
 91 705 91 705 91 718.5 c 128,-1,5
 91 732 91 732 102 746 c 128,-1,6
 113 760 113 760 132 760 c 128,-1,7
 151 760 151 760 162 746 c 128,-1,8
 173 732 173 732 173 716 c 128,-1,9
 173 700 173 700 172 648 c 0,10,11
 168 525 168 525 168 409 c 128,-1,12
 168 293 168 293 171.5 256 c 128,-1,13
 175 219 175 219 185.5 179 c 128,-1,14
 196 139 196 139 214 114 c 0,15,16
 257 55 257 55 341 55 c 0,17,18
 446 55 446 55 483 138 c 0,19,20
 515 210 515 210 515 328.5 c 128,-1,21
 515 447 515 447 512.5 577 c 128,-1,22
 510 707 510 707 510 709 c 0,23,24
 510 732 510 732 521 746 c 128,-1,25
 532 760 532 760 551 760 c 128,-1,26
 570 760 570 760 581 746 c 128,-1,27
 592 732 592 732 592 709 c 0,28,29
 592 521 592 521 586 246 c 0,30,31
 584 137 584 137 521 61 c 128,-1,0
 458 -15 458 -15 341 -15 c 128,-1,1
EndSplineSet
EndChar

StartChar: V
Encoding: 86 86 57
Width: 625
GlyphClass: 2
Flags: W
LayerCount: 2
Fore
SplineSet
371 30 m 1,0,1
 356 -10 356 -10 320 -10 c 128,-1,2
 284 -10 284 -10 269 27 c 0,3,4
 221 152 221 152 170.5 292 c 128,-1,5
 120 432 120 432 97.5 493.5 c 128,-1,6
 75 555 75 555 64 584.5 c 128,-1,7
 53 614 53 614 42 644 c 0,8,9
 25 694 25 694 25 715.5 c 128,-1,10
 25 737 25 737 35.5 748.5 c 128,-1,11
 46 760 46 760 63 760 c 0,12,13
 92 760 92 760 107 723 c 0,14,15
 108 721 108 721 129.5 655 c 128,-1,16
 151 589 151 589 180.5 499.5 c 128,-1,17
 210 410 210 410 241 320 c 0,18,19
 315 106 315 106 322 106 c 128,-1,20
 329 106 329 106 372.5 240 c 128,-1,21
 416 374 416 374 468.5 546.5 c 128,-1,22
 521 719 521 719 521 720 c 0,23,24
 533 760 533 760 563 760 c 0,25,26
 581 760 581 760 590.5 749 c 128,-1,27
 600 738 600 738 600 723 c 128,-1,28
 600 708 600 708 586.5 665 c 128,-1,29
 573 622 573 622 540.5 525.5 c 128,-1,30
 508 429 508 429 458.5 276 c 128,-1,31
 409 123 409 123 371 30 c 1,0,1
EndSplineSet
EndChar

StartChar: W
Encoding: 87 87 58
Width: 909
GlyphClass: 2
Flags: W
LayerCount: 2
Fore
SplineSet
681 34 m 1,0,1
 665 -10 665 -10 628.5 -10 c 128,-1,2
 592 -10 592 -10 576 31 c 0,3,4
 572 42 572 42 543 141 c 128,-1,5
 514 240 514 240 486.5 327.5 c 128,-1,6
 459 415 459 415 455 415 c 128,-1,7
 451 415 451 415 424 327 c 128,-1,8
 397 239 397 239 369 140.5 c 128,-1,9
 341 42 341 42 338 34 c 0,10,11
 321 -10 321 -10 286 -10 c 128,-1,12
 251 -10 251 -10 235 31 c 1,13,14
 218 84 218 84 160.5 275 c 128,-1,15
 103 466 103 466 74 552 c 1,16,17
 27 697 27 697 27 717 c 128,-1,18
 27 737 27 737 37 748.5 c 128,-1,19
 47 760 47 760 62 760 c 0,20,21
 92 760 92 760 106 724 c 0,22,23
 107 722 107 722 151 564 c 0,24,25
 279 106 279 106 291 106 c 256,26,27
 303 106 303 106 375 373 c 0,28,29
 404 481 404 481 408 495 c 0,30,31
 422 546 422 546 458.5 546 c 128,-1,32
 495 546 495 546 509 498 c 0,33,34
 511 492 511 492 542 382 c 0,35,36
 622 106 622 106 631 106 c 0,37,38
 638 106 638 106 701 335 c 128,-1,39
 764 564 764 564 805 720 c 0,40,41
 816 760 816 760 846 760 c 0,42,43
 879 760 879 760 879 720 c 0,44,45
 879 696 879 696 855 614.5 c 128,-1,46
 831 533 831 533 811 465 c 0,47,48
 711 126 711 126 681 34 c 1,0,1
EndSplineSet
EndChar

StartChar: X
Encoding: 88 88 59
Width: 625
GlyphClass: 2
Flags: W
LayerCount: 2
Fore
SplineSet
542 749 m 128,-1,1
 552 738 552 738 552 726.5 c 128,-1,2
 552 715 552 715 542.5 697 c 128,-1,3
 533 679 533 679 507 638 c 0,4,5
 421 502 421 502 350 388 c 1,6,7
 487 159 487 159 531 105 c 0,8,9
 550 81 550 81 567.5 71 c 128,-1,10
 585 61 585 61 594 62 c 128,-1,11
 603 63 603 63 608 61 c 128,-1,12
 613 59 613 59 613 49 c 0,13,14
 613 21 613 21 597 4 c 128,-1,15
 581 -13 581 -13 559 -13 c 0,16,17
 521 -13 521 -13 476 50 c 1,18,19
 427 122 427 122 306 321 c 1,20,21
 215 176 215 176 169.5 98.5 c 128,-1,22
 124 21 124 21 119 14 c 0,23,24
 102 -10 102 -10 80 -10 c 0,25,26
 40 -10 40 -10 40 25 c 0,27,28
 40 41 40 41 49 55.5 c 128,-1,29
 58 70 58 70 91 120 c 128,-1,30
 124 170 124 170 174.5 246.5 c 128,-1,31
 225 323 225 323 264 384 c 1,32,33
 171 554 171 554 115 647 c 1,34,35
 99 669 99 669 82.5 678.5 c 128,-1,36
 66 688 66 688 56 687 c 0,37,38
 33 685 33 685 33 702 c 0,39,40
 33 730 33 730 48.5 746.5 c 128,-1,41
 64 763 64 763 86 763 c 128,-1,42
 108 763 108 763 125.5 751 c 128,-1,43
 143 739 143 739 169 701 c 1,44,45
 195 657 195 657 308 448 c 1,46,47
 358 531 358 531 413 626.5 c 128,-1,48
 468 722 468 722 481 741 c 128,-1,49
 494 760 494 760 513 760 c 128,-1,0
 532 760 532 760 542 749 c 128,-1,1
EndSplineSet
EndChar

StartChar: Y
Encoding: 89 89 60
Width: 554
GlyphClass: 2
Flags: W
LayerCount: 2
Fore
SplineSet
237 40 m 0,0,1
 237 47 237 47 238 86 c 0,2,3
 242 177 242 177 242 314 c 1,4,-1
 132 507 l 2,5,6
 113 540 113 540 92 575 c 2,7,-1
 59 630 l 2,8,9
 26 686 26 686 20.5 700 c 128,-1,10
 15 714 15 714 15 726 c 128,-1,11
 15 738 15 738 24 749 c 128,-1,12
 33 760 33 760 48 760 c 128,-1,13
 63 760 63 760 73 752 c 128,-1,14
 83 744 83 744 95 724 c 128,-1,15
 107 704 107 704 118 682 c 0,16,17
 193 528 193 528 281 391 c 1,18,19
 373 536 373 536 434 662 c 0,20,21
 441 677 441 677 449.5 692.5 c 128,-1,22
 458 708 458 708 462.5 717 c 128,-1,23
 467 726 467 726 472.5 734.5 c 128,-1,24
 478 743 478 743 481.5 747 c 128,-1,25
 485 751 485 751 490 754 c 0,26,27
 497 760 497 760 509.5 760 c 128,-1,28
 522 760 522 760 530.5 751 c 128,-1,29
 539 742 539 742 539 730.5 c 128,-1,30
 539 719 539 719 536 708.5 c 128,-1,31
 533 698 533 698 523 679 c 128,-1,32
 513 660 513 660 503.5 643.5 c 128,-1,33
 494 627 494 627 471.5 589 c 128,-1,34
 449 551 449 551 431 519 c 2,35,-1
 314 314 l 1,36,37
 314 175 314 175 316.5 110 c 128,-1,38
 319 45 319 45 319 40 c 0,39,40
 319 -10 319 -10 278 -10 c 128,-1,41
 237 -10 237 -10 237 40 c 0,0,1
EndSplineSet
EndChar

StartChar: Z
Encoding: 90 90 61
Width: 568
GlyphClass: 2
Flags: W
LayerCount: 2
Fore
SplineSet
280 750 m 1,0,-1
 469 756 l 2,1,2
 490 756 490 756 505 746.5 c 128,-1,3
 520 737 520 737 520 718 c 128,-1,4
 520 699 520 699 512 685.5 c 128,-1,5
 504 672 504 672 480 634 c 0,6,7
 329 395 329 395 240.5 242.5 c 128,-1,8
 152 90 152 90 139 69 c 1,9,10
 199 66 199 66 285 66 c 1,11,-1
 485 72 l 2,12,13
 508 72 508 72 521.5 61.5 c 128,-1,14
 535 51 535 51 535 32 c 0,15,16
 535 -6 535 -6 485 -6 c 1,17,-1
 285 0 l 1,18,-1
 83 -5 l 1,19,20
 34 -5 34 -5 34 35 c 0,21,22
 34 48 34 48 42 61 c 128,-1,23
 50 74 50 74 80 122 c 0,24,25
 164 254 164 254 275 439.5 c 128,-1,26
 386 625 386 625 415 680 c 1,27,-1
 280 684 l 1,28,-1
 98 679 l 2,29,30
 75 679 75 679 61 689.5 c 128,-1,31
 47 700 47 700 47 718 c 0,32,33
 47 755 47 755 98 755 c 1,34,-1
 280 750 l 1,0,-1
EndSplineSet
EndChar

StartChar: bracketleft
Encoding: 91 91 62
Width: 348
GlyphClass: 2
Flags: W
LayerCount: 2
Fore
SplineSet
194 -160 m 1,0,-1
 281 -157 l 2,1,2
 299 -157 299 -157 310.5 -166 c 128,-1,3
 322 -175 322 -175 322 -190 c 128,-1,4
 322 -205 322 -205 310.5 -214 c 128,-1,5
 299 -223 299 -223 281 -223 c 2,6,-1
 194 -220 l 1,7,-1
 117 -224 l 2,8,9
 99 -224 99 -224 87.5 -215 c 128,-1,10
 76 -206 76 -206 76 -194.5 c 128,-1,11
 76 -183 76 -183 79 -34 c 128,-1,12
 82 115 82 115 82 265 c 128,-1,13
 82 415 82 415 79 564 c 128,-1,14
 76 713 76 713 76 724.5 c 128,-1,15
 76 736 76 736 87.5 745 c 128,-1,16
 99 754 99 754 117 754 c 2,17,-1
 194 750 l 1,18,-1
 281 753 l 2,19,20
 299 753 299 753 310.5 744 c 128,-1,21
 322 735 322 735 322 720 c 128,-1,22
 322 705 322 705 310.5 696 c 128,-1,23
 299 687 299 687 281 687 c 2,24,-1
 194 690 l 1,25,-1
 150 690 l 1,26,27
 144 348 144 348 144 265 c 128,-1,28
 144 182 144 182 150 -160 c 1,29,-1
 194 -160 l 1,0,-1
EndSplineSet
EndChar

StartChar: backslash
Encoding: 92 92 63
Width: 363
GlyphClass: 2
Flags: W
LayerCount: 2
Fore
SplineSet
307 -112 m 0,0,1
 307 -152 307 -152 271 -152 c 0,2,3
 239 -152 239 -152 231 -110 c 0,4,5
 228 -98 228 -98 218 -41 c 0,6,7
 164 252 164 252 123 425 c 128,-1,8
 82 598 82 598 69.5 651 c 128,-1,9
 57 704 57 704 57 718 c 0,10,11
 57 760 57 760 93 760 c 0,12,13
 124 760 124 760 133 718 c 0,14,15
 136 706 136 706 146 649 c 0,16,17
 196 383 196 383 239.5 195.5 c 128,-1,18
 283 8 283 8 295 -44.5 c 128,-1,19
 307 -97 307 -97 307 -112 c 0,0,1
EndSplineSet
EndChar

StartChar: bracketright
Encoding: 93 93 64
Width: 348
GlyphClass: 2
Flags: W
LayerCount: 2
Fore
SplineSet
154 750 m 1,0,-1
 231 754 l 2,1,2
 249 754 249 754 260.5 745 c 128,-1,3
 272 736 272 736 272 724.5 c 128,-1,4
 272 713 272 713 269 564 c 128,-1,5
 266 415 266 415 266 265 c 128,-1,6
 266 115 266 115 269 -34 c 128,-1,7
 272 -183 272 -183 272 -194.5 c 128,-1,8
 272 -206 272 -206 260.5 -215 c 128,-1,9
 249 -224 249 -224 231 -224 c 2,10,-1
 154 -220 l 1,11,-1
 67 -223 l 2,12,13
 49 -223 49 -223 37.5 -214 c 128,-1,14
 26 -205 26 -205 26 -190 c 128,-1,15
 26 -175 26 -175 37.5 -166 c 128,-1,16
 49 -157 49 -157 67 -157 c 2,17,-1
 154 -160 l 1,18,-1
 198 -160 l 1,19,20
 204 182 204 182 204 265 c 128,-1,21
 204 348 204 348 198 690 c 1,22,-1
 154 690 l 1,23,-1
 67 687 l 2,24,25
 49 687 49 687 37.5 696 c 128,-1,26
 26 705 26 705 26 720 c 128,-1,27
 26 735 26 735 37.5 744 c 128,-1,28
 49 753 49 753 67 753 c 2,29,30
 67 753 67 753 154 750 c 1,0,-1
EndSplineSet
EndChar

StartChar: asciicircum
Encoding: 94 94 65
Width: 521
GlyphClass: 2
Flags: W
LayerCount: 2
Fore
SplineSet
476.5 417 m 128,-1,1
 481 405 481 405 481 395.5 c 128,-1,2
 481 386 481 386 471.5 377 c 128,-1,3
 462 368 462 368 445 368 c 128,-1,4
 428 368 428 368 415 392 c 1,5,6
 415 395 415 395 377.5 465.5 c 128,-1,7
 340 536 340 536 318 577.5 c 128,-1,8
 296 619 296 619 280 645.5 c 128,-1,9
 264 672 264 672 260 672 c 128,-1,10
 256 672 256 672 240 645.5 c 128,-1,11
 224 619 224 619 202 577.5 c 128,-1,12
 180 536 180 536 160 498 c 0,13,14
 105 395 105 395 105 392 c 1,15,16
 92 368 92 368 75 368 c 128,-1,17
 58 368 58 368 50 376.5 c 128,-1,18
 42 385 42 385 42 397 c 128,-1,19
 42 409 42 409 54.5 433 c 128,-1,20
 67 457 67 457 96.5 506.5 c 128,-1,21
 126 556 126 556 141 582 c 128,-1,22
 156 608 156 608 174 642 c 0,23,24
 221 729 221 729 225 737 c 0,25,26
 238 760 238 760 261.5 760 c 128,-1,27
 285 760 285 760 298 738 c 1,28,29
 336 662 336 662 404 545.5 c 128,-1,0
 472 429 472 429 476.5 417 c 128,-1,1
EndSplineSet
EndChar

StartChar: underscore
Encoding: 95 95 66
Width: 576
GlyphClass: 2
Flags: W
LayerCount: 2
Fore
SplineSet
288 -160 m 1,0,-1
 485 -157 l 2,1,2
 503 -157 503 -157 514.5 -166 c 128,-1,3
 526 -175 526 -175 526 -190 c 128,-1,4
 526 -205 526 -205 514.5 -214 c 128,-1,5
 503 -223 503 -223 485 -223 c 2,6,-1
 288 -220 l 1,7,-1
 91 -223 l 2,8,9
 73 -223 73 -223 61.5 -214 c 128,-1,10
 50 -205 50 -205 50 -190 c 128,-1,11
 50 -175 50 -175 61.5 -166 c 128,-1,12
 73 -157 73 -157 91 -157 c 2,13,14
 91 -157 91 -157 288 -160 c 1,0,-1
EndSplineSet
EndChar

StartChar: grave
Encoding: 96 96 67
Width: 285
GlyphClass: 2
Flags: W
LayerCount: 2
Fore
SplineSet
215 614 m 0,0,1
 215 593 215 593 188 593 c 128,-1,2
 161 593 161 593 115.5 636 c 128,-1,3
 70 679 70 679 70 722 c 0,4,5
 70 737 70 737 79 748.5 c 128,-1,6
 88 760 88 760 106 760 c 128,-1,7
 124 760 124 760 135.5 746 c 128,-1,8
 147 732 147 732 157.5 706.5 c 128,-1,9
 168 681 168 681 175.5 671.5 c 128,-1,10
 183 662 183 662 194 649 c 0,11,12
 215 626 215 626 215 614 c 0,0,1
EndSplineSet
EndChar

StartChar: a
Encoding: 97 97 68
Width: 571
GlyphClass: 2
Flags: W
LayerCount: 2
Fore
SplineSet
467 242 m 1,0,1
 467 167 467 167 478 119.5 c 128,-1,2
 489 72 489 72 504 66 c 0,3,4
 510 63 510 63 518.5 62 c 128,-1,5
 527 61 527 61 530.5 59 c 128,-1,6
 534 57 534 57 534 51 c 0,7,8
 534 24 534 24 519.5 7 c 128,-1,9
 505 -10 505 -10 476 -10 c 128,-1,10
 447 -10 447 -10 431 27 c 128,-1,11
 415 64 415 64 415 122 c 1,12,13
 390 66 390 66 341.5 28 c 128,-1,14
 293 -10 293 -10 232.5 -10 c 128,-1,15
 172 -10 172 -10 128 30 c 0,16,17
 48 103 48 103 48 239 c 0,18,19
 48 348 48 348 111 429 c 128,-1,20
 174 510 174 510 273 510 c 0,21,22
 348 510 348 510 403 459 c 1,23,24
 403 510 403 510 441 510 c 0,25,26
 487 510 487 510 487 439.5 c 128,-1,27
 487 369 487 369 467 242 c 1,0,1
409 233 m 1,28,-1
 404 387 l 1,29,30
 344 445 344 445 278.5 445 c 128,-1,31
 213 445 213 445 166 386 c 128,-1,32
 119 327 119 327 119 244.5 c 128,-1,33
 119 162 119 162 149.5 108.5 c 128,-1,34
 180 55 180 55 236 55 c 128,-1,35
 292 55 292 55 338 105 c 128,-1,36
 384 155 384 155 409 233 c 1,28,-1
EndSplineSet
EndChar

StartChar: b
Encoding: 98 98 69
Width: 552
GlyphClass: 2
Flags: W
LayerCount: 2
Fore
SplineSet
505 261 m 0,0,1
 505 152 505 152 442 71 c 128,-1,2
 379 -10 379 -10 280 -10 c 0,3,4
 205 -10 205 -10 150 41 c 1,5,6
 150 -10 150 -10 112 -10 c 0,7,8
 66 -10 66 -10 66 60.5 c 128,-1,9
 66 131 66 131 86 258 c 1,10,11
 86 326 86 326 77 514.5 c 128,-1,12
 68 703 68 703 68 718 c 128,-1,13
 68 733 68 733 78.5 746.5 c 128,-1,14
 89 760 89 760 107 760 c 128,-1,15
 125 760 125 760 135.5 746.5 c 128,-1,16
 146 733 146 733 146 710 c 2,17,-1
 146 394 l 1,18,19
 173 445 173 445 218.5 477.5 c 128,-1,20
 264 510 264 510 322.5 510 c 128,-1,21
 381 510 381 510 424 470 c 0,22,23
 505 397 505 397 505 261 c 0,0,1
387 114 m 128,-1,25
 434 173 434 173 434 255.5 c 128,-1,26
 434 338 434 338 403.5 391.5 c 128,-1,27
 373 445 373 445 317 445 c 128,-1,28
 261 445 261 445 215 395 c 128,-1,29
 169 345 169 345 144 267 c 1,30,-1
 149 113 l 1,31,32
 209 55 209 55 274.5 55 c 128,-1,24
 340 55 340 55 387 114 c 128,-1,25
EndSplineSet
EndChar

StartChar: c
Encoding: 99 99 70
Width: 509
GlyphClass: 2
Flags: W
LayerCount: 2
Fore
SplineSet
446 103 m 0,0,1
 471 103 471 103 471 76.5 c 128,-1,2
 471 50 471 50 413 17.5 c 128,-1,3
 355 -15 355 -15 291 -15 c 0,4,5
 186 -15 186 -15 116 62.5 c 128,-1,6
 46 140 46 140 46 250 c 128,-1,7
 46 360 46 360 116.5 437.5 c 128,-1,8
 187 515 187 515 302 515 c 0,9,10
 365 515 365 515 413.5 486.5 c 128,-1,11
 462 458 462 458 462 428 c 0,12,13
 462 412 462 412 452 401.5 c 128,-1,14
 442 391 442 391 429 391 c 128,-1,15
 416 391 416 391 399 406 c 0,16,17
 347 450 347 450 293 450 c 0,18,19
 224 450 224 450 172.5 392 c 128,-1,20
 121 334 121 334 121 251 c 128,-1,21
 121 168 121 168 173 109 c 128,-1,22
 225 50 225 50 302 50 c 0,23,24
 361 50 361 50 417 90 c 0,25,26
 436 103 436 103 446 103 c 0,0,1
EndSplineSet
EndChar

StartChar: d
Encoding: 100 100 71
Width: 588
GlyphClass: 2
Flags: W
LayerCount: 2
Fore
SplineSet
424 228 m 1,0,-1
 424 387 l 1,1,2
 364 445 364 445 282 445 c 0,3,4
 218 445 218 445 169.5 386 c 128,-1,5
 121 327 121 327 121 247.5 c 128,-1,6
 121 168 121 168 156 111.5 c 128,-1,7
 191 55 191 55 251 55 c 0,8,9
 356 55 356 55 424 228 c 1,0,-1
530 64 m 1,10,11
 556 64 556 64 556 49 c 0,12,13
 556 30 556 30 542.5 10 c 128,-1,14
 529 -10 529 -10 500 -10 c 128,-1,15
 471 -10 471 -10 454.5 22 c 128,-1,16
 438 54 438 54 431 124 c 1,17,18
 358 -10 358 -10 246 -10 c 0,19,20
 181 -10 181 -10 134 32 c 128,-1,21
 87 74 87 74 67 129 c 128,-1,22
 47 184 47 184 47 239 c 0,23,24
 47 348 47 348 113 429 c 128,-1,25
 179 510 179 510 282 510 c 0,26,27
 357 510 357 510 424 461 c 1,28,29
 426 600 426 600 426 664.5 c 128,-1,30
 426 729 426 729 435.5 744.5 c 128,-1,31
 445 760 445 760 466.5 760 c 128,-1,32
 488 760 488 760 501.5 742.5 c 128,-1,33
 515 725 515 725 515 691 c 128,-1,34
 515 657 515 657 511 607.5 c 128,-1,35
 507 558 507 558 499 476.5 c 128,-1,36
 491 395 491 395 486 329 c 1,37,38
 486 207 486 207 495 138 c 128,-1,39
 504 69 504 69 530 64 c 1,10,11
EndSplineSet
EndChar

StartChar: e
Encoding: 101 101 72
Width: 539
GlyphClass: 2
Flags: W
LayerCount: 2
Fore
SplineSet
378.5 292 m 128,-1,1
 419 315 419 315 419 354 c 128,-1,2
 419 393 419 393 392.5 421.5 c 128,-1,3
 366 450 366 450 317 450 c 0,4,5
 251 450 251 450 206 400.5 c 128,-1,6
 161 351 161 351 148 285 c 1,7,8
 203 269 203 269 270.5 269 c 128,-1,0
 338 269 338 269 378.5 292 c 128,-1,1
439.5 470 m 128,-1,10
 490 425 490 425 490 353 c 128,-1,11
 490 281 490 281 427.5 243.5 c 128,-1,12
 365 206 365 206 274 206 c 0,13,14
 222 206 222 206 147 221 c 1,15,16
 153 151 153 151 199.5 100.5 c 128,-1,17
 246 50 246 50 303 50 c 0,18,19
 337 50 337 50 366 59.5 c 128,-1,20
 395 69 395 69 410 80 c 0,21,22
 450 111 450 111 462.5 111 c 128,-1,23
 475 111 475 111 482.5 103.5 c 128,-1,24
 490 96 490 96 490 85 c 0,25,26
 490 57 490 57 432.5 21 c 128,-1,27
 375 -15 375 -15 308 -15 c 0,28,29
 204 -15 204 -15 143 58 c 128,-1,30
 82 131 82 131 77 234 c 1,31,32
 24 250 24 250 24 286 c 0,33,34
 24 301 24 301 32.5 309.5 c 128,-1,35
 41 318 41 318 53 318 c 128,-1,36
 65 318 65 318 83 309 c 1,37,38
 105 399 105 399 166.5 457 c 128,-1,39
 228 515 228 515 308.5 515 c 128,-1,9
 389 515 389 515 439.5 470 c 128,-1,10
EndSplineSet
EndChar

StartChar: f
Encoding: 102 102 73
Width: 327
GlyphClass: 2
Flags: W
LayerCount: 2
Fore
SplineSet
175 500 m 1,0,-1
 272 502 l 2,1,2
 288 502 288 502 299 494 c 128,-1,3
 310 486 310 486 310 470 c 0,4,5
 310 440 310 440 272 440 c 2,6,-1
 175 442 l 1,7,-1
 175 375 l 2,8,9
 175 237 175 237 178 143 c 128,-1,10
 181 49 181 49 181 33.5 c 128,-1,11
 181 18 181 18 170.5 4 c 128,-1,12
 160 -10 160 -10 142 -10 c 128,-1,13
 124 -10 124 -10 113.5 4 c 128,-1,14
 103 18 103 18 103 33.5 c 128,-1,15
 103 49 103 49 104 96 c 0,16,17
 109 237 109 237 109 375 c 2,18,-1
 109 442 l 1,19,-1
 58 440 l 1,20,21
 20 440 20 440 20 470 c 0,22,23
 20 486 20 486 31 494 c 128,-1,24
 42 502 42 502 58 502 c 2,25,-1
 108 500 l 1,26,-1
 108 585 l 2,27,28
 108 678 108 678 144.5 719 c 128,-1,29
 181 760 181 760 229 760 c 128,-1,30
 277 760 277 760 308.5 741.5 c 128,-1,31
 340 723 340 723 340 702 c 0,32,33
 340 669 340 669 312 669 c 0,34,35
 299 669 299 669 278 681 c 128,-1,36
 257 693 257 693 237 693 c 0,37,38
 175 693 175 693 175 576 c 2,39,-1
 175 500 l 1,0,-1
EndSplineSet
EndChar

StartChar: g
Encoding: 103 103 74
Width: 558
GlyphClass: 2
Flags: W
LayerCount: 2
Fore
SplineSet
408 234 m 1,0,-1
 408 387 l 1,1,2
 353 445 353 445 286.5 445 c 128,-1,3
 220 445 220 445 170.5 385.5 c 128,-1,4
 121 326 121 326 121 244.5 c 128,-1,5
 121 163 121 163 152 109 c 128,-1,6
 183 55 183 55 237.5 55 c 128,-1,7
 292 55 292 55 338 106 c 128,-1,8
 384 157 384 157 408 234 c 1,0,-1
406 463 m 1,9,10
 408 510 408 510 444 510 c 0,11,12
 490 510 490 510 490 439.5 c 128,-1,13
 490 369 490 369 470 242 c 1,14,15
 482 120 482 120 482 60 c 0,16,17
 482 -71 482 -71 420.5 -150.5 c 128,-1,18
 359 -230 359 -230 248 -230 c 0,19,20
 186 -230 186 -230 131 -204.5 c 128,-1,21
 76 -179 76 -179 76 -153.5 c 128,-1,22
 76 -128 76 -128 99 -128 c 0,23,24
 108 -128 108 -128 150.5 -146.5 c 128,-1,25
 193 -165 193 -165 248 -165 c 0,26,27
 328 -165 328 -165 374 -105 c 128,-1,28
 420 -45 420 -45 420 50 c 0,29,30
 420 89 420 89 415 122 c 1,31,32
 393 68 393 68 343.5 29 c 128,-1,33
 294 -10 294 -10 241.5 -10 c 128,-1,34
 189 -10 189 -10 152 13 c 128,-1,35
 115 36 115 36 92 73 c 0,36,37
 47 148 47 148 47 247.5 c 128,-1,38
 47 347 47 347 114.5 428.5 c 128,-1,39
 182 510 182 510 281 510 c 0,40,41
 350 510 350 510 406 463 c 1,9,10
EndSplineSet
EndChar

StartChar: h
Encoding: 104 104 75
Width: 577
GlyphClass: 2
Flags: W
LayerCount: 2
Fore
SplineSet
494 315 m 1,0,-1
 489 158 l 2,1,2
 489 130 489 130 489.5 115.5 c 128,-1,3
 490 101 490 101 495.5 85.5 c 128,-1,4
 501 70 501 70 509 66.5 c 128,-1,5
 517 63 517 63 525.5 62 c 128,-1,6
 534 61 534 61 537.5 59 c 128,-1,7
 541 57 541 57 541 51 c 0,8,9
 541 25 541 25 524.5 7.5 c 128,-1,10
 508 -10 508 -10 486 -10 c 0,11,12
 448 -10 448 -10 433.5 20 c 128,-1,13
 419 50 419 50 419 108 c 1,14,-1
 423 292 l 1,15,16
 423 360 423 360 394 402 c 128,-1,17
 365 444 365 444 313.5 444 c 128,-1,18
 262 444 262 444 214 387 c 128,-1,19
 166 330 166 330 147 258 c 1,20,-1
 150 41 l 2,21,22
 150 -10 150 -10 112 -10 c 0,23,24
 66 -10 66 -10 66 60.5 c 128,-1,25
 66 131 66 131 86 258 c 1,26,27
 86 326 86 326 77 514.5 c 128,-1,28
 68 703 68 703 68 718 c 128,-1,29
 68 733 68 733 78.5 746.5 c 128,-1,30
 89 760 89 760 107 760 c 128,-1,31
 125 760 125 760 135.5 746.5 c 128,-1,32
 146 733 146 733 146 710 c 2,33,-1
 146 383 l 1,34,35
 219 510 219 510 326 510 c 0,36,37
 406 510 406 510 450 453 c 128,-1,38
 494 396 494 396 494 315 c 1,0,-1
EndSplineSet
EndChar

StartChar: i
Encoding: 105 105 76
Width: 224
GlyphClass: 2
Flags: W
LayerCount: 2
Fore
SplineSet
148 711.5 m 128,-1,1
 158 698 158 698 158 677.5 c 128,-1,2
 158 657 158 657 144 636.5 c 128,-1,3
 130 616 130 616 109 616 c 128,-1,4
 88 616 88 616 77.5 630 c 128,-1,5
 67 644 67 644 67 667 c 128,-1,6
 67 690 67 690 81.5 707.5 c 128,-1,7
 96 725 96 725 117 725 c 128,-1,0
 138 725 138 725 148 711.5 c 128,-1,1
145 250 m 1,8,-1
 150 40 l 1,9,10
 150 -10 150 -10 112 -10 c 128,-1,11
 74 -10 74 -10 74 40 c 1,12,-1
 79 250 l 1,13,-1
 74 460 l 1,14,15
 74 510 74 510 112 510 c 128,-1,16
 150 510 150 510 150 460 c 1,17,-1
 145 250 l 1,8,-1
EndSplineSet
EndChar

StartChar: j
Encoding: 106 106 77
Width: 223
GlyphClass: 2
Flags: W
LayerCount: 2
Fore
SplineSet
148 711.5 m 128,-1,1
 158 698 158 698 158 677.5 c 128,-1,2
 158 657 158 657 144 636.5 c 128,-1,3
 130 616 130 616 109 616 c 128,-1,4
 88 616 88 616 77.5 630 c 128,-1,5
 67 644 67 644 67 667 c 128,-1,6
 67 690 67 690 81.5 707.5 c 128,-1,7
 96 725 96 725 117 725 c 128,-1,0
 138 725 138 725 148 711.5 c 128,-1,1
145 230 m 1,8,-1
 144 10 l 2,9,10
 144 -76 144 -76 100.5 -132.5 c 128,-1,11
 57 -189 57 -189 20 -189 c 0,12,13
 -7 -189 -7 -189 -7 -170 c 0,14,15
 -7 -156 -7 -156 36 -114 c 0,16,17
 53 -98 53 -98 66.5 -62.5 c 128,-1,18
 80 -27 80 -27 80 20 c 2,19,-1
 79 230 l 1,20,-1
 74 460 l 1,21,22
 74 510 74 510 112 510 c 128,-1,23
 150 510 150 510 150 460 c 1,24,-1
 145 230 l 1,8,-1
EndSplineSet
EndChar

StartChar: k
Encoding: 107 107 78
Width: 510
GlyphClass: 2
Flags: W
LayerCount: 2
Fore
SplineSet
147 258 m 1,0,-1
 150 41 l 2,1,2
 150 -10 150 -10 112 -10 c 0,3,4
 66 -10 66 -10 66 60.5 c 128,-1,5
 66 131 66 131 86 258 c 1,6,7
 86 326 86 326 77 514.5 c 128,-1,8
 68 703 68 703 68 718 c 128,-1,9
 68 733 68 733 78.5 746.5 c 128,-1,10
 89 760 89 760 107 760 c 128,-1,11
 125 760 125 760 135.5 746.5 c 128,-1,12
 146 733 146 733 146 710 c 2,13,-1
 146 383 l 1,14,15
 219 510 219 510 326 510 c 0,16,17
 384 510 384 510 419 476 c 128,-1,18
 454 442 454 442 454 393 c 0,19,20
 454 311 454 311 369 253 c 0,21,22
 350 240 350 240 320 221 c 1,23,-1
 394 107 l 2,24,25
 413 78 413 78 434 69 c 128,-1,26
 455 60 455 60 465.5 60 c 128,-1,27
 476 60 476 60 476 51 c 0,28,29
 476 27 476 27 461 8.5 c 128,-1,30
 446 -10 446 -10 425 -10 c 128,-1,31
 404 -10 404 -10 392.5 -3.5 c 128,-1,32
 381 3 381 3 367.5 21.5 c 128,-1,33
 354 40 354 40 342 60 c 0,34,35
 284 155 284 155 253 199 c 1,36,37
 227 199 227 199 210 213.5 c 128,-1,38
 193 228 193 228 193 248 c 128,-1,39
 193 268 193 268 206.5 281 c 128,-1,40
 220 294 220 294 242 294 c 128,-1,41
 264 294 264 294 287 269 c 1,42,43
 325 286 325 286 354.5 321 c 128,-1,44
 384 356 384 356 384 384 c 128,-1,45
 384 412 384 412 368.5 428 c 128,-1,46
 353 444 353 444 322 444 c 0,47,48
 266 444 266 444 216 387.5 c 128,-1,49
 166 331 166 331 147 258 c 1,0,-1
EndSplineSet
EndChar

StartChar: l
Encoding: 108 108 79
Width: 224
GlyphClass: 2
Flags: W
LayerCount: 2
Fore
SplineSet
145 375 m 1,0,-1
 150 40 l 2,1,2
 150 -10 150 -10 112 -10 c 128,-1,3
 74 -10 74 -10 74 40 c 2,4,-1
 79 375 l 1,5,-1
 74 710 l 2,6,7
 74 760 74 760 112 760 c 128,-1,8
 150 760 150 760 150 710 c 2,9,-1
 145 375 l 1,0,-1
EndSplineSet
EndChar

StartChar: m
Encoding: 109 109 80
Width: 877
GlyphClass: 2
Flags: W
LayerCount: 2
Fore
SplineSet
794 315 m 1,0,-1
 789 158 l 2,1,2
 789 130 789 130 789.5 115.5 c 128,-1,3
 790 101 790 101 795.5 85.5 c 128,-1,4
 801 70 801 70 809 66.5 c 128,-1,5
 817 63 817 63 825.5 62 c 128,-1,6
 834 61 834 61 837.5 59 c 128,-1,7
 841 57 841 57 841 51 c 0,8,9
 841 25 841 25 824.5 7.5 c 128,-1,10
 808 -10 808 -10 786 -10 c 0,11,12
 748 -10 748 -10 733.5 20 c 128,-1,13
 719 50 719 50 719 108 c 1,14,-1
 723 292 l 1,15,16
 723 360 723 360 696.5 402 c 128,-1,17
 670 444 670 444 622.5 444 c 128,-1,18
 575 444 575 444 530 387 c 128,-1,19
 485 330 485 330 467 258 c 1,20,-1
 470 41 l 2,21,22
 470 -10 470 -10 432 -10 c 0,23,24
 386 -10 386 -10 386 60.5 c 128,-1,25
 386 131 386 131 406 258 c 1,26,27
 406 444 406 444 304 444 c 0,28,29
 257 444 257 444 212 387 c 128,-1,30
 167 330 167 330 149 258 c 1,31,-1
 152 41 l 2,32,33
 152 -10 152 -10 114 -10 c 0,34,35
 68 -10 68 -10 68 60.5 c 128,-1,36
 68 131 68 131 88 258 c 1,37,38
 88 300 88 300 79.5 374 c 128,-1,39
 71 448 71 448 71 465.5 c 128,-1,40
 71 483 71 483 81.5 496.5 c 128,-1,41
 92 510 92 510 110 510 c 128,-1,42
 128 510 128 510 138.5 496.5 c 128,-1,43
 149 483 149 483 149 466 c 128,-1,44
 149 449 149 449 148.5 424.5 c 128,-1,45
 148 400 148 400 148 383 c 1,46,47
 216 510 216 510 318 510 c 0,48,49
 377 510 377 510 414.5 475.5 c 128,-1,50
 452 441 452 441 466 383 c 1,51,52
 534 510 534 510 636 510 c 0,53,54
 711 510 711 510 752.5 453 c 128,-1,55
 794 396 794 396 794 315 c 1,0,-1
EndSplineSet
EndChar

StartChar: n
Encoding: 110 110 81
Width: 579
GlyphClass: 2
Flags: W
LayerCount: 2
Fore
SplineSet
496 315 m 1,0,-1
 491 158 l 2,1,2
 491 130 491 130 491.5 115.5 c 128,-1,3
 492 101 492 101 497.5 85.5 c 128,-1,4
 503 70 503 70 511 66.5 c 128,-1,5
 519 63 519 63 527.5 62 c 128,-1,6
 536 61 536 61 539.5 59 c 128,-1,7
 543 57 543 57 543 51 c 0,8,9
 543 25 543 25 526.5 7.5 c 128,-1,10
 510 -10 510 -10 488 -10 c 0,11,12
 450 -10 450 -10 435.5 20 c 128,-1,13
 421 50 421 50 421 108 c 1,14,-1
 425 292 l 1,15,16
 425 360 425 360 396 402 c 128,-1,17
 367 444 367 444 315.5 444 c 128,-1,18
 264 444 264 444 216 387 c 128,-1,19
 168 330 168 330 149 258 c 1,20,-1
 152 41 l 2,21,22
 152 -10 152 -10 114 -10 c 0,23,24
 68 -10 68 -10 68 60.5 c 128,-1,25
 68 131 68 131 88 258 c 1,26,27
 88 300 88 300 79.5 374 c 128,-1,28
 71 448 71 448 71 465.5 c 128,-1,29
 71 483 71 483 81.5 496.5 c 128,-1,30
 92 510 92 510 110 510 c 128,-1,31
 128 510 128 510 138.5 496.5 c 128,-1,32
 149 483 149 483 149 466 c 128,-1,33
 149 449 149 449 148.5 424.5 c 128,-1,34
 148 400 148 400 148 383 c 1,35,36
 221 510 221 510 328 510 c 0,37,38
 408 510 408 510 452 453 c 128,-1,39
 496 396 496 396 496 315 c 1,0,-1
EndSplineSet
EndChar

StartChar: o
Encoding: 111 111 82
Width: 562
GlyphClass: 2
Flags: W
LayerCount: 2
Fore
SplineSet
445 251 m 128,-1,1
 445 334 445 334 398.5 392 c 128,-1,2
 352 450 352 450 283 450 c 128,-1,3
 214 450 214 450 165.5 391 c 128,-1,4
 117 332 117 332 117 249 c 128,-1,5
 117 166 117 166 163.5 108 c 128,-1,6
 210 50 210 50 279 50 c 128,-1,7
 348 50 348 50 396.5 109 c 128,-1,0
 445 168 445 168 445 251 c 128,-1,1
450 438.5 m 128,-1,9
 516 362 516 362 516 251 c 128,-1,10
 516 140 516 140 449 62.5 c 128,-1,11
 382 -15 382 -15 280 -15 c 128,-1,12
 178 -15 178 -15 112 61.5 c 128,-1,13
 46 138 46 138 46 249 c 128,-1,14
 46 360 46 360 112.5 437.5 c 128,-1,15
 179 515 179 515 281.5 515 c 128,-1,8
 384 515 384 515 450 438.5 c 128,-1,9
EndSplineSet
EndChar

StartChar: p
Encoding: 112 112 83
Width: 570
GlyphClass: 2
Flags: W
LayerCount: 2
Fore
SplineSet
400.5 114 m 128,-1,1
 449 173 449 173 449 252.5 c 128,-1,2
 449 332 449 332 414 388.5 c 128,-1,3
 379 445 379 445 319 445 c 0,4,5
 214 445 214 445 146 272 c 1,6,-1
 146 113 l 1,7,8
 206 55 206 55 288 55 c 0,9,0
 352 55 352 55 400.5 114 c 128,-1,1
84 190 m 1,10,-1
 85 228 l 1,11,-1
 85 244 l 2,12,13
 85 286 85 286 76 367 c 128,-1,14
 67 448 67 448 67 465.5 c 128,-1,15
 67 483 67 483 77.5 496.5 c 128,-1,16
 88 510 88 510 106 510 c 128,-1,17
 124 510 124 510 134.5 496.5 c 128,-1,18
 145 483 145 483 145 466 c 128,-1,19
 145 449 145 449 144.5 423.5 c 128,-1,20
 144 398 144 398 144 381 c 1,21,22
 177 442 177 442 218 476 c 128,-1,23
 259 510 259 510 324 510 c 128,-1,24
 389 510 389 510 436 468 c 128,-1,25
 483 426 483 426 503 371 c 128,-1,26
 523 316 523 316 523 261 c 0,27,28
 523 152 523 152 457 71 c 128,-1,29
 391 -10 391 -10 288 -10 c 0,30,31
 213 -10 213 -10 146 39 c 1,32,33
 144 -82 144 -82 144 -140.5 c 128,-1,34
 144 -199 144 -199 134 -214.5 c 128,-1,35
 124 -230 124 -230 103 -230 c 128,-1,36
 82 -230 82 -230 68.5 -212.5 c 128,-1,37
 55 -195 55 -195 55 -162 c 128,-1,38
 55 -129 55 -129 59 -83.5 c 128,-1,39
 63 -38 63 -38 71 36.5 c 128,-1,40
 79 111 79 111 84 171 c 1,41,-1
 84 190 l 1,10,-1
EndSplineSet
EndChar

StartChar: q
Encoding: 113 113 84
Width: 553
GlyphClass: 2
Flags: W
LayerCount: 2
Fore
SplineSet
48 239 m 0,0,1
 48 348 48 348 111 429 c 128,-1,2
 174 510 174 510 273 510 c 0,3,4
 348 510 348 510 403 459 c 1,5,6
 403 510 403 510 441 510 c 0,7,8
 487 510 487 510 487 439.5 c 128,-1,9
 487 369 487 369 467 242 c 1,10,11
 467 179 467 179 476 3 c 128,-1,12
 485 -173 485 -173 485 -188 c 128,-1,13
 485 -203 485 -203 474.5 -216.5 c 128,-1,14
 464 -230 464 -230 446 -230 c 128,-1,15
 428 -230 428 -230 417.5 -216.5 c 128,-1,16
 407 -203 407 -203 407 -180 c 2,17,-1
 407 106 l 1,18,19
 380 55 380 55 334.5 22.5 c 128,-1,20
 289 -10 289 -10 230.5 -10 c 128,-1,21
 172 -10 172 -10 128 30 c 0,22,23
 48 103 48 103 48 239 c 0,0,1
166 386 m 128,-1,25
 119 327 119 327 119 244.5 c 128,-1,26
 119 162 119 162 149.5 108.5 c 128,-1,27
 180 55 180 55 236 55 c 128,-1,28
 292 55 292 55 338 105 c 128,-1,29
 384 155 384 155 409 233 c 1,30,-1
 404 387 l 1,31,32
 344 445 344 445 278.5 445 c 128,-1,24
 213 445 213 445 166 386 c 128,-1,25
EndSplineSet
EndChar

StartChar: r
Encoding: 114 114 85
Width: 408
GlyphClass: 2
Flags: W
LayerCount: 2
Fore
SplineSet
149 229 m 1,0,-1
 152 41 l 2,1,2
 152 -10 152 -10 114 -10 c 0,3,4
 68 -10 68 -10 68 60.5 c 128,-1,5
 68 131 68 131 88 258 c 1,6,7
 88 300 88 300 79.5 373 c 128,-1,8
 71 446 71 446 71 464 c 128,-1,9
 71 482 71 482 81.5 496 c 128,-1,10
 92 510 92 510 110 510 c 128,-1,11
 128 510 128 510 138.5 496 c 128,-1,12
 149 482 149 482 149 465.5 c 128,-1,13
 149 449 149 449 148.5 423.5 c 128,-1,14
 148 398 148 398 148 381 c 1,15,16
 168 432 168 432 210.5 471 c 128,-1,17
 253 510 253 510 298 510 c 128,-1,18
 343 510 343 510 367.5 491.5 c 128,-1,19
 392 473 392 473 392 452 c 128,-1,20
 392 431 392 431 381 419 c 128,-1,21
 370 407 370 407 352.5 407 c 128,-1,22
 335 407 335 407 314.5 425.5 c 128,-1,23
 294 444 294 444 282 444 c 0,24,25
 249 444 249 444 205 373 c 128,-1,26
 161 302 161 302 149 229 c 1,0,-1
EndSplineSet
EndChar

StartChar: s
Encoding: 115 115 86
Width: 455
GlyphClass: 2
Flags: W
LayerCount: 2
Fore
SplineSet
416 144 m 0,0,1
 416 76 416 76 360.5 33 c 128,-1,2
 305 -10 305 -10 227.5 -10 c 128,-1,3
 150 -10 150 -10 93 25.5 c 128,-1,4
 36 61 36 61 36 96 c 0,5,6
 36 111 36 111 45 120.5 c 128,-1,7
 54 130 54 130 65.5 130 c 128,-1,8
 77 130 77 130 84 125.5 c 128,-1,9
 91 121 91 121 103 108 c 128,-1,10
 115 95 115 95 124.5 86 c 128,-1,11
 134 77 134 77 163.5 66 c 128,-1,12
 193 55 193 55 218 55 c 0,13,14
 273 55 273 55 308.5 77.5 c 128,-1,15
 344 100 344 100 344 143 c 0,16,17
 344 195 344 195 244 230 c 0,18,19
 203 244 203 244 161.5 260.5 c 128,-1,20
 120 277 120 277 91 306 c 128,-1,21
 62 335 62 335 62 375 c 0,22,23
 62 429 62 429 111 469.5 c 128,-1,24
 160 510 160 510 231 510 c 128,-1,25
 302 510 302 510 343.5 485.5 c 128,-1,26
 385 461 385 461 385 434 c 0,27,28
 385 401 385 401 350 401 c 0,29,30
 335 401 335 401 320 412 c 0,31,32
 273 445 273 445 230 445 c 128,-1,33
 187 445 187 445 160 425.5 c 128,-1,34
 133 406 133 406 133 380.5 c 128,-1,35
 133 355 133 355 162 337 c 128,-1,36
 191 319 191 319 232.5 304 c 128,-1,37
 274 289 274 289 316 270.5 c 128,-1,38
 358 252 358 252 387 219.5 c 128,-1,39
 416 187 416 187 416 144 c 0,0,1
EndSplineSet
EndChar

StartChar: t
Encoding: 116 116 87
Width: 337
GlyphClass: 2
Flags: W
LayerCount: 2
Fore
SplineSet
183 439 m 1,0,-1
 181 202 l 2,1,2
 181 111 181 111 188.5 83 c 128,-1,3
 196 55 196 55 228 55 c 0,4,5
 243 55 243 55 264.5 65.5 c 128,-1,6
 286 76 286 76 293 76 c 0,7,8
 314 76 314 76 314 55.5 c 128,-1,9
 314 35 314 35 277 12.5 c 128,-1,10
 240 -10 240 -10 204 -10 c 0,11,12
 117 -10 117 -10 117 118 c 2,13,-1
 116 439 l 1,14,15
 83 436 83 436 70 436 c 0,16,17
 20 436 20 436 20 469 c 128,-1,18
 20 502 20 502 70 502 c 0,19,20
 74 502 74 502 114 500 c 1,21,-1
 112 612 l 2,22,23
 112 662 112 662 150 662 c 128,-1,24
 188 662 188 662 188 612 c 1,25,-1
 185 499 l 1,26,-1
 266 503 l 1,27,28
 316 503 316 503 316 469 c 0,29,30
 316 437 316 437 266 437 c 0,31,32
 257 437 257 437 183 439 c 1,0,-1
EndSplineSet
EndChar

StartChar: u
Encoding: 117 117 88
Width: 584
GlyphClass: 2
Flags: W
LayerCount: 2
Fore
SplineSet
151 428 m 1,0,-1
 143 208 l 1,1,2
 143 140 143 140 172 97.5 c 128,-1,3
 201 55 201 55 252.5 55 c 128,-1,4
 304 55 304 55 352 112.5 c 128,-1,5
 400 170 400 170 419 242 c 1,6,-1
 416 459 l 2,7,8
 416 510 416 510 454 510 c 0,9,10
 500 510 500 510 500 439.5 c 128,-1,11
 500 369 500 369 480 242 c 1,12,13
 480 167 480 167 491 119.5 c 128,-1,14
 502 72 502 72 517 66 c 0,15,16
 523 63 523 63 531.5 62 c 128,-1,17
 540 61 540 61 543.5 59 c 128,-1,18
 547 57 547 57 547 51 c 0,19,20
 547 24 547 24 530.5 7 c 128,-1,21
 514 -10 514 -10 489 -10 c 0,22,23
 426 -10 426 -10 426 118 c 1,24,25
 352 -10 352 -10 240 -10 c 0,26,27
 160 -10 160 -10 116 49.5 c 128,-1,28
 72 109 72 109 72 195 c 1,29,-1
 78 346 l 1,30,31
 78 386 78 386 70 420.5 c 128,-1,32
 62 455 62 455 62 470 c 128,-1,33
 62 485 62 485 74 497.5 c 128,-1,34
 86 510 86 510 105 510 c 0,35,36
 151 510 151 510 151 428 c 1,0,-1
EndSplineSet
EndChar

StartChar: v
Encoding: 118 118 89
Width: 485
GlyphClass: 2
Flags: W
LayerCount: 2
Fore
SplineSet
244 80 m 128,-1,1
 247 80 247 80 252.5 90.5 c 128,-1,2
 258 101 258 101 267 124 c 128,-1,3
 276 147 276 147 282.5 165 c 128,-1,4
 289 183 289 183 302 218 c 2,5,-1
 319 267 l 2,6,7
 335 311 335 311 359 386.5 c 128,-1,8
 383 462 383 462 388 474 c 0,9,10
 402 510 402 510 427 510 c 0,11,12
 442 510 442 510 452.5 500.5 c 128,-1,13
 463 491 463 491 463 477.5 c 128,-1,14
 463 464 463 464 454.5 441.5 c 128,-1,15
 446 419 446 419 423.5 361.5 c 128,-1,16
 401 304 401 304 359.5 188 c 128,-1,17
 318 72 318 72 297 31 c 128,-1,18
 276 -10 276 -10 241.5 -10 c 128,-1,19
 207 -10 207 -10 189 26 c 0,20,21
 182 40 182 40 137 158.5 c 128,-1,22
 92 277 92 277 77 315 c 128,-1,23
 62 353 62 353 53.5 374 c 128,-1,24
 45 395 45 395 38 416 c 0,25,26
 23 458 23 458 23 474.5 c 128,-1,27
 23 491 23 491 33 500.5 c 128,-1,28
 43 510 43 510 58 510 c 0,29,30
 85 510 85 510 99 475 c 0,31,32
 104 463 104 463 128.5 387.5 c 128,-1,33
 153 312 153 312 164 282.5 c 128,-1,34
 175 253 175 253 187 219 c 128,-1,35
 199 185 199 185 205.5 166 c 128,-1,36
 212 147 212 147 221 124 c 128,-1,37
 230 101 230 101 235.5 90.5 c 128,-1,0
 241 80 241 80 244 80 c 128,-1,1
EndSplineSet
EndChar

StartChar: w
Encoding: 119 119 90
Width: 786
GlyphClass: 2
Flags: W
LayerCount: 2
Fore
SplineSet
229 80 m 0,0,1
 238 80 238 80 294 270 c 128,-1,2
 350 460 350 460 356 474 c 0,3,4
 370 510 370 510 400.5 510 c 128,-1,5
 431 510 431 510 443 475 c 0,6,7
 454 441 454 441 473 370 c 128,-1,8
 492 299 492 299 501 268 c 0,9,10
 556 80 556 80 565.5 80 c 128,-1,11
 575 80 575 80 631 267 c 0,12,13
 644 310 644 310 664 384 c 128,-1,14
 684 458 684 458 688 471 c 0,15,16
 700 510 700 510 725 510 c 0,17,18
 740 510 740 510 750.5 501 c 128,-1,19
 761 492 761 492 761 479.5 c 128,-1,20
 761 467 761 467 758.5 456.5 c 128,-1,21
 756 446 756 446 749.5 426.5 c 128,-1,22
 743 407 743 407 736 385 c 128,-1,23
 729 363 729 363 715.5 323.5 c 128,-1,24
 702 284 702 284 669 180 c 128,-1,25
 636 76 636 76 617 28 c 0,26,27
 602 -10 602 -10 562 -10 c 128,-1,28
 522 -10 522 -10 504 42 c 0,29,30
 468 146 468 146 435 261.5 c 128,-1,31
 402 377 402 377 394 377 c 0,32,33
 387 377 387 377 375.5 337.5 c 128,-1,34
 364 298 364 298 357.5 275.5 c 128,-1,35
 351 253 351 253 349 245 c 0,36,37
 296 61 296 61 277 25 c 1,38,39
 260 -10 260 -10 222 -10 c 128,-1,40
 184 -10 184 -10 165 45 c 0,41,42
 158 65 158 65 136.5 131 c 128,-1,43
 115 197 115 197 101.5 237.5 c 128,-1,44
 88 278 88 278 74.5 316 c 128,-1,45
 61 354 61 354 53 376 c 128,-1,46
 45 398 45 398 38 419 c 0,47,48
 25 458 25 458 25 474 c 128,-1,49
 25 490 25 490 35.5 500 c 128,-1,50
 46 510 46 510 61 510 c 0,51,52
 90 510 90 510 101 475 c 0,53,54
 105 463 105 463 127.5 387.5 c 128,-1,55
 150 312 150 312 159.5 281.5 c 128,-1,56
 169 251 169 251 179 219 c 128,-1,57
 189 187 189 187 195.5 167 c 128,-1,58
 202 147 202 147 210 124 c 0,59,60
 224 80 224 80 229 80 c 0,0,1
EndSplineSet
EndChar

StartChar: x
Encoding: 120 120 91
Width: 492
GlyphClass: 2
Flags: W
LayerCount: 2
Fore
SplineSet
385 109 m 1,0,1
 411 75 411 75 433.5 63 c 128,-1,2
 456 51 456 51 465.5 51 c 128,-1,3
 475 51 475 51 475 46 c 0,4,5
 475 21 475 21 460.5 3 c 128,-1,6
 446 -15 446 -15 430.5 -15 c 128,-1,7
 415 -15 415 -15 406 -11.5 c 128,-1,8
 397 -8 397 -8 387 2 c 128,-1,9
 377 12 377 12 368 22.5 c 128,-1,10
 359 33 359 33 344.5 54 c 128,-1,11
 330 75 330 75 317.5 93.5 c 128,-1,12
 305 112 305 112 283 145 c 128,-1,13
 261 178 261 178 242 206 c 1,14,15
 200 145 200 145 156.5 79.5 c 128,-1,16
 113 14 113 14 102.5 2 c 128,-1,17
 92 -10 92 -10 79.5 -10 c 128,-1,18
 67 -10 67 -10 56.5 -0.5 c 128,-1,19
 46 9 46 9 46 21 c 128,-1,20
 46 33 46 33 49 41 c 128,-1,21
 52 49 52 49 64 65.5 c 128,-1,22
 76 82 76 82 91 102 c 0,23,24
 133 156 133 156 205 261 c 1,25,-1
 119 389 l 1,26,27
 98 416 98 416 79 430 c 128,-1,28
 60 444 60 444 50 445 c 0,29,30
 28 447 28 447 28 456 c 0,31,32
 28 481 28 481 41.5 498 c 128,-1,33
 55 515 55 515 79 515 c 128,-1,34
 103 515 103 515 125 489 c 128,-1,35
 147 463 147 463 183 408.5 c 128,-1,36
 219 354 219 354 223 348 c 128,-1,37
 227 342 227 342 233.5 332 c 128,-1,38
 240 322 240 322 246 313 c 1,39,40
 358 482 358 482 361 486 c 0,41,42
 378 510 378 510 392.5 510 c 128,-1,43
 407 510 407 510 417 499.5 c 128,-1,44
 427 489 427 489 427 476.5 c 128,-1,45
 427 464 427 464 415 444.5 c 128,-1,46
 403 425 403 425 359 365.5 c 128,-1,47
 315 306 315 306 283 262 c 1,48,-1
 385 109 l 1,0,1
EndSplineSet
EndChar

StartChar: y
Encoding: 121 121 92
Width: 568
GlyphClass: 2
Flags: W
LayerCount: 2
Fore
SplineSet
419 242 m 1,0,-1
 416 459 l 2,1,2
 416 510 416 510 454 510 c 0,3,4
 500 510 500 510 500 435 c 0,5,6
 500 376 500 376 479 242 c 1,7,8
 491 120 491 120 491 60 c 0,9,10
 491 -71 491 -71 427 -150.5 c 128,-1,11
 363 -230 363 -230 247 -230 c 0,12,13
 185 -230 185 -230 130 -204.5 c 128,-1,14
 75 -179 75 -179 75 -153.5 c 128,-1,15
 75 -128 75 -128 98 -128 c 0,16,17
 108 -128 108 -128 153.5 -146.5 c 128,-1,18
 199 -165 199 -165 247 -165 c 0,19,20
 331 -165 331 -165 380 -105 c 128,-1,21
 429 -45 429 -45 429 50 c 0,22,23
 429 85 429 85 426 118 c 1,24,25
 352 -10 352 -10 240 -10 c 0,26,27
 160 -10 160 -10 116 49.5 c 128,-1,28
 72 109 72 109 72 195 c 1,29,-1
 78 346 l 1,30,31
 78 386 78 386 70 420.5 c 128,-1,32
 62 455 62 455 62 470 c 128,-1,33
 62 485 62 485 74 497.5 c 128,-1,34
 86 510 86 510 105 510 c 0,35,36
 151 510 151 510 151 428 c 1,37,-1
 143 208 l 1,38,39
 143 140 143 140 172 97.5 c 128,-1,40
 201 55 201 55 252.5 55 c 128,-1,41
 304 55 304 55 352 112.5 c 128,-1,42
 400 170 400 170 419 242 c 1,0,-1
EndSplineSet
EndChar

StartChar: z
Encoding: 122 122 93
Width: 478
GlyphClass: 2
Flags: W
LayerCount: 2
Fore
SplineSet
245 60 m 1,0,-1
 395 65 l 1,1,2
 445 65 445 65 445 30 c 128,-1,3
 445 -5 445 -5 395 -5 c 1,4,-1
 245 0 l 1,5,6
 245 0 245 0 83 -5 c 1,7,8
 35 -5 35 -5 35 30 c 0,9,10
 35 56 35 56 70 96 c 0,11,12
 131 167 131 167 177.5 230.5 c 128,-1,13
 224 294 224 294 248 325.5 c 128,-1,14
 272 357 272 357 284 373 c 0,15,16
 316 418 316 418 326 437 c 1,17,18
 251 440 251 440 241 440 c 2,19,-1
 95 435 l 1,20,21
 45 435 45 435 45 470 c 128,-1,22
 45 505 45 505 95 505 c 1,23,-1
 241 500 l 1,24,-1
 383 505 l 1,25,26
 431 505 431 505 431 470 c 0,27,28
 431 448 431 448 412.5 424 c 128,-1,29
 394 400 394 400 377 380 c 0,30,31
 332 327 332 327 258 227.5 c 128,-1,32
 184 128 184 128 139 62 c 1,33,34
 199 60 199 60 245 60 c 1,0,-1
EndSplineSet
EndChar

StartChar: braceleft
Encoding: 123 123 94
Width: 307
GlyphClass: 2
Flags: W
LayerCount: 2
Fore
SplineSet
254 -167.5 m 128,-1,1
 265 -178 265 -178 265 -193.5 c 128,-1,2
 265 -209 265 -209 255 -219.5 c 128,-1,3
 245 -230 245 -230 228 -230 c 0,4,5
 185 -230 185 -230 152.5 -202 c 128,-1,6
 120 -174 120 -174 120 -122 c 0,7,8
 120 -96 120 -96 127.5 -29.5 c 128,-1,9
 135 37 135 37 135 81 c 128,-1,10
 135 125 135 125 127.5 166 c 128,-1,11
 120 207 120 207 104 215 c 1,12,13
 84 206 84 206 64.5 206 c 128,-1,14
 45 206 45 206 29.5 219 c 128,-1,15
 14 232 14 232 14 256.5 c 128,-1,16
 14 281 14 281 30 297 c 128,-1,17
 46 313 46 313 69 313 c 128,-1,18
 92 313 92 313 104 307 c 1,19,20
 116 322 116 322 126 366 c 128,-1,21
 136 410 136 410 136 450.5 c 128,-1,22
 136 491 136 491 128.5 557.5 c 128,-1,23
 121 624 121 624 121 650 c 0,24,25
 121 702 121 702 153.5 731 c 128,-1,26
 186 760 186 760 229 760 c 0,27,28
 246 760 246 760 256 749.5 c 128,-1,29
 266 739 266 739 266 723.5 c 128,-1,30
 266 708 266 708 255 697.5 c 128,-1,31
 244 687 244 687 229 687 c 0,32,33
 191 687 191 687 191 640 c 0,34,35
 191 625 191 625 198.5 562 c 128,-1,36
 206 499 206 499 206 448 c 0,37,38
 206 333 206 333 157 269 c 1,39,40
 174 247 174 247 182 232.5 c 128,-1,41
 190 218 190 218 197.5 179 c 128,-1,42
 205 140 205 140 205 84.5 c 128,-1,43
 205 29 205 29 197.5 -34 c 128,-1,44
 190 -97 190 -97 190 -112 c 0,45,46
 190 -157 190 -157 228 -157 c 0,47,0
 243 -157 243 -157 254 -167.5 c 128,-1,1
EndSplineSet
EndChar

StartChar: bar
Encoding: 124 124 95
Width: 220
GlyphClass: 2
Flags: W
LayerCount: 2
Fore
SplineSet
144 750 m 2,0,-1
 140 255 l 1,1,2
 140 20 140 20 142.5 -93.5 c 128,-1,3
 145 -207 145 -207 145 -220 c 0,4,5
 145 -270 145 -270 110 -270 c 128,-1,6
 75 -270 75 -270 75 -220 c 0,7,8
 75 -207 75 -207 76 -139 c 0,9,10
 80 20 80 20 80 255 c 1,11,-1
 76 750 l 2,12,13
 76 800 76 800 110 800 c 128,-1,14
 144 800 144 800 144 750 c 2,0,-1
EndSplineSet
EndChar

StartChar: braceright
Encoding: 125 125 96
Width: 307
GlyphClass: 2
Flags: W
LayerCount: 2
Fore
SplineSet
277 297 m 128,-1,1
 293 281 293 281 293 256.5 c 128,-1,2
 293 232 293 232 277.5 219 c 128,-1,3
 262 206 262 206 242.5 206 c 128,-1,4
 223 206 223 206 203 215 c 1,5,6
 187 207 187 207 179.5 166 c 128,-1,7
 172 125 172 125 172 81 c 128,-1,8
 172 37 172 37 179.5 -29.5 c 128,-1,9
 187 -96 187 -96 187 -122 c 0,10,11
 187 -174 187 -174 154.5 -202 c 128,-1,12
 122 -230 122 -230 79 -230 c 0,13,14
 62 -230 62 -230 52 -219.5 c 128,-1,15
 42 -209 42 -209 42 -193.5 c 128,-1,16
 42 -178 42 -178 53 -167.5 c 128,-1,17
 64 -157 64 -157 79 -157 c 0,18,19
 117 -157 117 -157 117 -112 c 0,20,21
 117 -97 117 -97 109.5 -34 c 128,-1,22
 102 29 102 29 102 84.5 c 128,-1,23
 102 140 102 140 109.5 179 c 128,-1,24
 117 218 117 218 125 232.5 c 128,-1,25
 133 247 133 247 150 269 c 1,26,27
 101 333 101 333 101 448 c 0,28,29
 101 499 101 499 108.5 562 c 128,-1,30
 116 625 116 625 116 640 c 0,31,32
 116 687 116 687 78 687 c 0,33,34
 63 687 63 687 52 697.5 c 128,-1,35
 41 708 41 708 41 723.5 c 128,-1,36
 41 739 41 739 51 749.5 c 128,-1,37
 61 760 61 760 78 760 c 0,38,39
 121 760 121 760 153.5 731 c 128,-1,40
 186 702 186 702 186 650 c 0,41,42
 186 624 186 624 178.5 557.5 c 128,-1,43
 171 491 171 491 171 450.5 c 128,-1,44
 171 410 171 410 181 366 c 128,-1,45
 191 322 191 322 203 307 c 1,46,47
 215 313 215 313 238 313 c 128,-1,0
 261 313 261 313 277 297 c 128,-1,1
EndSplineSet
EndChar

StartChar: asciitilde
Encoding: 126 126 97
Width: 552
GlyphClass: 2
Flags: W
LayerCount: 2
Fore
SplineSet
458 238 m 128,-1,1
 422 208 422 208 383.5 208 c 128,-1,2
 345 208 345 208 291.5 237 c 128,-1,3
 238 266 238 266 208.5 266 c 128,-1,4
 179 266 179 266 147.5 235.5 c 128,-1,5
 116 205 116 205 97.5 205 c 128,-1,6
 79 205 79 205 69 214.5 c 128,-1,7
 59 224 59 224 59 238 c 0,8,9
 59 270 59 270 102 299 c 128,-1,10
 145 328 145 328 195.5 328 c 128,-1,11
 246 328 246 328 300.5 299 c 128,-1,12
 355 270 355 270 378.5 270 c 128,-1,13
 402 270 402 270 419 282.5 c 128,-1,14
 436 295 436 295 448 307.5 c 128,-1,15
 460 320 460 320 471 320 c 0,16,17
 494 320 494 320 494 294 c 128,-1,0
 494 268 494 268 458 238 c 128,-1,1
EndSplineSet
EndChar

StartChar: exclamdown
Encoding: 161 161 99
Width: 220
GlyphClass: 2
Flags: W
LayerCount: 2
Fore
SplineSet
145 529 m 128,-1,1
 156 513 156 513 156 490.5 c 128,-1,2
 156 468 156 468 141.5 449 c 128,-1,3
 127 430 127 430 106.5 430 c 128,-1,4
 86 430 86 430 75 445 c 128,-1,5
 64 460 64 460 64 483.5 c 128,-1,6
 64 507 64 507 78.5 526 c 128,-1,7
 93 545 93 545 113.5 545 c 128,-1,0
 134 545 134 545 145 529 c 128,-1,1
146 274 m 2,8,-1
 143 62 l 2,9,10
 143 3 143 3 146.5 -85.5 c 128,-1,11
 150 -174 150 -174 150 -180 c 0,12,13
 150 -230 150 -230 110 -230 c 128,-1,14
 70 -230 70 -230 70 -180 c 0,15,16
 70 -174 70 -174 73.5 -85.5 c 128,-1,17
 77 3 77 3 77 62 c 2,18,-1
 74 274 l 2,19,20
 74 324 74 324 110 324 c 128,-1,21
 146 324 146 324 146 274 c 2,8,-1
EndSplineSet
EndChar

StartChar: cent
Encoding: 162 162 100
Width: 534
GlyphClass: 2
Flags: W
LayerCount: 2
Fore
SplineSet
326 594 m 1,0,-1
 324 514 l 1,1,2
 384 511 384 511 428.5 483.5 c 128,-1,3
 473 456 473 456 473 428 c 0,4,5
 473 412 473 412 463 401.5 c 128,-1,6
 453 391 453 391 440 391 c 128,-1,7
 427 391 427 391 393.5 417.5 c 128,-1,8
 360 444 360 444 323 449 c 1,9,10
 322 397 322 397 322 279.5 c 128,-1,11
 322 162 322 162 324 50 c 1,12,13
 367 53 367 53 408 78 c 128,-1,14
 449 103 449 103 457 103 c 0,15,16
 482 103 482 103 482 78 c 128,-1,17
 482 53 482 53 433 22.5 c 128,-1,18
 384 -8 384 -8 325 -14 c 1,19,-1
 327 -84 l 1,20,21
 327 -135 327 -135 292 -135 c 128,-1,22
 257 -135 257 -135 257 -84 c 0,23,24
 257 -47 257 -47 258 -11 c 1,25,26
 169 5 169 5 113 78.5 c 128,-1,27
 57 152 57 152 57 249 c 128,-1,28
 57 346 57 346 111.5 419 c 128,-1,29
 166 492 166 492 259 510 c 1,30,31
 258 552 258 552 258 598.5 c 128,-1,32
 258 645 258 645 292 645 c 128,-1,33
 326 645 326 645 326 594 c 1,0,-1
260 58 m 1,34,35
 262 168 262 168 262 232.5 c 128,-1,36
 262 297 262 297 261.5 358.5 c 128,-1,37
 261 420 261 420 261 443 c 1,38,39
 206 426 206 426 169 373 c 128,-1,40
 132 320 132 320 132 252 c 128,-1,41
 132 184 132 184 167.5 130.5 c 128,-1,42
 203 77 203 77 260 58 c 1,34,35
EndSplineSet
EndChar

StartChar: sterling
Encoding: 163 163 101
Width: 536
GlyphClass: 2
Flags: W
LayerCount: 2
Fore
SplineSet
365 321 m 2,0,-1
 215 324 l 1,1,2
 217 284 217 284 216.5 253 c 128,-1,3
 216 222 216 222 205.5 184.5 c 128,-1,4
 195 147 195 147 184.5 125 c 128,-1,5
 174 103 174 103 153 65 c 1,6,7
 186 64 186 64 253.5 64 c 128,-1,8
 321 64 321 64 374.5 67.5 c 128,-1,9
 428 71 428 71 442.5 71 c 128,-1,10
 457 71 457 71 470.5 61 c 128,-1,11
 484 51 484 51 484 33 c 128,-1,12
 484 15 484 15 470.5 5 c 128,-1,13
 457 -5 457 -5 434 -5 c 2,14,-1
 283 0 l 1,15,-1
 121 -5 l 2,16,17
 98 -5 98 -5 84 8 c 128,-1,18
 70 21 70 21 70 42.5 c 128,-1,19
 70 64 70 64 89.5 94.5 c 128,-1,20
 109 125 109 125 129 168.5 c 128,-1,21
 149 212 149 212 149.5 249 c 128,-1,22
 150 286 150 286 148 322 c 1,23,-1
 101 321 l 2,24,25
 83 321 83 321 71.5 330 c 128,-1,26
 60 339 60 339 60 354 c 128,-1,27
 60 369 60 369 71.5 378 c 128,-1,28
 83 387 83 387 93 387 c 128,-1,29
 103 387 103 387 115.5 386.5 c 128,-1,30
 128 386 128 386 138 386 c 1,31,32
 135 400 135 400 126 440 c 0,33,34
 109 514 109 514 109 549 c 0,35,36
 109 619 109 619 159.5 667 c 128,-1,37
 210 715 210 715 301 715 c 0,38,39
 355 715 355 715 405.5 687 c 128,-1,40
 456 659 456 659 457 629 c 0,41,42
 457 618 457 618 449 608 c 128,-1,43
 441 598 441 598 425.5 598 c 128,-1,44
 410 598 410 598 372 623.5 c 128,-1,45
 334 649 334 649 288 649 c 128,-1,46
 242 649 242 649 211.5 623 c 128,-1,47
 181 597 181 597 181 553 c 128,-1,48
 181 509 181 509 206 384 c 1,49,-1
 365 387 l 2,50,51
 383 387 383 387 394.5 378 c 128,-1,52
 406 369 406 369 406 354 c 128,-1,53
 406 339 406 339 394.5 330 c 128,-1,54
 383 321 383 321 365 321 c 2,0,-1
EndSplineSet
EndChar

StartChar: currency
Encoding: 164 164 102
Width: 641
GlyphClass: 2
Flags: W
LayerCount: 2
Fore
SplineSet
498 413 m 1,0,1
 529 359 529 359 529 292.5 c 128,-1,2
 529 226 529 226 498 172 c 1,3,-1
 558 115 l 2,4,5
 578 97 578 97 578 80.5 c 128,-1,6
 578 64 578 64 567 53 c 128,-1,7
 556 42 556 42 541.5 42 c 128,-1,8
 527 42 527 42 511 56.5 c 128,-1,9
 495 71 495 71 453 116 c 1,10,11
 397 68 397 68 320 68 c 128,-1,12
 243 68 243 68 188 117 c 1,13,-1
 135 62 l 1,14,15
 113 43 113 43 98 43 c 128,-1,16
 83 43 83 43 72.5 53.5 c 128,-1,17
 62 64 62 64 62 80.5 c 128,-1,18
 62 97 62 97 82 115 c 2,19,-1
 143 174 l 1,20,21
 114 226 114 226 114 291 c 128,-1,22
 114 356 114 356 144 410 c 1,23,24
 88 464 88 464 82 471 c 0,25,26
 62 493 62 493 62 507.5 c 128,-1,27
 62 522 62 522 73 533 c 128,-1,28
 84 544 84 544 100.5 544 c 128,-1,29
 117 544 117 544 135 524 c 2,30,-1
 190 467 l 1,31,32
 246 515 246 515 320.5 515 c 128,-1,33
 395 515 395 515 452 468 c 1,34,-1
 505 524 l 1,35,36
 527 543 527 543 542 543 c 128,-1,37
 557 543 557 543 567.5 532.5 c 128,-1,38
 578 522 578 522 578 505.5 c 128,-1,39
 578 489 578 489 558 471 c 1,40,41
 529 442 529 442 498 413 c 1,0,1
419.5 181 m 128,-1,43
 461 228 461 228 461 293.5 c 128,-1,44
 461 359 461 359 421.5 404.5 c 128,-1,45
 382 450 382 450 324 450 c 128,-1,46
 266 450 266 450 224.5 403 c 128,-1,47
 183 356 183 356 183 290.5 c 128,-1,48
 183 225 183 225 222.5 179.5 c 128,-1,49
 262 134 262 134 320 134 c 128,-1,42
 378 134 378 134 419.5 181 c 128,-1,43
EndSplineSet
EndChar

StartChar: yen
Encoding: 165 165 103
Width: 585
GlyphClass: 2
Flags: W
LayerCount: 2
Fore
SplineSet
326 225 m 1,0,-1
 472 228 l 2,1,2
 490 228 490 228 501.5 219.5 c 128,-1,3
 513 211 513 211 513 196 c 128,-1,4
 513 181 513 181 501.5 172.5 c 128,-1,5
 490 164 490 164 457.5 164 c 128,-1,6
 425 164 425 164 326 167 c 1,7,-1
 329 40 l 1,8,9
 329 -10 329 -10 290 -10 c 128,-1,10
 251 -10 251 -10 251 40 c 1,11,-1
 255 167 l 1,12,13
 162 164 162 164 131 164 c 128,-1,14
 100 164 100 164 88.5 172.5 c 128,-1,15
 77 181 77 181 77 196 c 128,-1,16
 77 211 77 211 88.5 219.5 c 128,-1,17
 100 228 100 228 118 228 c 2,18,-1
 255 225 l 1,19,-1
 255 304 l 1,20,21
 162 301 162 301 131 301 c 128,-1,22
 100 301 100 301 88.5 309.5 c 128,-1,23
 77 318 77 318 77 333 c 128,-1,24
 77 348 77 348 88.5 356.5 c 128,-1,25
 100 365 100 365 113 365 c 0,26,27
 151 365 151 365 226 362 c 1,28,-1
 144 507 l 1,29,30
 101 581 101 581 86.5 605.5 c 128,-1,31
 72 630 72 630 64 644 c 1,32,33
 53 667 53 667 53 681.5 c 128,-1,34
 53 696 53 696 63 705.5 c 128,-1,35
 73 715 73 715 84.5 715 c 128,-1,36
 96 715 96 715 102.5 712.5 c 128,-1,37
 109 710 109 710 115.5 702.5 c 128,-1,38
 122 695 122 695 127 688 c 128,-1,39
 132 681 132 681 140 667 c 128,-1,40
 148 653 148 653 153 642 c 128,-1,41
 158 631 158 631 168.5 610 c 128,-1,42
 179 589 179 589 221 504.5 c 128,-1,43
 263 420 263 420 293 373 c 1,44,45
 319 412 319 412 386 548 c 128,-1,46
 453 684 453 684 464 699.5 c 128,-1,47
 475 715 475 715 491.5 715 c 128,-1,48
 508 715 508 715 518.5 705.5 c 128,-1,49
 529 696 529 696 529 687.5 c 128,-1,50
 529 679 529 679 528.5 675.5 c 128,-1,51
 528 672 528 672 527 668 c 128,-1,52
 526 664 526 664 522.5 657.5 c 128,-1,53
 519 651 519 651 515.5 644.5 c 128,-1,54
 512 638 512 638 504.5 625.5 c 128,-1,55
 497 613 497 613 489.5 600 c 128,-1,56
 482 587 482 587 469 564.5 c 128,-1,57
 456 542 456 542 443 519 c 2,58,-1
 354 362 l 1,59,60
 435 365 435 365 462.5 365 c 128,-1,61
 490 365 490 365 501.5 356.5 c 128,-1,62
 513 348 513 348 513 333 c 128,-1,63
 513 318 513 318 501.5 309.5 c 128,-1,64
 490 301 490 301 456 301 c 128,-1,65
 422 301 422 301 326 304 c 1,66,-1
 326 225 l 1,0,-1
EndSplineSet
EndChar

StartChar: brokenbar
Encoding: 166 166 104
Width: 232
GlyphClass: 2
Flags: W
LayerCount: 2
Fore
SplineSet
146 533 m 1,0,-1
 151 385 l 2,1,2
 151 364 151 364 141.5 351.5 c 128,-1,3
 132 339 132 339 115 339 c 0,4,5
 81 339 81 339 81 385 c 1,6,-1
 86 533 l 1,7,8
 86 533 86 533 82 684 c 1,9,10
 82 727 82 727 115 727 c 0,11,12
 150 727 150 727 150 684 c 1,13,-1
 146 533 l 1,0,-1
146 -36 m 1,14,-1
 151 -184 l 2,15,16
 151 -205 151 -205 141.5 -217.5 c 128,-1,17
 132 -230 132 -230 115 -230 c 0,18,19
 81 -230 81 -230 81 -184 c 1,20,-1
 86 -36 l 1,21,-1
 82 115 l 1,22,23
 82 158 82 158 115 158 c 0,24,25
 150 158 150 158 150 115 c 1,26,-1
 146 -36 l 1,14,-1
EndSplineSet
EndChar

StartChar: section
Encoding: 167 167 105
Width: 536
GlyphClass: 2
Flags: W
LayerCount: 2
Fore
SplineSet
453.5 343.5 m 128,-1,1
 485 302 485 302 485 251.5 c 128,-1,2
 485 201 485 201 457 157 c 128,-1,3
 429 113 429 113 383 88 c 1,4,5
 449 27 449 27 449 -48 c 128,-1,6
 449 -123 449 -123 388.5 -179 c 128,-1,7
 328 -235 328 -235 236 -235 c 0,8,9
 171 -235 171 -235 112.5 -202 c 128,-1,10
 54 -169 54 -169 54 -136 c 0,11,12
 54 -122 54 -122 62.5 -114 c 128,-1,13
 71 -106 71 -106 84 -106 c 128,-1,14
 97 -106 97 -106 111 -116 c 128,-1,15
 125 -126 125 -126 137.5 -137.5 c 128,-1,16
 150 -149 150 -149 176.5 -159 c 128,-1,17
 203 -169 203 -169 236 -169 c 0,18,19
 292 -169 292 -169 330.5 -135 c 128,-1,20
 369 -101 369 -101 369 -47 c 0,21,22
 369 -10 369 -10 337.5 25 c 128,-1,23
 306 60 306 60 261.5 88.5 c 128,-1,24
 217 117 217 117 172.5 146.5 c 128,-1,25
 128 176 128 176 96.5 215 c 128,-1,26
 65 254 65 254 65 304.5 c 128,-1,27
 65 355 65 355 102 396 c 128,-1,28
 139 437 139 437 201 451 c 1,29,30
 101 531 101 531 101 601 c 128,-1,31
 101 671 101 671 153.5 718 c 128,-1,32
 206 765 206 765 277 765 c 128,-1,33
 348 765 348 765 396 742 c 128,-1,34
 444 719 444 719 444 688 c 0,35,36
 444 676 444 676 436 668 c 128,-1,37
 428 660 428 660 416 660 c 128,-1,38
 404 660 404 660 388 670 c 0,39,40
 340 699 340 699 291.5 699 c 128,-1,41
 243 699 243 699 212 673.5 c 128,-1,42
 181 648 181 648 181 609 c 128,-1,43
 181 570 181 570 212.5 536 c 128,-1,44
 244 502 244 502 288.5 473.5 c 128,-1,45
 333 445 333 445 377.5 415 c 128,-1,0
 422 385 422 385 453.5 343.5 c 128,-1,1
387.5 177.5 m 128,-1,47
 411 211 411 211 411 256 c 128,-1,48
 411 301 411 301 356 346 c 128,-1,49
 301 391 301 391 252 391 c 128,-1,50
 203 391 203 391 171 366 c 128,-1,51
 139 341 139 341 139 302 c 0,52,53
 139 266 139 266 180 231 c 0,54,55
 209 207 209 207 257.5 175 c 128,-1,56
 306 143 306 143 325 130 c 1,57,46
 364 144 364 144 387.5 177.5 c 128,-1,47
EndSplineSet
EndChar

StartChar: dieresis
Encoding: 168 168 106
Width: 391
GlyphClass: 2
Flags: W
LayerCount: 2
Fore
SplineSet
151 711.5 m 128,-1,1
 161 698 161 698 161 677.5 c 128,-1,2
 161 657 161 657 147 636.5 c 128,-1,3
 133 616 133 616 112 616 c 128,-1,4
 91 616 91 616 80.5 630 c 128,-1,5
 70 644 70 644 70 667 c 128,-1,6
 70 690 70 690 84.5 707.5 c 128,-1,7
 99 725 99 725 120 725 c 128,-1,0
 141 725 141 725 151 711.5 c 128,-1,1
311 711.5 m 128,-1,9
 321 698 321 698 321 677.5 c 128,-1,10
 321 657 321 657 307 636.5 c 128,-1,11
 293 616 293 616 272 616 c 128,-1,12
 251 616 251 616 240.5 630 c 128,-1,13
 230 644 230 644 230 667 c 128,-1,14
 230 690 230 690 244.5 707.5 c 128,-1,15
 259 725 259 725 280 725 c 128,-1,8
 301 725 301 725 311 711.5 c 128,-1,9
EndSplineSet
EndChar

StartChar: copyright
Encoding: 169 169 107
Width: 756
GlyphClass: 2
Flags: W
LayerCount: 2
Fore
SplineSet
383 635 m 0,0,1
 425 635 425 635 460 618.5 c 128,-1,2
 495 602 495 602 495 580 c 0,3,4
 495 552 495 552 468 552 c 0,5,6
 460 552 460 552 435.5 566 c 128,-1,7
 411 580 411 580 388 580 c 0,8,9
 330 580 330 580 297.5 538.5 c 128,-1,10
 265 497 265 497 265 440 c 128,-1,11
 265 383 265 383 300.5 343 c 128,-1,12
 336 303 336 303 388 303 c 0,13,14
 416 303 416 303 446 315.5 c 128,-1,15
 476 328 476 328 482 328 c 0,16,17
 504 328 504 328 504 305 c 0,18,19
 504 289 504 289 469 268.5 c 128,-1,20
 434 248 434 248 383 248 c 0,21,22
 307 248 307 248 255.5 305 c 128,-1,23
 204 362 204 362 204 442 c 128,-1,24
 204 522 204 522 254 578.5 c 128,-1,25
 304 635 304 635 383 635 c 0,0,1
692 442 m 128,-1,27
 692 310 692 310 600 217 c 128,-1,28
 508 124 508 124 378 124 c 128,-1,29
 248 124 248 124 156 217 c 128,-1,30
 64 310 64 310 64 442 c 128,-1,31
 64 574 64 574 156 667 c 128,-1,32
 248 760 248 760 378 760 c 128,-1,33
 508 760 508 760 600 667 c 128,-1,26
 692 574 692 574 692 442 c 128,-1,27
631 442 m 128,-1,35
 631 552 631 552 556.5 629.5 c 128,-1,36
 482 707 482 707 377 707 c 128,-1,37
 272 707 272 707 198 629.5 c 128,-1,38
 124 552 124 552 124 442 c 128,-1,39
 124 332 124 332 198 254.5 c 128,-1,40
 272 177 272 177 377 177 c 128,-1,41
 482 177 482 177 556.5 254.5 c 128,-1,34
 631 332 631 332 631 442 c 128,-1,35
EndSplineSet
EndChar

StartChar: ordfeminine
Encoding: 170 170 108
Width: 410
GlyphClass: 2
Flags: W
LayerCount: 2
Fore
SplineSet
318 546 m 1,0,1
 318 524 318 524 324 490 c 0,2,3
 330 450 330 450 348 446 c 0,4,5
 352 445 352 445 355 444 c 0,6,7
 362 443 362 443 362 439 c 0,8,9
 362 418 362 418 349.5 405 c 128,-1,10
 337 392 337 392 316 392 c 0,11,12
 277 392 277 392 269 472 c 1,13,14
 256 439 256 439 226.5 415.5 c 128,-1,15
 197 392 197 392 162 392 c 0,16,17
 108 392 108 392 77.5 439 c 128,-1,18
 47 486 47 486 47 548.5 c 128,-1,19
 47 611 47 611 87 660.5 c 128,-1,20
 127 710 127 710 188 710 c 0,21,22
 232 710 232 710 264 678 c 1,23,24
 269 710 269 710 297 710 c 0,25,26
 330 710 330 710 330 653 c 0,27,28
 330 644 330 644 318 546 c 1,0,1
266 550 m 1,29,-1
 263 623 l 1,30,31
 231 655 231 655 193 655 c 128,-1,32
 155 655 155 655 130 623.5 c 128,-1,33
 105 592 105 592 105 547.5 c 128,-1,34
 105 503 105 503 121.5 474 c 128,-1,35
 138 445 138 445 166.5 445 c 128,-1,36
 195 445 195 445 224 476.5 c 128,-1,37
 253 508 253 508 266 550 c 1,29,-1
EndSplineSet
EndChar

StartChar: guillemotleft
Encoding: 171 171 109
Width: 507
GlyphClass: 2
Flags: W
LayerCount: 2
Fore
SplineSet
51 327 m 128,-1,1
 44 338 44 338 44 350.5 c 128,-1,2
 44 363 44 363 52 374 c 128,-1,3
 60 385 60 385 86 408.5 c 128,-1,4
 112 432 112 432 123 443 c 128,-1,5
 134 454 134 454 148.5 470 c 128,-1,6
 163 486 163 486 170 492 c 0,7,8
 187 510 187 510 202.5 510 c 128,-1,9
 218 510 218 510 227 500.5 c 128,-1,10
 236 491 236 491 236 477.5 c 128,-1,11
 236 464 236 464 226.5 454 c 128,-1,12
 217 444 217 444 196.5 429.5 c 128,-1,13
 176 415 176 415 166 406 c 0,14,15
 118 363 118 363 118 349 c 128,-1,16
 118 335 118 335 166 292 c 0,17,18
 176 283 176 283 196.5 268.5 c 128,-1,19
 217 254 217 254 226.5 244 c 128,-1,20
 236 234 236 234 236 220.5 c 128,-1,21
 236 207 236 207 227 197.5 c 128,-1,22
 218 188 218 188 206.5 188 c 128,-1,23
 195 188 195 188 185.5 193.5 c 128,-1,24
 176 199 176 199 169.5 205.5 c 128,-1,25
 163 212 163 212 148.5 228 c 128,-1,26
 134 244 134 244 122.5 255.5 c 128,-1,27
 111 267 111 267 93 283.5 c 128,-1,28
 75 300 75 300 66.5 308 c 128,-1,0
 58 316 58 316 51 327 c 128,-1,1
260 327 m 128,-1,30
 253 338 253 338 253 350.5 c 128,-1,31
 253 363 253 363 261 374 c 128,-1,32
 269 385 269 385 295 408.5 c 128,-1,33
 321 432 321 432 332 443 c 128,-1,34
 343 454 343 454 357.5 470 c 128,-1,35
 372 486 372 486 378 492 c 0,36,37
 396 510 396 510 411.5 510 c 128,-1,38
 427 510 427 510 436 500.5 c 128,-1,39
 445 491 445 491 445 477.5 c 128,-1,40
 445 464 445 464 435.5 454 c 128,-1,41
 426 444 426 444 405.5 429.5 c 128,-1,42
 385 415 385 415 375 406 c 0,43,44
 327 363 327 363 327 349 c 128,-1,45
 327 335 327 335 375 292 c 0,46,47
 385 283 385 283 405.5 268.5 c 128,-1,48
 426 254 426 254 435.5 244 c 128,-1,49
 445 234 445 234 445 220.5 c 128,-1,50
 445 207 445 207 436 197.5 c 128,-1,51
 427 188 427 188 415.5 188 c 128,-1,52
 404 188 404 188 394.5 193.5 c 128,-1,53
 385 199 385 199 378.5 205.5 c 128,-1,54
 372 212 372 212 357.5 228 c 128,-1,55
 343 244 343 244 331.5 255.5 c 128,-1,56
 320 267 320 267 302 283.5 c 128,-1,57
 284 300 284 300 275.5 308 c 128,-1,29
 267 316 267 316 260 327 c 128,-1,30
EndSplineSet
EndChar

StartChar: logicalnot
Encoding: 172 172 110
Width: 634
GlyphClass: 2
Flags: W
LayerCount: 2
Fore
SplineSet
554 191 m 1,0,-1
 556 131 l 2,1,2
 556 113 556 113 546 101.5 c 128,-1,3
 536 90 536 90 521 90 c 128,-1,4
 506 90 506 90 496 101.5 c 128,-1,5
 486 113 486 113 486 131 c 2,6,-1
 489 191 l 1,7,-1
 489 229 l 1,8,9
 411 231 411 231 316 231 c 1,10,-1
 119 228 l 2,11,12
 100 228 100 228 89 237 c 128,-1,13
 78 246 78 246 78 261 c 128,-1,14
 78 276 78 276 89 285 c 128,-1,15
 100 294 100 294 119 294 c 2,16,-1
 316 291 l 1,17,-1
 513 294 l 2,18,19
 556 294 556 294 556 251 c 1,20,-1
 554 191 l 1,0,-1
EndSplineSet
EndChar

StartChar: uni00AD
Encoding: 173 173 111
Width: 428
GlyphClass: 2
Flags: W
LayerCount: 2
Fore
SplineSet
214 291 m 1,0,-1
 321 294 l 2,1,2
 339 294 339 294 350.5 285 c 128,-1,3
 362 276 362 276 362 261 c 128,-1,4
 362 246 362 246 350.5 237 c 128,-1,5
 339 228 339 228 321 228 c 2,6,-1
 214 231 l 1,7,-1
 107 228 l 2,8,9
 89 228 89 228 77.5 237 c 128,-1,10
 66 246 66 246 66 261 c 128,-1,11
 66 276 66 276 77.5 285 c 128,-1,12
 89 294 89 294 107 294 c 2,13,-1
 214 291 l 1,0,-1
EndSplineSet
EndChar

StartChar: registered
Encoding: 174 174 112
Width: 756
GlyphClass: 2
Flags: W
LayerCount: 2
Fore
SplineSet
692 442 m 128,-1,1
 692 310 692 310 600 217 c 128,-1,2
 508 124 508 124 378 124 c 128,-1,3
 248 124 248 124 156 217 c 128,-1,4
 64 310 64 310 64 442 c 128,-1,5
 64 574 64 574 156 667 c 128,-1,6
 248 760 248 760 378 760 c 128,-1,7
 508 760 508 760 600 667 c 128,-1,0
 692 574 692 574 692 442 c 128,-1,1
631 442 m 128,-1,9
 631 552 631 552 556.5 629.5 c 128,-1,10
 482 707 482 707 377 707 c 128,-1,11
 272 707 272 707 198 629.5 c 128,-1,12
 124 552 124 552 124 442 c 128,-1,13
 124 332 124 332 198 254.5 c 128,-1,14
 272 177 272 177 377 177 c 128,-1,15
 482 177 482 177 556.5 254.5 c 128,-1,8
 631 332 631 332 631 442 c 128,-1,9
246 459 m 1,16,-1
 241 596 l 1,17,18
 241 643 241 643 364 643 c 0,19,20
 436 643 436 643 473.5 607 c 128,-1,21
 511 571 511 571 511 526 c 0,22,23
 511 454 511 454 430 416 c 1,24,25
 440 400 440 400 448 384 c 1,26,27
 465 355 465 355 477 340 c 1,28,29
 494 315 494 315 519 315 c 0,30,31
 526 315 526 315 526 310 c 0,32,33
 526 291 526 291 513.5 277.5 c 128,-1,34
 501 264 501 264 484.5 264 c 128,-1,35
 468 264 468 264 453.5 277.5 c 128,-1,36
 439 291 439 291 429.5 307 c 128,-1,37
 420 323 420 323 403 353.5 c 128,-1,38
 386 384 386 384 374 403 c 1,39,40
 350 399 350 399 337.5 399 c 128,-1,41
 325 399 325 399 301 403 c 1,42,43
 304 331 304 331 304 308.5 c 128,-1,44
 304 286 304 286 295 274.5 c 128,-1,45
 286 263 286 263 272 263 c 0,46,47
 242 263 242 263 242 301 c 2,48,-1
 246 459 l 1,16,-1
433.5 480 m 128,-1,50
 452 499 452 499 452 525 c 128,-1,51
 452 551 452 551 431.5 570 c 128,-1,52
 411 589 411 589 370.5 589 c 128,-1,53
 330 589 330 589 301 580 c 1,54,55
 301 568 301 568 299.5 527 c 128,-1,56
 298 486 298 486 298 463 c 1,57,58
 318 472 318 472 341 472 c 128,-1,59
 364 472 364 472 396 461 c 1,60,49
 415 461 415 461 433.5 480 c 128,-1,50
EndSplineSet
EndChar

StartChar: macron
Encoding: 175 175 113
Width: 436
GlyphClass: 2
Flags: W
LayerCount: 2
Fore
SplineSet
218 700 m 1,0,-1
 345 703 l 2,1,2
 363 703 363 703 374.5 694 c 128,-1,3
 386 685 386 685 386 670 c 128,-1,4
 386 655 386 655 374.5 646 c 128,-1,5
 363 637 363 637 345 637 c 2,6,-1
 218 640 l 1,7,-1
 91 637 l 2,8,9
 73 637 73 637 61.5 646 c 128,-1,10
 50 655 50 655 50 670 c 128,-1,11
 50 685 50 685 61.5 694 c 128,-1,12
 73 703 73 703 91 703 c 2,13,-1
 218 700 l 1,0,-1
EndSplineSet
EndChar

StartChar: degree
Encoding: 176 176 114
Width: 334
GlyphClass: 2
Flags: W
LayerCount: 2
Fore
SplineSet
285 569 m 128,-1,1
 285 507 285 507 252.5 465 c 128,-1,2
 220 423 220 423 167 423 c 128,-1,3
 114 423 114 423 81.5 465 c 128,-1,4
 49 507 49 507 49 569 c 128,-1,5
 49 631 49 631 81.5 673 c 128,-1,6
 114 715 114 715 167 715 c 128,-1,7
 220 715 220 715 252.5 673 c 128,-1,0
 285 631 285 631 285 569 c 128,-1,1
225 569 m 128,-1,9
 225 609 225 609 210 634.5 c 128,-1,10
 195 660 195 660 167.5 660 c 128,-1,11
 140 660 140 660 124.5 634 c 128,-1,12
 109 608 109 608 109 569 c 128,-1,13
 109 530 109 530 124.5 504 c 128,-1,14
 140 478 140 478 167.5 478 c 128,-1,15
 195 478 195 478 210 503.5 c 128,-1,8
 225 529 225 529 225 569 c 128,-1,9
EndSplineSet
EndChar

StartChar: plusminus
Encoding: 177 177 115
Width: 570
GlyphClass: 2
Flags: W
LayerCount: 2
Fore
SplineSet
285 60 m 1,0,-1
 462 63 l 2,1,2
 480 63 480 63 491.5 54 c 128,-1,3
 503 45 503 45 503 30 c 128,-1,4
 503 15 503 15 491.5 6 c 128,-1,5
 480 -3 480 -3 462 -3 c 2,6,-1
 285 0 l 1,7,-1
 108 -3 l 2,8,9
 90 -3 90 -3 78.5 6 c 128,-1,10
 67 15 67 15 67 30 c 128,-1,11
 67 45 67 45 78.5 54 c 128,-1,12
 90 63 90 63 108 63 c 2,13,14
 108 63 108 63 285 60 c 1,0,-1
316 356 m 1,15,-1
 462 359 l 2,16,17
 480 359 480 359 491.5 350 c 128,-1,18
 503 341 503 341 503 326 c 128,-1,19
 503 311 503 311 491.5 302 c 128,-1,20
 480 293 480 293 462 293 c 0,21,22
 412 293 412 293 316 296 c 1,23,-1
 320 169 l 2,24,25
 320 150 320 150 310.5 139 c 128,-1,26
 301 128 301 128 285 128 c 0,27,28
 252 128 252 128 252 169 c 0,29,30
 252 172 252 172 256 296 c 1,31,32
 154 293 154 293 122 293 c 128,-1,33
 90 293 90 293 78.5 302 c 128,-1,34
 67 311 67 311 67 326 c 128,-1,35
 67 341 67 341 78.5 350 c 128,-1,36
 90 359 90 359 108 359 c 2,37,-1
 256 356 l 1,38,39
 252 464 252 464 252 469 c 0,40,41
 252 510 252 510 285 510 c 0,42,43
 301 510 301 510 310.5 499 c 128,-1,44
 320 488 320 488 320 476 c 128,-1,45
 320 464 320 464 316 356 c 1,15,-1
EndSplineSet
EndChar

StartChar: twosuperior
Encoding: 178 178 116
Width: 374
GlyphClass: 2
Flags: W
LayerCount: 2
Fore
SplineSet
181 393 m 1,0,-1
 284 398 l 1,1,2
 326 398 326 398 326 366 c 128,-1,3
 326 334 326 334 284 334 c 1,4,-1
 182 338 l 1,5,6
 182 338 182 338 89 334 c 0,7,8
 73 334 73 334 61 343.5 c 128,-1,9
 49 353 49 353 49 369 c 128,-1,10
 49 385 49 385 57.5 400.5 c 128,-1,11
 66 416 66 416 78 430 c 0,12,13
 235 606 235 606 235 656 c 0,14,15
 235 678 235 678 220.5 692 c 128,-1,16
 206 706 206 706 179 706 c 128,-1,17
 152 706 152 706 128.5 683.5 c 128,-1,18
 105 661 105 661 91 661 c 128,-1,19
 77 661 77 661 69.5 669 c 128,-1,20
 62 677 62 677 62 690 c 0,21,22
 62 712 62 712 97 738.5 c 128,-1,23
 132 765 132 765 185 765 c 128,-1,24
 238 765 238 765 269 734 c 128,-1,25
 300 703 300 703 300 664 c 0,26,27
 300 637 300 637 291 618.5 c 128,-1,28
 282 600 282 600 277.5 590.5 c 128,-1,29
 273 581 273 581 262.5 565.5 c 128,-1,30
 252 550 252 550 247.5 544 c 128,-1,31
 243 538 243 538 230.5 521.5 c 128,-1,32
 218 505 218 505 209 492.5 c 128,-1,33
 200 480 200 480 168.5 442 c 128,-1,34
 137 404 137 404 130 393 c 1,35,-1
 181 393 l 1,0,-1
EndSplineSet
EndChar

StartChar: threesuperior
Encoding: 179 179 117
Width: 370
GlyphClass: 2
Flags: W
LayerCount: 2
Fore
SplineSet
176 763 m 1,0,-1
 249 765 l 1,1,2
 303 765 303 765 303 728 c 0,3,4
 303 716 303 716 292.5 703 c 128,-1,5
 282 690 282 690 255.5 663 c 128,-1,6
 229 636 229 636 207 609 c 1,7,8
 262 597 262 597 293 560.5 c 128,-1,9
 324 524 324 524 324 472 c 128,-1,10
 324 420 324 420 284 377 c 128,-1,11
 244 334 244 334 176 334 c 0,12,13
 128 334 128 334 88 364 c 128,-1,14
 48 394 48 394 48 419.5 c 128,-1,15
 48 445 48 445 72 445 c 0,16,17
 84 445 84 445 97 432 c 0,18,19
 137 394 137 394 177 394 c 128,-1,20
 217 394 217 394 239 417 c 128,-1,21
 261 440 261 440 261 477 c 128,-1,22
 261 514 261 514 235.5 538.5 c 128,-1,23
 210 563 210 563 173 565 c 1,24,25
 141 532 141 532 118 532 c 0,26,27
 82 532 82 532 82 566 c 0,28,29
 82 580 82 580 97 593.5 c 128,-1,30
 112 607 112 607 142 613 c 1,31,32
 180 653 180 653 225 704 c 1,33,34
 180 707 180 707 166 707 c 2,35,-1
 95 704 l 1,36,37
 56 704 56 704 56 733 c 0,38,39
 56 747 56 747 66.5 756 c 128,-1,40
 77 765 77 765 95 765 c 2,41,-1
 176 763 l 1,0,-1
EndSplineSet
EndChar

StartChar: acute
Encoding: 180 180 118
Width: 285
GlyphClass: 2
Flags: W
LayerCount: 2
Fore
SplineSet
215 722 m 0,0,1
 215 679 215 679 169.5 636 c 128,-1,2
 124 593 124 593 97 593 c 128,-1,3
 70 593 70 593 70 614 c 0,4,5
 70 626 70 626 86 644 c 128,-1,6
 102 662 102 662 109.5 671.5 c 128,-1,7
 117 681 117 681 127.5 706.5 c 128,-1,8
 138 732 138 732 149.5 746 c 128,-1,9
 161 760 161 760 179 760 c 128,-1,10
 197 760 197 760 206 748.5 c 128,-1,11
 215 737 215 737 215 722 c 0,0,1
EndSplineSet
EndChar

StartChar: mu
Encoding: 181 181 119
Width: 611
GlyphClass: 2
Flags: W
LayerCount: 2
Fore
SplineSet
163 40 m 1,0,-1
 170 -179 l 2,1,2
 170 -202 170 -202 159.5 -216 c 128,-1,3
 149 -230 149 -230 131 -230 c 128,-1,4
 113 -230 113 -230 102.5 -216 c 128,-1,5
 92 -202 92 -202 92 -179 c 2,6,-1
 98 170 l 1,7,8
 83 376 83 376 83 434 c 0,9,10
 83 509 83 509 129 509 c 0,11,12
 169 509 169 509 169 448 c 0,13,14
 169 438 169 438 168 407 c 0,15,16
 164 335 164 335 164 189 c 0,17,18
 164 130 164 130 194 93 c 128,-1,19
 224 56 224 56 274 56 c 128,-1,20
 324 56 324 56 372 113 c 128,-1,21
 420 170 420 170 439 242 c 1,22,-1
 436 459 l 2,23,24
 436 510 436 510 474 510 c 0,25,26
 520 510 520 510 520 439.5 c 128,-1,27
 520 369 520 369 500 242 c 1,28,29
 500 167 500 167 511 119.5 c 128,-1,30
 522 72 522 72 537 66 c 0,31,32
 543 63 543 63 551.5 62 c 128,-1,33
 560 61 560 61 563.5 59 c 128,-1,34
 567 57 567 57 567 51 c 0,35,36
 567 24 567 24 550.5 7 c 128,-1,37
 534 -10 534 -10 509 -10 c 0,38,39
 446 -10 446 -10 446 118 c 1,40,41
 418 70 418 70 372 30 c 128,-1,42
 326 -10 326 -10 269.5 -10 c 128,-1,43
 213 -10 213 -10 163 40 c 1,0,-1
EndSplineSet
EndChar

StartChar: paragraph
Encoding: 182 182 120
Width: 628
GlyphClass: 2
Flags: W
LayerCount: 2
Fore
SplineSet
526 709 m 2,0,-1
 521 265 l 1,1,2
 521 85 521 85 524 -41 c 128,-1,3
 527 -167 527 -167 527 -184.5 c 128,-1,4
 527 -202 527 -202 516.5 -216 c 128,-1,5
 506 -230 506 -230 488 -230 c 128,-1,6
 470 -230 470 -230 459.5 -216 c 128,-1,7
 449 -202 449 -202 449 -184.5 c 128,-1,8
 449 -167 449 -167 450 -104 c 0,9,10
 455 85 455 85 455 265 c 1,11,-1
 450 695 l 1,12,13
 416 697 416 697 391 697 c 128,-1,14
 366 697 366 697 332 695 c 1,15,16
 327 415 327 415 327 288.5 c 128,-1,17
 327 162 327 162 328.5 60.5 c 128,-1,18
 330 -41 330 -41 331.5 -104 c 128,-1,19
 333 -167 333 -167 333 -179 c 0,20,21
 333 -230 333 -230 294 -230 c 128,-1,22
 255 -230 255 -230 255 -179 c 0,23,24
 255 -167 255 -167 256 -104 c 0,25,26
 261 85 261 85 261 265 c 2,27,-1
 261 328 l 1,28,29
 166 332 166 332 105 390.5 c 128,-1,30
 44 449 44 449 44 533 c 0,31,32
 44 639 44 639 109.5 698.5 c 128,-1,33
 175 758 175 758 290 760 c 1,34,-1
 391 757 l 1,35,-1
 478 760 l 2,36,37
 500 760 500 760 513 746 c 128,-1,38
 526 732 526 732 526 709 c 2,0,-1
EndSplineSet
EndChar

StartChar: periodcentered
Encoding: 183 183 121
Width: 222
GlyphClass: 2
Flags: W
LayerCount: 2
Fore
SplineSet
147 299.5 m 128,-1,1
 158 284 158 284 158 260.5 c 128,-1,2
 158 237 158 237 143.5 217.5 c 128,-1,3
 129 198 129 198 108 198 c 128,-1,4
 87 198 87 198 75.5 214 c 128,-1,5
 64 230 64 230 64 253.5 c 128,-1,6
 64 277 64 277 78.5 296 c 128,-1,7
 93 315 93 315 114.5 315 c 128,-1,0
 136 315 136 315 147 299.5 c 128,-1,1
EndSplineSet
EndChar

StartChar: cedilla
Encoding: 184 184 122
Width: 331
GlyphClass: 2
Flags: W
LayerCount: 2
Fore
SplineSet
271 -137 m 0,0,1
 271 -177 271 -177 236 -203.5 c 128,-1,2
 201 -230 201 -230 152 -230 c 128,-1,3
 103 -230 103 -230 73 -207 c 128,-1,4
 43 -184 43 -184 43 -160 c 0,5,6
 43 -153 43 -153 48 -147 c 128,-1,7
 53 -141 53 -141 61 -141 c 128,-1,8
 69 -141 69 -141 95.5 -153.5 c 128,-1,9
 122 -166 122 -166 144.5 -166 c 128,-1,10
 167 -166 167 -166 182.5 -157 c 128,-1,11
 198 -148 198 -148 198 -136 c 128,-1,12
 198 -124 198 -124 183 -112.5 c 128,-1,13
 168 -101 168 -101 150 -91.5 c 128,-1,14
 132 -82 132 -82 117 -64.5 c 128,-1,15
 102 -47 102 -47 102 -26 c 2,16,-1
 102 12 l 1,17,-1
 166 12 l 1,18,-1
 166 -10 l 2,19,20
 166 -40 166 -40 218 -68 c 0,21,22
 238 -79 238 -79 254.5 -97 c 128,-1,23
 271 -115 271 -115 271 -137 c 0,0,1
EndSplineSet
EndChar

StartChar: onesuperior
Encoding: 185 185 123
Width: 297
GlyphClass: 2
Flags: W
LayerCount: 2
Fore
SplineSet
226 550 m 1,0,-1
 229 378 l 2,1,2
 229 360 229 360 220 349 c 128,-1,3
 211 338 211 338 196.5 338 c 128,-1,4
 182 338 182 338 173 349 c 128,-1,5
 164 360 164 360 164 378 c 2,6,7
 164 378 164 378 167 550 c 1,8,-1
 167 670 l 1,9,-1
 136 635 l 2,10,11
 132 630 132 630 113 606 c 0,12,13
 77 559 77 559 57 559 c 0,14,15
 26 559 26 559 26 589 c 0,16,17
 26 606 26 606 59.5 639 c 128,-1,18
 93 672 93 672 122 707 c 128,-1,19
 151 742 151 742 163.5 753.5 c 128,-1,20
 176 765 176 765 193 765 c 0,21,22
 229 765 229 765 229 714 c 2,23,-1
 226 550 l 1,0,-1
EndSplineSet
EndChar

StartChar: ordmasculine
Encoding: 186 186 124
Width: 358
GlyphClass: 2
Flags: W
LayerCount: 2
Fore
SplineSet
273.5 669 m 128,-1,1
 310 623 310 623 310 553 c 128,-1,2
 310 483 310 483 273.5 438 c 128,-1,3
 237 393 237 393 179 393 c 128,-1,4
 121 393 121 393 84.5 438 c 128,-1,5
 48 483 48 483 48 553 c 128,-1,6
 48 623 48 623 84.5 669 c 128,-1,7
 121 715 121 715 179 715 c 128,-1,0
 237 715 237 715 273.5 669 c 128,-1,1
231.5 476.5 m 128,-1,9
 250 505 250 505 250 553 c 128,-1,10
 250 601 250 601 231 630.5 c 128,-1,11
 212 660 212 660 179 660 c 128,-1,12
 146 660 146 660 127 630 c 128,-1,13
 108 600 108 600 108 552.5 c 128,-1,14
 108 505 108 505 127 476.5 c 128,-1,15
 146 448 146 448 179.5 448 c 128,-1,8
 213 448 213 448 231.5 476.5 c 128,-1,9
EndSplineSet
EndChar

StartChar: guillemotright
Encoding: 187 187 125
Width: 506
GlyphClass: 2
Flags: W
LayerCount: 2
Fore
SplineSet
456 371 m 128,-1,1
 463 360 463 360 463 347.5 c 128,-1,2
 463 335 463 335 455 324 c 128,-1,3
 447 313 447 313 421 289.5 c 128,-1,4
 395 266 395 266 384 255 c 128,-1,5
 373 244 373 244 358.5 228 c 128,-1,6
 344 212 344 212 338 206 c 0,7,8
 320 188 320 188 304.5 188 c 128,-1,9
 289 188 289 188 280 197.5 c 128,-1,10
 271 207 271 207 271 220.5 c 128,-1,11
 271 234 271 234 280.5 244 c 128,-1,12
 290 254 290 254 310.5 268.5 c 128,-1,13
 331 283 331 283 341 292 c 0,14,15
 389 335 389 335 389 349 c 128,-1,16
 389 363 389 363 341 406 c 0,17,18
 331 415 331 415 310.5 429.5 c 128,-1,19
 290 444 290 444 280.5 454 c 128,-1,20
 271 464 271 464 271 477.5 c 128,-1,21
 271 491 271 491 280 500.5 c 128,-1,22
 289 510 289 510 300.5 510 c 128,-1,23
 312 510 312 510 321.5 504.5 c 128,-1,24
 331 499 331 499 337.5 492.5 c 128,-1,25
 344 486 344 486 358.5 470 c 128,-1,26
 373 454 373 454 384.5 442.5 c 128,-1,27
 396 431 396 431 414 414.5 c 128,-1,28
 432 398 432 398 440.5 390 c 128,-1,0
 449 382 449 382 456 371 c 128,-1,1
247 371 m 128,-1,30
 254 360 254 360 254 347.5 c 128,-1,31
 254 335 254 335 246 324 c 128,-1,32
 238 313 238 313 212 289.5 c 128,-1,33
 186 266 186 266 175 255 c 128,-1,34
 164 244 164 244 149.5 228 c 128,-1,35
 135 212 135 212 128 206 c 0,36,37
 111 188 111 188 95.5 188 c 128,-1,38
 80 188 80 188 71 197.5 c 128,-1,39
 62 207 62 207 62 220.5 c 128,-1,40
 62 234 62 234 71.5 244 c 128,-1,41
 81 254 81 254 101.5 268.5 c 128,-1,42
 122 283 122 283 132 292 c 0,43,44
 180 335 180 335 180 349 c 128,-1,45
 180 363 180 363 132 406 c 0,46,47
 122 415 122 415 101.5 429.5 c 128,-1,48
 81 444 81 444 71.5 454 c 128,-1,49
 62 464 62 464 62 477.5 c 128,-1,50
 62 491 62 491 71 500.5 c 128,-1,51
 80 510 80 510 91.5 510 c 128,-1,52
 103 510 103 510 112.5 504.5 c 128,-1,53
 122 499 122 499 128.5 492.5 c 128,-1,54
 135 486 135 486 149.5 470 c 128,-1,55
 164 454 164 454 175.5 442.5 c 128,-1,56
 187 431 187 431 205 414.5 c 128,-1,57
 223 398 223 398 231.5 390 c 128,-1,29
 240 382 240 382 247 371 c 128,-1,30
EndSplineSet
EndChar

StartChar: onequarter
Encoding: 188 188 126
Width: 844
GlyphClass: 2
Flags: W
LayerCount: 2
Fore
SplineSet
241 550 m 1,0,-1
 244 378 l 2,1,2
 244 360 244 360 235 349 c 128,-1,3
 226 338 226 338 211.5 338 c 128,-1,4
 197 338 197 338 188 349 c 128,-1,5
 179 360 179 360 179 378 c 2,6,7
 179 378 179 378 182 550 c 1,8,-1
 182 670 l 1,9,-1
 151 635 l 2,10,11
 147 630 147 630 128 606 c 0,12,13
 92 559 92 559 72 559 c 0,14,15
 41 559 41 559 41 589 c 0,16,17
 41 606 41 606 74.5 639 c 128,-1,18
 108 672 108 672 137 707 c 128,-1,19
 166 742 166 742 178.5 753.5 c 128,-1,20
 191 765 191 765 208 765 c 0,21,22
 244 765 244 765 244 714 c 2,23,-1
 241 550 l 1,0,-1
498 547.5 m 128,-1,25
 463 462 463 462 433.5 379 c 128,-1,26
 404 296 404 296 378 218 c 0,27,28
 336 88 336 88 322.5 48 c 128,-1,29
 309 8 309 8 297.5 -3 c 128,-1,30
 286 -14 286 -14 273 -14 c 128,-1,31
 260 -14 260 -14 250 -6 c 128,-1,32
 240 2 240 2 240 19.5 c 128,-1,33
 240 37 240 37 255.5 78 c 128,-1,34
 271 119 271 119 306 205.5 c 128,-1,35
 341 292 341 292 369.5 374.5 c 128,-1,36
 398 457 398 457 424.5 534.5 c 128,-1,37
 451 612 451 612 467 658.5 c 128,-1,38
 483 705 483 705 490 724 c 1,39,40
 503 766 503 766 535 766 c 0,41,42
 545 766 545 766 555 758 c 128,-1,43
 565 750 565 750 565 732.5 c 128,-1,44
 565 715 565 715 549 674 c 128,-1,24
 533 633 533 633 498 547.5 c 128,-1,25
734 130 m 1,45,-1
 737 33 l 1,46,47
 737 -10 737 -10 706.5 -10 c 128,-1,48
 676 -10 676 -10 676 33 c 1,49,-1
 679 132 l 1,50,-1
 640 133 l 1,51,-1
 509 130 l 2,52,53
 492 130 492 130 484 139 c 128,-1,54
 476 148 476 148 476 161.5 c 128,-1,55
 476 175 476 175 491.5 198.5 c 128,-1,56
 507 222 507 222 562 294 c 2,57,-1
 637 391 l 2,58,59
 669 432 669 432 691.5 432 c 128,-1,60
 714 432 714 432 725.5 415.5 c 128,-1,61
 737 399 737 399 737 375 c 2,62,-1
 734 182 l 1,63,64
 764 184 764 184 772.5 184 c 128,-1,65
 781 184 781 184 789.5 175.5 c 128,-1,66
 798 167 798 167 798 157 c 128,-1,67
 798 147 798 147 789.5 138 c 128,-1,68
 781 129 781 129 765.5 129 c 128,-1,69
 750 129 750 129 734 130 c 1,45,-1
547 182 m 1,70,-1
 678 182 l 1,71,72
 679 221 679 221 679 278 c 2,73,-1
 678 356 l 1,74,75
 660 336 660 336 547 182 c 1,70,-1
EndSplineSet
EndChar

StartChar: onehalf
Encoding: 189 189 127
Width: 854
GlyphClass: 2
Flags: W
LayerCount: 2
Fore
SplineSet
241 550 m 1,0,-1
 244 378 l 2,1,2
 244 360 244 360 235 349 c 128,-1,3
 226 338 226 338 211.5 338 c 128,-1,4
 197 338 197 338 188 349 c 128,-1,5
 179 360 179 360 179 378 c 2,6,7
 179 378 179 378 182 550 c 1,8,-1
 182 670 l 1,9,-1
 151 635 l 2,10,11
 147 630 147 630 128 606 c 0,12,13
 92 559 92 559 72 559 c 0,14,15
 41 559 41 559 41 589 c 0,16,17
 41 606 41 606 74.5 639 c 128,-1,18
 108 672 108 672 137 707 c 128,-1,19
 166 742 166 742 178.5 753.5 c 128,-1,20
 191 765 191 765 208 765 c 0,21,22
 244 765 244 765 244 714 c 2,23,-1
 241 550 l 1,0,-1
658 56 m 1,24,-1
 761 61 l 1,25,26
 803 61 803 61 803 29 c 128,-1,27
 803 -3 803 -3 761 -3 c 1,28,-1
 659 1 l 1,29,-1
 566 -3 l 2,30,31
 550 -3 550 -3 538 6.5 c 128,-1,32
 526 16 526 16 526 32 c 128,-1,33
 526 48 526 48 534.5 63.5 c 128,-1,34
 543 79 543 79 555 92 c 0,35,36
 712 269 712 269 712 319 c 0,37,38
 712 341 712 341 697.5 355 c 128,-1,39
 683 369 683 369 656 369 c 128,-1,40
 629 369 629 369 605.5 346.5 c 128,-1,41
 582 324 582 324 568 324 c 128,-1,42
 554 324 554 324 546.5 332 c 128,-1,43
 539 340 539 340 539 353 c 0,44,45
 539 375 539 375 574 401.5 c 128,-1,46
 609 428 609 428 662 428 c 128,-1,47
 715 428 715 428 746 397 c 128,-1,48
 777 366 777 366 777 327 c 0,49,50
 777 300 777 300 768 281.5 c 128,-1,51
 759 263 759 263 754.5 253.5 c 128,-1,52
 750 244 750 244 739.5 228.5 c 128,-1,53
 729 213 729 213 724.5 207 c 128,-1,54
 720 201 720 201 707.5 184.5 c 128,-1,55
 695 168 695 168 686 155.5 c 128,-1,56
 677 143 677 143 645.5 105 c 128,-1,57
 614 67 614 67 607 56 c 1,58,-1
 658 56 l 1,24,-1
498 547.5 m 128,-1,60
 463 462 463 462 433.5 379 c 128,-1,61
 404 296 404 296 378 218 c 0,62,63
 336 88 336 88 322.5 48 c 128,-1,64
 309 8 309 8 297.5 -3 c 128,-1,65
 286 -14 286 -14 273 -14 c 128,-1,66
 260 -14 260 -14 250 -6 c 128,-1,67
 240 2 240 2 240 19.5 c 128,-1,68
 240 37 240 37 255.5 78 c 128,-1,69
 271 119 271 119 306 205.5 c 128,-1,70
 341 292 341 292 369.5 374.5 c 128,-1,71
 398 457 398 457 424.5 534.5 c 128,-1,72
 451 612 451 612 467 658.5 c 128,-1,73
 483 705 483 705 490 724 c 1,74,75
 503 766 503 766 535 766 c 0,76,77
 545 766 545 766 555 758 c 128,-1,78
 565 750 565 750 565 732.5 c 128,-1,79
 565 715 565 715 549 674 c 128,-1,59
 533 633 533 633 498 547.5 c 128,-1,60
EndSplineSet
EndChar

StartChar: threequarters
Encoding: 190 190 128
Width: 894
GlyphClass: 2
Flags: W
LayerCount: 2
Fore
SplineSet
550 547.5 m 128,-1,1
 515 462 515 462 485.5 379 c 128,-1,2
 456 296 456 296 430 218 c 0,3,4
 388 88 388 88 374.5 48 c 128,-1,5
 361 8 361 8 349.5 -3 c 128,-1,6
 338 -14 338 -14 325 -14 c 128,-1,7
 312 -14 312 -14 302 -6 c 128,-1,8
 292 2 292 2 292 19.5 c 128,-1,9
 292 37 292 37 307.5 78 c 128,-1,10
 323 119 323 119 358 205.5 c 128,-1,11
 393 292 393 292 421.5 374.5 c 128,-1,12
 450 457 450 457 476.5 534.5 c 128,-1,13
 503 612 503 612 519 658.5 c 128,-1,14
 535 705 535 705 542 724 c 1,15,16
 555 766 555 766 587 766 c 0,17,18
 597 766 597 766 607 758 c 128,-1,19
 617 750 617 750 617 732.5 c 128,-1,20
 617 715 617 715 601 674 c 128,-1,0
 585 633 585 633 550 547.5 c 128,-1,1
786 130 m 1,21,-1
 789 33 l 1,22,23
 789 -10 789 -10 758.5 -10 c 128,-1,24
 728 -10 728 -10 728 33 c 1,25,-1
 731 132 l 1,26,-1
 692 133 l 1,27,-1
 561 130 l 2,28,29
 544 130 544 130 536 139 c 128,-1,30
 528 148 528 148 528 161.5 c 128,-1,31
 528 175 528 175 543.5 198.5 c 128,-1,32
 559 222 559 222 614 294 c 2,33,-1
 689 391 l 2,34,35
 721 432 721 432 743.5 432 c 128,-1,36
 766 432 766 432 777.5 415.5 c 128,-1,37
 789 399 789 399 789 375 c 2,38,-1
 786 182 l 1,39,40
 816 184 816 184 824.5 184 c 128,-1,41
 833 184 833 184 841.5 175.5 c 128,-1,42
 850 167 850 167 850 157 c 128,-1,43
 850 147 850 147 841.5 138 c 128,-1,44
 833 129 833 129 817.5 129 c 128,-1,45
 802 129 802 129 786 130 c 1,21,-1
599 182 m 1,46,-1
 730 182 l 1,47,48
 731 221 731 221 731 278 c 2,49,-1
 730 356 l 1,50,51
 712 336 712 336 599 182 c 1,46,-1
182 763 m 1,52,-1
 255 765 l 1,53,54
 309 765 309 765 309 728 c 0,55,56
 309 716 309 716 298.5 703 c 128,-1,57
 288 690 288 690 261.5 663 c 128,-1,58
 235 636 235 636 213 609 c 1,59,60
 268 597 268 597 299 560.5 c 128,-1,61
 330 524 330 524 330 472 c 128,-1,62
 330 420 330 420 290 377 c 128,-1,63
 250 334 250 334 182 334 c 0,64,65
 134 334 134 334 94 364 c 128,-1,66
 54 394 54 394 54 419.5 c 128,-1,67
 54 445 54 445 78 445 c 0,68,69
 90 445 90 445 103 432 c 0,70,71
 143 394 143 394 183 394 c 128,-1,72
 223 394 223 394 245 417 c 128,-1,73
 267 440 267 440 267 477 c 128,-1,74
 267 514 267 514 241.5 538.5 c 128,-1,75
 216 563 216 563 179 565 c 1,76,77
 147 532 147 532 124 532 c 0,78,79
 88 532 88 532 88 566 c 0,80,81
 88 580 88 580 103 593.5 c 128,-1,82
 118 607 118 607 148 613 c 1,83,84
 186 653 186 653 231 704 c 1,85,86
 186 707 186 707 172 707 c 2,87,-1
 101 704 l 1,88,89
 62 704 62 704 62 733 c 0,90,91
 62 747 62 747 72.5 756 c 128,-1,92
 83 765 83 765 101 765 c 2,93,-1
 182 763 l 1,52,-1
EndSplineSet
EndChar

StartChar: questiondown
Encoding: 191 191 129
Width: 443
GlyphClass: 2
Flags: W
LayerCount: 2
Fore
SplineSet
295 271 m 0,0,1
 295 195 295 195 233 128 c 0,2,3
 207 100 207 100 181 74 c 0,4,5
 119 10 119 10 119 -51 c 0,6,7
 119 -99 119 -99 153.5 -132.5 c 128,-1,8
 188 -166 188 -166 224.5 -166 c 128,-1,9
 261 -166 261 -166 285 -154 c 128,-1,10
 309 -142 309 -142 320 -128 c 0,11,12
 348 -90 348 -90 365 -90 c 128,-1,13
 382 -90 382 -90 390.5 -99.5 c 128,-1,14
 399 -109 399 -109 399 -122 c 0,15,16
 399 -157 399 -157 347.5 -193.5 c 128,-1,17
 296 -230 296 -230 233 -230 c 0,18,19
 150 -230 150 -230 98.5 -178.5 c 128,-1,20
 47 -127 47 -127 47 -51 c 0,21,22
 47 29 47 29 109 94 c 0,23,24
 135 122 135 122 161 148 c 0,25,26
 223 210 223 210 223 268.5 c 128,-1,27
 223 327 223 327 258 327 c 0,28,29
 295 327 295 327 295 271 c 0,0,1
294 529 m 128,-1,31
 305 513 305 513 305 490.5 c 128,-1,32
 305 468 305 468 290.5 449 c 128,-1,33
 276 430 276 430 255.5 430 c 128,-1,34
 235 430 235 430 224 445 c 128,-1,35
 213 460 213 460 213 483.5 c 128,-1,36
 213 507 213 507 227.5 526 c 128,-1,37
 242 545 242 545 262.5 545 c 128,-1,30
 283 545 283 545 294 529 c 128,-1,31
EndSplineSet
EndChar

StartChar: Agrave
Encoding: 192 192 130
Width: 642
GlyphClass: 2
Flags: W
LayerCount: 2
Fore
SplineSet
510 318 m 1,0,-1
 554 319 l 2,1,2
 576 319 576 319 590 308 c 128,-1,3
 604 297 604 297 604 280 c 0,4,5
 604 242 604 242 534 242 c 1,6,7
 550 193 550 193 557.5 170 c 128,-1,8
 565 147 565 147 578 112 c 0,9,10
 604 40 604 40 604 26 c 128,-1,11
 604 12 604 12 595 1 c 128,-1,12
 586 -10 586 -10 570 -10 c 0,13,14
 541 -10 541 -10 526 25 c 1,15,16
 512 63 512 63 491.5 131 c 128,-1,17
 471 199 471 199 456 246 c 1,18,19
 336 249 336 249 289 249 c 128,-1,20
 242 249 242 249 177 246 c 1,21,22
 115 38 115 38 111 27 c 0,23,24
 97 -10 97 -10 72 -10 c 0,25,26
 57 -10 57 -10 48 0 c 128,-1,27
 39 10 39 10 39 24.5 c 128,-1,28
 39 39 39 39 48 69.5 c 128,-1,29
 57 100 57 100 75.5 154 c 128,-1,30
 94 208 94 208 105 244 c 1,31,-1
 87 244 l 2,32,33
 39 244 39 244 39 281 c 128,-1,34
 39 318 39 318 87 318 c 0,35,36
 110 318 110 318 128 317 c 1,37,38
 131 325 131 325 259 700 c 0,39,40
 280 760 280 760 317 760 c 0,41,42
 342 760 342 760 355.5 745.5 c 128,-1,43
 369 731 369 731 378 708.5 c 128,-1,44
 387 686 387 686 408 622 c 0,45,46
 474 421 474 421 510 318 c 1,0,-1
199 315 m 1,47,48
 255 312 255 312 318.5 312 c 128,-1,49
 382 312 382 312 434 315 c 1,50,51
 331 646 331 646 319 646 c 0,52,53
 305 646 305 646 226 398 c 1,54,-1
 199 315 l 1,47,48
364 824 m 0,55,56
 364 803 364 803 337 803 c 128,-1,57
 310 803 310 803 264.5 846 c 128,-1,58
 219 889 219 889 219 932 c 0,59,60
 219 947 219 947 228 958.5 c 128,-1,61
 237 970 237 970 255 970 c 128,-1,62
 273 970 273 970 284.5 956 c 128,-1,63
 296 942 296 942 306.5 916.5 c 128,-1,64
 317 891 317 891 324.5 881.5 c 128,-1,65
 332 872 332 872 344 859 c 0,66,67
 364 836 364 836 364 824 c 0,55,56
EndSplineSet
EndChar

StartChar: Aacute
Encoding: 193 193 131
Width: 642
GlyphClass: 2
Flags: W
LayerCount: 2
Fore
SplineSet
510 318 m 1,0,-1
 554 319 l 2,1,2
 576 319 576 319 590 308 c 128,-1,3
 604 297 604 297 604 280 c 0,4,5
 604 242 604 242 534 242 c 1,6,7
 550 193 550 193 557.5 170 c 128,-1,8
 565 147 565 147 578 112 c 0,9,10
 604 40 604 40 604 26 c 128,-1,11
 604 12 604 12 595 1 c 128,-1,12
 586 -10 586 -10 570 -10 c 0,13,14
 541 -10 541 -10 526 25 c 1,15,16
 512 63 512 63 491.5 131 c 128,-1,17
 471 199 471 199 456 246 c 1,18,19
 336 249 336 249 289 249 c 128,-1,20
 242 249 242 249 177 246 c 1,21,22
 115 38 115 38 111 27 c 0,23,24
 97 -10 97 -10 72 -10 c 0,25,26
 57 -10 57 -10 48 0 c 128,-1,27
 39 10 39 10 39 24.5 c 128,-1,28
 39 39 39 39 48 69.5 c 128,-1,29
 57 100 57 100 75.5 154 c 128,-1,30
 94 208 94 208 105 244 c 1,31,-1
 87 244 l 2,32,33
 39 244 39 244 39 281 c 128,-1,34
 39 318 39 318 87 318 c 0,35,36
 110 318 110 318 128 317 c 1,37,38
 131 325 131 325 259 700 c 0,39,40
 280 760 280 760 317 760 c 0,41,42
 342 760 342 760 355.5 745.5 c 128,-1,43
 369 731 369 731 378 708.5 c 128,-1,44
 387 686 387 686 408 622 c 0,45,46
 474 421 474 421 510 318 c 1,0,-1
199 315 m 1,47,48
 255 312 255 312 318.5 312 c 128,-1,49
 382 312 382 312 434 315 c 1,50,51
 331 646 331 646 319 646 c 0,52,53
 305 646 305 646 226 398 c 1,54,-1
 199 315 l 1,47,48
414 932 m 0,55,56
 414 889 414 889 368.5 846 c 128,-1,57
 323 803 323 803 296 803 c 128,-1,58
 269 803 269 803 269 824 c 0,59,60
 269 836 269 836 285 854 c 128,-1,61
 301 872 301 872 308.5 881.5 c 128,-1,62
 316 891 316 891 326.5 916.5 c 128,-1,63
 337 942 337 942 348.5 956 c 128,-1,64
 360 970 360 970 378 970 c 128,-1,65
 396 970 396 970 405 958.5 c 128,-1,66
 414 947 414 947 414 932 c 0,55,56
EndSplineSet
EndChar

StartChar: Acircumflex
Encoding: 194 194 132
Width: 642
GlyphClass: 2
Flags: W
LayerCount: 2
Fore
SplineSet
510 318 m 1,0,-1
 554 319 l 2,1,2
 576 319 576 319 590 308 c 128,-1,3
 604 297 604 297 604 280 c 0,4,5
 604 242 604 242 534 242 c 1,6,7
 550 193 550 193 557.5 170 c 128,-1,8
 565 147 565 147 578 112 c 0,9,10
 604 40 604 40 604 26 c 128,-1,11
 604 12 604 12 595 1 c 128,-1,12
 586 -10 586 -10 570 -10 c 0,13,14
 541 -10 541 -10 526 25 c 1,15,16
 512 63 512 63 491.5 131 c 128,-1,17
 471 199 471 199 456 246 c 1,18,19
 336 249 336 249 289 249 c 128,-1,20
 242 249 242 249 177 246 c 1,21,22
 115 38 115 38 111 27 c 0,23,24
 97 -10 97 -10 72 -10 c 0,25,26
 57 -10 57 -10 48 0 c 128,-1,27
 39 10 39 10 39 24.5 c 128,-1,28
 39 39 39 39 48 69.5 c 128,-1,29
 57 100 57 100 75.5 154 c 128,-1,30
 94 208 94 208 105 244 c 1,31,-1
 87 244 l 2,32,33
 39 244 39 244 39 281 c 128,-1,34
 39 318 39 318 87 318 c 0,35,36
 110 318 110 318 128 317 c 1,37,38
 131 325 131 325 259 700 c 0,39,40
 280 760 280 760 317 760 c 0,41,42
 342 760 342 760 355.5 745.5 c 128,-1,43
 369 731 369 731 378 708.5 c 128,-1,44
 387 686 387 686 408 622 c 0,45,46
 474 421 474 421 510 318 c 1,0,-1
199 315 m 1,47,48
 255 312 255 312 318.5 312 c 128,-1,49
 382 312 382 312 434 315 c 1,50,51
 331 646 331 646 319 646 c 0,52,53
 305 646 305 646 226 398 c 1,54,-1
 199 315 l 1,47,48
463 857.5 m 128,-1,56
 467 850 467 850 467 839.5 c 128,-1,57
 467 829 467 829 458 820.5 c 128,-1,58
 449 812 449 812 436.5 812 c 128,-1,59
 424 812 424 812 413 821 c 128,-1,60
 402 830 402 830 391.5 844.5 c 128,-1,61
 381 859 381 859 377 862 c 1,62,63
 337 910 337 910 321.5 910 c 128,-1,64
 306 910 306 910 266 862 c 1,65,66
 262 859 262 859 252 844 c 1,67,68
 228 812 228 812 211 812 c 128,-1,69
 194 812 194 812 185 820.5 c 128,-1,70
 176 829 176 829 176 839.5 c 128,-1,71
 176 850 176 850 180.5 857.5 c 128,-1,72
 185 865 185 865 189.5 869.5 c 128,-1,73
 194 874 194 874 207.5 885.5 c 128,-1,74
 221 897 221 897 233 908.5 c 128,-1,75
 245 920 245 920 262.5 943 c 128,-1,76
 280 966 280 966 291.5 975 c 128,-1,77
 303 984 303 984 321 984 c 128,-1,78
 339 984 339 984 351 975 c 128,-1,79
 363 966 363 966 381 943 c 128,-1,80
 399 920 399 920 411 908.5 c 128,-1,81
 423 897 423 897 436 885.5 c 128,-1,82
 449 874 449 874 454 869.5 c 128,-1,55
 459 865 459 865 463 857.5 c 128,-1,56
EndSplineSet
EndChar

StartChar: Atilde
Encoding: 195 195 133
Width: 642
GlyphClass: 2
Flags: W
LayerCount: 2
Fore
SplineSet
510 318 m 1,0,-1
 554 319 l 2,1,2
 576 319 576 319 590 308 c 128,-1,3
 604 297 604 297 604 280 c 0,4,5
 604 242 604 242 534 242 c 1,6,7
 550 193 550 193 557.5 170 c 128,-1,8
 565 147 565 147 578 112 c 0,9,10
 604 40 604 40 604 26 c 128,-1,11
 604 12 604 12 595 1 c 128,-1,12
 586 -10 586 -10 570 -10 c 0,13,14
 541 -10 541 -10 526 25 c 1,15,16
 512 63 512 63 491.5 131 c 128,-1,17
 471 199 471 199 456 246 c 1,18,19
 336 249 336 249 289 249 c 128,-1,20
 242 249 242 249 177 246 c 1,21,22
 115 38 115 38 111 27 c 0,23,24
 97 -10 97 -10 72 -10 c 0,25,26
 57 -10 57 -10 48 0 c 128,-1,27
 39 10 39 10 39 24.5 c 128,-1,28
 39 39 39 39 48 69.5 c 128,-1,29
 57 100 57 100 75.5 154 c 128,-1,30
 94 208 94 208 105 244 c 1,31,-1
 87 244 l 2,32,33
 39 244 39 244 39 281 c 128,-1,34
 39 318 39 318 87 318 c 0,35,36
 110 318 110 318 128 317 c 1,37,38
 131 325 131 325 259 700 c 0,39,40
 280 760 280 760 317 760 c 0,41,42
 342 760 342 760 355.5 745.5 c 128,-1,43
 369 731 369 731 378 708.5 c 128,-1,44
 387 686 387 686 408 622 c 0,45,46
 474 421 474 421 510 318 c 1,0,-1
199 315 m 1,47,48
 255 312 255 312 318.5 312 c 128,-1,49
 382 312 382 312 434 315 c 1,50,51
 331 646 331 646 319 646 c 0,52,53
 305 646 305 646 226 398 c 1,54,-1
 199 315 l 1,47,48
500 912 m 0,55,56
 500 878 500 878 474.5 852.5 c 128,-1,57
 449 827 449 827 414.5 827 c 128,-1,58
 380 827 380 827 332 854.5 c 128,-1,59
 284 882 284 882 263.5 882 c 128,-1,60
 243 882 243 882 229.5 867 c 128,-1,61
 216 852 216 852 204 836.5 c 128,-1,62
 192 821 192 821 177.5 821 c 128,-1,63
 163 821 163 821 153 832 c 128,-1,64
 143 843 143 843 143 857 c 0,65,66
 143 892 143 892 175 918.5 c 128,-1,67
 207 945 207 945 248.5 945 c 128,-1,68
 290 945 290 945 341.5 917 c 128,-1,69
 393 889 393 889 414.5 889 c 128,-1,70
 436 889 436 889 453 914.5 c 128,-1,71
 470 940 470 940 479 940 c 128,-1,72
 488 940 488 940 494 931.5 c 128,-1,73
 500 923 500 923 500 912 c 0,55,56
EndSplineSet
EndChar

StartChar: Adieresis
Encoding: 196 196 134
Width: 642
GlyphClass: 2
Flags: W
LayerCount: 2
Fore
SplineSet
510 318 m 1,0,-1
 554 319 l 2,1,2
 576 319 576 319 590 308 c 128,-1,3
 604 297 604 297 604 280 c 0,4,5
 604 242 604 242 534 242 c 1,6,7
 550 193 550 193 557.5 170 c 128,-1,8
 565 147 565 147 578 112 c 0,9,10
 604 40 604 40 604 26 c 128,-1,11
 604 12 604 12 595 1 c 128,-1,12
 586 -10 586 -10 570 -10 c 0,13,14
 541 -10 541 -10 526 25 c 1,15,16
 512 63 512 63 491.5 131 c 128,-1,17
 471 199 471 199 456 246 c 1,18,19
 336 249 336 249 289 249 c 128,-1,20
 242 249 242 249 177 246 c 1,21,22
 115 38 115 38 111 27 c 0,23,24
 97 -10 97 -10 72 -10 c 0,25,26
 57 -10 57 -10 48 0 c 128,-1,27
 39 10 39 10 39 24.5 c 128,-1,28
 39 39 39 39 48 69.5 c 128,-1,29
 57 100 57 100 75.5 154 c 128,-1,30
 94 208 94 208 105 244 c 1,31,-1
 87 244 l 2,32,33
 39 244 39 244 39 281 c 128,-1,34
 39 318 39 318 87 318 c 0,35,36
 110 318 110 318 128 317 c 1,37,38
 131 325 131 325 259 700 c 0,39,40
 280 760 280 760 317 760 c 0,41,42
 342 760 342 760 355.5 745.5 c 128,-1,43
 369 731 369 731 378 708.5 c 128,-1,44
 387 686 387 686 408 622 c 0,45,46
 474 421 474 421 510 318 c 1,0,-1
199 315 m 1,47,48
 255 312 255 312 318.5 312 c 128,-1,49
 382 312 382 312 434 315 c 1,50,51
 331 646 331 646 319 646 c 0,52,53
 305 646 305 646 226 398 c 1,54,-1
 199 315 l 1,47,48
282 941.5 m 128,-1,56
 292 928 292 928 292 907.5 c 128,-1,57
 292 887 292 887 278 866.5 c 128,-1,58
 264 846 264 846 243 846 c 128,-1,59
 222 846 222 846 211.5 860 c 128,-1,60
 201 874 201 874 201 897 c 128,-1,61
 201 920 201 920 215.5 937.5 c 128,-1,62
 230 955 230 955 251 955 c 128,-1,55
 272 955 272 955 282 941.5 c 128,-1,56
442 941.5 m 128,-1,64
 452 928 452 928 452 907.5 c 128,-1,65
 452 887 452 887 438 866.5 c 128,-1,66
 424 846 424 846 403 846 c 128,-1,67
 382 846 382 846 371.5 860 c 128,-1,68
 361 874 361 874 361 897 c 128,-1,69
 361 920 361 920 375.5 937.5 c 128,-1,70
 390 955 390 955 411 955 c 128,-1,63
 432 955 432 955 442 941.5 c 128,-1,64
EndSplineSet
EndChar

StartChar: Aring
Encoding: 197 197 135
Width: 642
GlyphClass: 2
Flags: W
LayerCount: 2
Fore
SplineSet
510 318 m 1,0,-1
 554 319 l 2,1,2
 576 319 576 319 590 308 c 128,-1,3
 604 297 604 297 604 280 c 0,4,5
 604 242 604 242 534 242 c 1,6,7
 550 193 550 193 557.5 170 c 128,-1,8
 565 147 565 147 578 112 c 0,9,10
 604 40 604 40 604 26 c 128,-1,11
 604 12 604 12 595 1 c 128,-1,12
 586 -10 586 -10 570 -10 c 0,13,14
 541 -10 541 -10 526 25 c 1,15,16
 512 63 512 63 491.5 131 c 128,-1,17
 471 199 471 199 456 246 c 1,18,19
 336 249 336 249 289 249 c 128,-1,20
 242 249 242 249 177 246 c 1,21,22
 115 38 115 38 111 27 c 0,23,24
 97 -10 97 -10 72 -10 c 0,25,26
 57 -10 57 -10 48 0 c 128,-1,27
 39 10 39 10 39 24.5 c 128,-1,28
 39 39 39 39 48 69.5 c 128,-1,29
 57 100 57 100 75.5 154 c 128,-1,30
 94 208 94 208 105 244 c 1,31,-1
 87 244 l 2,32,33
 39 244 39 244 39 281 c 128,-1,34
 39 318 39 318 87 318 c 0,35,36
 110 318 110 318 128 317 c 1,37,38
 131 325 131 325 259 700 c 0,39,40
 280 760 280 760 317 760 c 0,41,42
 342 760 342 760 355.5 745.5 c 128,-1,43
 369 731 369 731 378 708.5 c 128,-1,44
 387 686 387 686 408 622 c 0,45,46
 474 421 474 421 510 318 c 1,0,-1
199 315 m 1,47,48
 255 312 255 312 318.5 312 c 128,-1,49
 382 312 382 312 434 315 c 1,50,51
 331 646 331 646 319 646 c 0,52,53
 305 646 305 646 226 398 c 1,54,-1
 199 315 l 1,47,48
409 891 m 128,-1,56
 409 851 409 851 384 824 c 128,-1,57
 359 797 359 797 318 797 c 128,-1,58
 277 797 277 797 252 823.5 c 128,-1,59
 227 850 227 850 227 890.5 c 128,-1,60
 227 931 227 931 253 958.5 c 128,-1,61
 279 986 279 986 318 986 c 128,-1,62
 357 986 357 986 383 958.5 c 128,-1,55
 409 931 409 931 409 891 c 128,-1,56
349 858.5 m 128,-1,64
 362 873 362 873 362 891.5 c 128,-1,65
 362 910 362 910 348.5 924.5 c 128,-1,66
 335 939 335 939 318 939 c 128,-1,67
 301 939 301 939 287.5 924.5 c 128,-1,68
 274 910 274 910 274 891.5 c 128,-1,69
 274 873 274 873 287 858.5 c 128,-1,70
 300 844 300 844 318 844 c 128,-1,63
 336 844 336 844 349 858.5 c 128,-1,64
EndSplineSet
EndChar

StartChar: AE
Encoding: 198 198 136
Width: 841
GlyphClass: 2
Flags: W
LayerCount: 2
Fore
SplineSet
383 313 m 1,0,1
 345 553 345 553 319 646 c 1,2,3
 305 646 305 646 226 398 c 1,4,-1
 199 315 l 1,5,6
 255 312 255 312 294.5 312 c 128,-1,7
 334 312 334 312 355 312.5 c 128,-1,8
 376 313 376 313 383 313 c 1,0,1
628 0 m 1,9,-1
 479 -5 l 1,10,11
 431 -5 431 -5 424 38 c 0,12,13
 411 112 411 112 390 250 c 1,14,15
 260 250 260 250 177 246 c 1,16,17
 113 31 113 31 105 13 c 1,18,19
 90 -7 90 -7 76 -8 c 1,20,21
 39 -8 39 -8 39 29 c 0,22,23
 39 45 39 45 66.5 126 c 128,-1,24
 94 207 94 207 105 244 c 1,25,-1
 87 244 l 2,26,27
 39 244 39 244 39 281 c 128,-1,28
 39 318 39 318 87 318 c 0,29,30
 110 318 110 318 128 317 c 1,31,32
 140 351 140 351 258 695 c 0,33,34
 279 755 279 755 317 755 c 2,35,-1
 529 750 l 1,36,-1
 669 755 l 1,37,38
 719 755 719 755 719 717 c 128,-1,39
 719 679 719 679 669 679 c 1,40,-1
 529 684 l 1,41,42
 423 684 423 684 389 680 c 1,43,44
 409 554 409 554 429 440 c 1,45,46
 473 438 473 438 502 438 c 2,47,-1
 672 443 l 2,48,49
 695 443 695 443 708.5 432.5 c 128,-1,50
 722 422 722 422 722 404 c 0,51,52
 722 367 722 367 672 367 c 1,53,-1
 502 372 l 2,54,55
 478 372 478 372 442 370 c 1,56,57
 493 95 493 95 500 70 c 1,58,59
 564 66 564 66 628 66 c 1,60,61
 628 66 628 66 780 71 c 1,62,63
 830 71 830 71 830 33 c 128,-1,64
 830 -5 830 -5 780 -5 c 1,65,-1
 628 0 l 1,9,-1
EndSplineSet
EndChar

StartChar: Ccedilla
Encoding: 199 199 137
Width: 637
GlyphClass: 2
Flags: W
LayerCount: 2
Fore
SplineSet
487 -137 m 0,0,1
 487 -177 487 -177 452 -203.5 c 128,-1,2
 417 -230 417 -230 368 -230 c 128,-1,3
 319 -230 319 -230 289 -207 c 128,-1,4
 259 -184 259 -184 259 -160 c 0,5,6
 259 -153 259 -153 264 -147 c 128,-1,7
 269 -141 269 -141 277 -141 c 128,-1,8
 285 -141 285 -141 311.5 -153.5 c 128,-1,9
 338 -166 338 -166 360.5 -166 c 128,-1,10
 383 -166 383 -166 398.5 -157 c 128,-1,11
 414 -148 414 -148 414 -136 c 128,-1,12
 414 -124 414 -124 399 -112 c 128,-1,13
 384 -100 384 -100 366 -89.5 c 128,-1,14
 348 -79 348 -79 333 -57.5 c 128,-1,15
 318 -36 318 -36 318 -10 c 1,16,17
 202 12 202 12 129.5 121 c 128,-1,18
 57 230 57 230 57 384.5 c 128,-1,19
 57 539 57 539 147 652 c 128,-1,20
 237 765 237 765 373 765 c 0,21,22
 452 765 452 765 515 734 c 128,-1,23
 578 703 578 703 578 664 c 0,24,25
 578 648 578 648 568.5 639 c 128,-1,26
 559 630 559 630 543 630 c 128,-1,27
 527 630 527 630 506 646 c 0,28,29
 442 695 442 695 373 695 c 0,30,31
 271 695 271 695 204.5 600.5 c 128,-1,32
 138 506 138 506 138 377.5 c 128,-1,33
 138 249 138 249 204.5 152 c 128,-1,34
 271 55 271 55 372 55 c 0,35,36
 432 55 432 55 475 71.5 c 128,-1,37
 518 88 518 88 540.5 104.5 c 128,-1,38
 563 121 563 121 573 121 c 0,39,40
 600 121 600 121 600 92.5 c 128,-1,41
 600 64 600 64 535 26 c 128,-1,42
 470 -12 470 -12 382 -15 c 1,43,44
 385 -43 385 -43 437 -70 c 0,45,46
 456 -80 456 -80 471.5 -97.5 c 128,-1,47
 487 -115 487 -115 487 -137 c 0,0,1
EndSplineSet
EndChar

StartChar: Egrave
Encoding: 200 200 138
Width: 588
GlyphClass: 2
Flags: W
LayerCount: 2
Fore
SplineSet
329 66 m 1,0,-1
 491 71 l 1,1,2
 541 71 541 71 541 33 c 128,-1,3
 541 -5 541 -5 491 -5 c 1,4,-1
 329 0 l 1,5,6
 329 0 329 0 154 -5 c 1,7,8
 109 -5 109 -5 109 33 c 0,9,10
 109 68 109 68 111.5 151 c 128,-1,11
 114 234 114 234 114 363 c 1,12,13
 105 362 105 362 94 362 c 0,14,15
 46 362 46 362 46 399 c 0,16,17
 46 416 46 416 59 427 c 128,-1,18
 72 438 72 438 88.5 438 c 128,-1,19
 105 438 105 438 114 437 c 1,20,21
 112 638 112 638 107 680 c 1,22,23
 95 697 95 697 95 717 c 0,24,25
 95 755 95 755 148 755 c 1,26,-1
 341 750 l 1,27,-1
 491 755 l 1,28,29
 541 755 541 755 541 717 c 128,-1,30
 541 679 541 679 491 679 c 1,31,-1
 341 684 l 1,32,33
 227 684 227 684 191 680 c 1,34,35
 186 549 186 549 186 435 c 1,36,37
 230 433 230 433 256 433 c 2,38,-1
 436 438 l 2,39,40
 459 438 459 438 472.5 427.5 c 128,-1,41
 486 417 486 417 486 399 c 0,42,43
 486 362 486 362 436 362 c 1,44,-1
 256 367 l 2,45,46
 228 367 228 367 186 365 c 1,47,-1
 186 266 l 2,48,49
 186 117 186 117 191 70 c 1,50,51
 261 66 261 66 329 66 c 1,0,-1
346 824 m 0,52,53
 346 803 346 803 319 803 c 128,-1,54
 292 803 292 803 246.5 846 c 128,-1,55
 201 889 201 889 201 932 c 0,56,57
 201 947 201 947 210 958.5 c 128,-1,58
 219 970 219 970 237 970 c 128,-1,59
 255 970 255 970 266.5 956 c 128,-1,60
 278 942 278 942 288.5 916.5 c 128,-1,61
 299 891 299 891 306.5 881.5 c 128,-1,62
 314 872 314 872 326 859 c 0,63,64
 346 836 346 836 346 824 c 0,52,53
EndSplineSet
EndChar

StartChar: Eacute
Encoding: 201 201 139
Width: 588
GlyphClass: 2
Flags: W
LayerCount: 2
Fore
SplineSet
329 66 m 1,0,-1
 491 71 l 1,1,2
 541 71 541 71 541 33 c 128,-1,3
 541 -5 541 -5 491 -5 c 1,4,-1
 329 0 l 1,5,6
 329 0 329 0 154 -5 c 1,7,8
 109 -5 109 -5 109 33 c 0,9,10
 109 68 109 68 111.5 151 c 128,-1,11
 114 234 114 234 114 363 c 1,12,13
 105 362 105 362 94 362 c 0,14,15
 46 362 46 362 46 399 c 0,16,17
 46 416 46 416 59 427 c 128,-1,18
 72 438 72 438 88.5 438 c 128,-1,19
 105 438 105 438 114 437 c 1,20,21
 112 638 112 638 107 680 c 1,22,23
 95 697 95 697 95 717 c 0,24,25
 95 755 95 755 148 755 c 1,26,-1
 341 750 l 1,27,-1
 491 755 l 1,28,29
 541 755 541 755 541 717 c 128,-1,30
 541 679 541 679 491 679 c 1,31,-1
 341 684 l 1,32,33
 227 684 227 684 191 680 c 1,34,35
 186 549 186 549 186 435 c 1,36,37
 230 433 230 433 256 433 c 2,38,-1
 436 438 l 2,39,40
 459 438 459 438 472.5 427.5 c 128,-1,41
 486 417 486 417 486 399 c 0,42,43
 486 362 486 362 436 362 c 1,44,-1
 256 367 l 2,45,46
 228 367 228 367 186 365 c 1,47,-1
 186 266 l 2,48,49
 186 117 186 117 191 70 c 1,50,51
 261 66 261 66 329 66 c 1,0,-1
416 932 m 0,52,53
 416 889 416 889 370.5 846 c 128,-1,54
 325 803 325 803 298 803 c 128,-1,55
 271 803 271 803 271 824 c 0,56,57
 271 836 271 836 287 854 c 128,-1,58
 303 872 303 872 310.5 881.5 c 128,-1,59
 318 891 318 891 328.5 916.5 c 128,-1,60
 339 942 339 942 350.5 956 c 128,-1,61
 362 970 362 970 380 970 c 128,-1,62
 398 970 398 970 407 958.5 c 128,-1,63
 416 947 416 947 416 932 c 0,52,53
EndSplineSet
EndChar

StartChar: Ecircumflex
Encoding: 202 202 140
Width: 588
GlyphClass: 2
Flags: W
LayerCount: 2
Fore
SplineSet
329 66 m 1,0,-1
 491 71 l 1,1,2
 541 71 541 71 541 33 c 128,-1,3
 541 -5 541 -5 491 -5 c 1,4,-1
 329 0 l 1,5,6
 329 0 329 0 154 -5 c 1,7,8
 109 -5 109 -5 109 33 c 0,9,10
 109 68 109 68 111.5 151 c 128,-1,11
 114 234 114 234 114 363 c 1,12,13
 105 362 105 362 94 362 c 0,14,15
 46 362 46 362 46 399 c 0,16,17
 46 416 46 416 59 427 c 128,-1,18
 72 438 72 438 88.5 438 c 128,-1,19
 105 438 105 438 114 437 c 1,20,21
 112 638 112 638 107 680 c 1,22,23
 95 697 95 697 95 717 c 0,24,25
 95 755 95 755 148 755 c 1,26,-1
 341 750 l 1,27,-1
 491 755 l 1,28,29
 541 755 541 755 541 717 c 128,-1,30
 541 679 541 679 491 679 c 1,31,-1
 341 684 l 1,32,33
 227 684 227 684 191 680 c 1,34,35
 186 549 186 549 186 435 c 1,36,37
 230 433 230 433 256 433 c 2,38,-1
 436 438 l 2,39,40
 459 438 459 438 472.5 427.5 c 128,-1,41
 486 417 486 417 486 399 c 0,42,43
 486 362 486 362 436 362 c 1,44,-1
 256 367 l 2,45,46
 228 367 228 367 186 365 c 1,47,-1
 186 266 l 2,48,49
 186 117 186 117 191 70 c 1,50,51
 261 66 261 66 329 66 c 1,0,-1
455 857.5 m 128,-1,53
 459 850 459 850 459 839.5 c 128,-1,54
 459 829 459 829 450 820.5 c 128,-1,55
 441 812 441 812 428.5 812 c 128,-1,56
 416 812 416 812 405 821 c 128,-1,57
 394 830 394 830 383.5 844.5 c 128,-1,58
 373 859 373 859 369 862 c 1,59,60
 329 910 329 910 313.5 910 c 128,-1,61
 298 910 298 910 258 862 c 1,62,63
 254 859 254 859 244 844 c 1,64,65
 220 812 220 812 203 812 c 128,-1,66
 186 812 186 812 177 820.5 c 128,-1,67
 168 829 168 829 168 839.5 c 128,-1,68
 168 850 168 850 172.5 857.5 c 128,-1,69
 177 865 177 865 181.5 869.5 c 128,-1,70
 186 874 186 874 199.5 885.5 c 128,-1,71
 213 897 213 897 225 908.5 c 128,-1,72
 237 920 237 920 254.5 943 c 128,-1,73
 272 966 272 966 283.5 975 c 128,-1,74
 295 984 295 984 313 984 c 128,-1,75
 331 984 331 984 343 975 c 128,-1,76
 355 966 355 966 373 943 c 128,-1,77
 391 920 391 920 403 908.5 c 128,-1,78
 415 897 415 897 428 885.5 c 128,-1,79
 441 874 441 874 446 869.5 c 128,-1,52
 451 865 451 865 455 857.5 c 128,-1,53
EndSplineSet
EndChar

StartChar: Edieresis
Encoding: 203 203 141
Width: 588
GlyphClass: 2
Flags: W
LayerCount: 2
Fore
SplineSet
329 66 m 1,0,-1
 491 71 l 1,1,2
 541 71 541 71 541 33 c 128,-1,3
 541 -5 541 -5 491 -5 c 1,4,-1
 329 0 l 1,5,6
 329 0 329 0 154 -5 c 1,7,8
 109 -5 109 -5 109 33 c 0,9,10
 109 68 109 68 111.5 151 c 128,-1,11
 114 234 114 234 114 363 c 1,12,13
 105 362 105 362 94 362 c 0,14,15
 46 362 46 362 46 399 c 0,16,17
 46 416 46 416 59 427 c 128,-1,18
 72 438 72 438 88.5 438 c 128,-1,19
 105 438 105 438 114 437 c 1,20,21
 112 638 112 638 107 680 c 1,22,23
 95 697 95 697 95 717 c 0,24,25
 95 755 95 755 148 755 c 1,26,-1
 341 750 l 1,27,-1
 491 755 l 1,28,29
 541 755 541 755 541 717 c 128,-1,30
 541 679 541 679 491 679 c 1,31,-1
 341 684 l 1,32,33
 227 684 227 684 191 680 c 1,34,35
 186 549 186 549 186 435 c 1,36,37
 230 433 230 433 256 433 c 2,38,-1
 436 438 l 2,39,40
 459 438 459 438 472.5 427.5 c 128,-1,41
 486 417 486 417 486 399 c 0,42,43
 486 362 486 362 436 362 c 1,44,-1
 256 367 l 2,45,46
 228 367 228 367 186 365 c 1,47,-1
 186 266 l 2,48,49
 186 117 186 117 191 70 c 1,50,51
 261 66 261 66 329 66 c 1,0,-1
279 941.5 m 128,-1,53
 289 928 289 928 289 907.5 c 128,-1,54
 289 887 289 887 275 866.5 c 128,-1,55
 261 846 261 846 240 846 c 128,-1,56
 219 846 219 846 208.5 860 c 128,-1,57
 198 874 198 874 198 897 c 128,-1,58
 198 920 198 920 212.5 937.5 c 128,-1,59
 227 955 227 955 248 955 c 128,-1,52
 269 955 269 955 279 941.5 c 128,-1,53
439 941.5 m 128,-1,61
 449 928 449 928 449 907.5 c 128,-1,62
 449 887 449 887 435 866.5 c 128,-1,63
 421 846 421 846 400 846 c 128,-1,64
 379 846 379 846 368.5 860 c 128,-1,65
 358 874 358 874 358 897 c 128,-1,66
 358 920 358 920 372.5 937.5 c 128,-1,67
 387 955 387 955 408 955 c 128,-1,60
 429 955 429 955 439 941.5 c 128,-1,61
EndSplineSet
EndChar

StartChar: Igrave
Encoding: 204 204 142
Width: 436
GlyphClass: 2
Flags: W
LayerCount: 2
Fore
SplineSet
260 66 m 1,0,-1
 348 71 l 1,1,2
 371 71 371 71 384.5 60.5 c 128,-1,3
 398 50 398 50 398 33 c 128,-1,4
 398 16 398 16 384 5 c 128,-1,5
 370 -6 370 -6 348 -6 c 1,6,-1
 219 0 l 1,7,-1
 87 -5 l 1,8,9
 37 -5 37 -5 37 33 c 128,-1,10
 37 71 37 71 87 71 c 0,11,12
 98 71 98 71 178 66 c 1,13,14
 183 291 183 291 183 374.5 c 128,-1,15
 183 458 183 458 178 683 c 1,16,17
 90 679 90 679 87 679 c 0,18,19
 39 679 39 679 39 716 c 0,20,21
 39 734 39 734 52 744.5 c 128,-1,22
 65 755 65 755 87 755 c 2,23,-1
 219 750 l 1,24,25
 253 750 253 750 298 753 c 128,-1,26
 343 756 343 756 356.5 756 c 128,-1,27
 370 756 370 756 384.5 744.5 c 128,-1,28
 399 733 399 733 399 716 c 128,-1,29
 399 699 399 699 385 688.5 c 128,-1,30
 371 678 371 678 355.5 678 c 128,-1,31
 340 678 340 678 260 683 c 1,32,33
 255 453 255 453 255 372 c 128,-1,34
 255 291 255 291 260 66 c 1,0,-1
261 824 m 0,35,36
 261 803 261 803 234 803 c 128,-1,37
 207 803 207 803 161.5 846 c 128,-1,38
 116 889 116 889 116 932 c 0,39,40
 116 947 116 947 125 958.5 c 128,-1,41
 134 970 134 970 152 970 c 128,-1,42
 170 970 170 970 181.5 956 c 128,-1,43
 193 942 193 942 203.5 916.5 c 128,-1,44
 214 891 214 891 221.5 881.5 c 128,-1,45
 229 872 229 872 240 859 c 0,46,47
 261 836 261 836 261 824 c 0,35,36
EndSplineSet
EndChar

StartChar: Iacute
Encoding: 205 205 143
Width: 436
GlyphClass: 2
Flags: W
LayerCount: 2
Fore
SplineSet
260 66 m 1,0,-1
 348 71 l 1,1,2
 371 71 371 71 384.5 60.5 c 128,-1,3
 398 50 398 50 398 33 c 128,-1,4
 398 16 398 16 384 5 c 128,-1,5
 370 -6 370 -6 348 -6 c 1,6,-1
 219 0 l 1,7,-1
 87 -5 l 1,8,9
 37 -5 37 -5 37 33 c 128,-1,10
 37 71 37 71 87 71 c 0,11,12
 98 71 98 71 178 66 c 1,13,14
 183 291 183 291 183 374.5 c 128,-1,15
 183 458 183 458 178 683 c 1,16,17
 90 679 90 679 87 679 c 0,18,19
 39 679 39 679 39 716 c 0,20,21
 39 734 39 734 52 744.5 c 128,-1,22
 65 755 65 755 87 755 c 2,23,-1
 219 750 l 1,24,25
 253 750 253 750 298 753 c 128,-1,26
 343 756 343 756 356.5 756 c 128,-1,27
 370 756 370 756 384.5 744.5 c 128,-1,28
 399 733 399 733 399 716 c 128,-1,29
 399 699 399 699 385 688.5 c 128,-1,30
 371 678 371 678 355.5 678 c 128,-1,31
 340 678 340 678 260 683 c 1,32,33
 255 453 255 453 255 372 c 128,-1,34
 255 291 255 291 260 66 c 1,0,-1
321 932 m 0,35,36
 321 889 321 889 275.5 846 c 128,-1,37
 230 803 230 803 203 803 c 128,-1,38
 176 803 176 803 176 824 c 0,39,40
 176 836 176 836 192 854 c 128,-1,41
 208 872 208 872 215.5 881.5 c 128,-1,42
 223 891 223 891 233.5 916.5 c 128,-1,43
 244 942 244 942 255.5 956 c 128,-1,44
 267 970 267 970 285 970 c 128,-1,45
 303 970 303 970 312 958.5 c 128,-1,46
 321 947 321 947 321 932 c 0,35,36
EndSplineSet
EndChar

StartChar: Icircumflex
Encoding: 206 206 144
Width: 436
GlyphClass: 2
Flags: W
LayerCount: 2
Fore
SplineSet
260 66 m 1,0,-1
 348 71 l 1,1,2
 371 71 371 71 384.5 60.5 c 128,-1,3
 398 50 398 50 398 33 c 128,-1,4
 398 16 398 16 384 5 c 128,-1,5
 370 -6 370 -6 348 -6 c 1,6,-1
 219 0 l 1,7,-1
 87 -5 l 1,8,9
 37 -5 37 -5 37 33 c 128,-1,10
 37 71 37 71 87 71 c 0,11,12
 98 71 98 71 178 66 c 1,13,14
 183 291 183 291 183 374.5 c 128,-1,15
 183 458 183 458 178 683 c 1,16,17
 90 679 90 679 87 679 c 0,18,19
 39 679 39 679 39 716 c 0,20,21
 39 734 39 734 52 744.5 c 128,-1,22
 65 755 65 755 87 755 c 2,23,-1
 219 750 l 1,24,25
 253 750 253 750 298 753 c 128,-1,26
 343 756 343 756 356.5 756 c 128,-1,27
 370 756 370 756 384.5 744.5 c 128,-1,28
 399 733 399 733 399 716 c 128,-1,29
 399 699 399 699 385 688.5 c 128,-1,30
 371 678 371 678 355.5 678 c 128,-1,31
 340 678 340 678 260 683 c 1,32,33
 255 453 255 453 255 372 c 128,-1,34
 255 291 255 291 260 66 c 1,0,-1
361 857.5 m 128,-1,36
 365 850 365 850 365 839.5 c 128,-1,37
 365 829 365 829 356 820.5 c 128,-1,38
 347 812 347 812 334.5 812 c 128,-1,39
 322 812 322 812 311 821 c 128,-1,40
 300 830 300 830 289.5 844.5 c 128,-1,41
 279 859 279 859 275 862 c 1,42,43
 235 910 235 910 219.5 910 c 128,-1,44
 204 910 204 910 164 862 c 1,45,46
 160 859 160 859 150 844 c 1,47,48
 126 812 126 812 109 812 c 128,-1,49
 92 812 92 812 83 820.5 c 128,-1,50
 74 829 74 829 74 839.5 c 128,-1,51
 74 850 74 850 78.5 857.5 c 128,-1,52
 83 865 83 865 87.5 869.5 c 128,-1,53
 92 874 92 874 105.5 885.5 c 128,-1,54
 119 897 119 897 131 908.5 c 128,-1,55
 143 920 143 920 160.5 943 c 128,-1,56
 178 966 178 966 189.5 975 c 128,-1,57
 201 984 201 984 219 984 c 128,-1,58
 237 984 237 984 249 975 c 128,-1,59
 261 966 261 966 279 943 c 128,-1,60
 297 920 297 920 309 908.5 c 128,-1,61
 321 897 321 897 334 885.5 c 128,-1,62
 347 874 347 874 352 869.5 c 128,-1,35
 357 865 357 865 361 857.5 c 128,-1,36
EndSplineSet
EndChar

StartChar: Idieresis
Encoding: 207 207 145
Width: 436
GlyphClass: 2
Flags: W
LayerCount: 2
Fore
SplineSet
260 66 m 1,0,-1
 348 71 l 1,1,2
 371 71 371 71 384.5 60.5 c 128,-1,3
 398 50 398 50 398 33 c 128,-1,4
 398 16 398 16 384 5 c 128,-1,5
 370 -6 370 -6 348 -6 c 1,6,-1
 219 0 l 1,7,-1
 87 -5 l 1,8,9
 37 -5 37 -5 37 33 c 128,-1,10
 37 71 37 71 87 71 c 0,11,12
 98 71 98 71 178 66 c 1,13,14
 183 291 183 291 183 374.5 c 128,-1,15
 183 458 183 458 178 683 c 1,16,17
 90 679 90 679 87 679 c 0,18,19
 39 679 39 679 39 716 c 0,20,21
 39 734 39 734 52 744.5 c 128,-1,22
 65 755 65 755 87 755 c 2,23,-1
 219 750 l 1,24,25
 253 750 253 750 298 753 c 128,-1,26
 343 756 343 756 356.5 756 c 128,-1,27
 370 756 370 756 384.5 744.5 c 128,-1,28
 399 733 399 733 399 716 c 128,-1,29
 399 699 399 699 385 688.5 c 128,-1,30
 371 678 371 678 355.5 678 c 128,-1,31
 340 678 340 678 260 683 c 1,32,33
 255 453 255 453 255 372 c 128,-1,34
 255 291 255 291 260 66 c 1,0,-1
174 941.5 m 128,-1,36
 184 928 184 928 184 907.5 c 128,-1,37
 184 887 184 887 170 866.5 c 128,-1,38
 156 846 156 846 135 846 c 128,-1,39
 114 846 114 846 103.5 860 c 128,-1,40
 93 874 93 874 93 897 c 128,-1,41
 93 920 93 920 107.5 937.5 c 128,-1,42
 122 955 122 955 143 955 c 128,-1,35
 164 955 164 955 174 941.5 c 128,-1,36
334 941.5 m 128,-1,44
 344 928 344 928 344 907.5 c 128,-1,45
 344 887 344 887 330 866.5 c 128,-1,46
 316 846 316 846 295 846 c 128,-1,47
 274 846 274 846 263.5 860 c 128,-1,48
 253 874 253 874 253 897 c 128,-1,49
 253 920 253 920 267.5 937.5 c 128,-1,50
 282 955 282 955 303 955 c 128,-1,43
 324 955 324 955 334 941.5 c 128,-1,44
EndSplineSet
EndChar

StartChar: Eth
Encoding: 208 208 146
Width: 728
GlyphClass: 2
Flags: W
LayerCount: 2
Fore
SplineSet
134 401 m 1,0,-1
 129 654 l 1,1,2
 81 654 81 654 81 692 c 0,3,4
 81 726 81 726 147 743 c 128,-1,5
 213 760 213 760 296 760 c 128,-1,6
 379 760 379 760 454 726 c 128,-1,7
 529 692 529 692 576 636 c 0,8,9
 672 520 672 520 672 364 c 0,10,11
 672 214 672 214 579 104 c 0,12,13
 534 50 534 50 461.5 17.5 c 128,-1,14
 389 -15 389 -15 295.5 -15 c 128,-1,15
 202 -15 202 -15 139.5 6.5 c 128,-1,16
 77 28 77 28 77 62 c 0,17,18
 77 74 77 74 84.5 82 c 128,-1,19
 92 90 92 90 105 90 c 128,-1,20
 118 90 118 90 131 83 c 1,21,-1
 134 340 l 1,22,23
 54 338 54 338 42 338 c 128,-1,24
 30 338 30 338 18.5 347 c 128,-1,25
 7 356 7 356 7 371 c 128,-1,26
 7 386 7 386 18.5 395 c 128,-1,27
 30 404 30 404 50.5 404 c 128,-1,28
 71 404 71 404 134 401 c 1,0,-1
361.5 347 m 128,-1,30
 350 338 350 338 321.5 338 c 128,-1,31
 293 338 293 338 206 341 c 1,32,33
 206 172 206 172 212 62 c 1,34,35
 240 56 240 56 296 56 c 0,36,37
 438 56 438 56 516 147 c 128,-1,38
 594 238 594 238 594 369 c 0,39,40
 594 497 594 497 518 589 c 0,41,42
 481 634 481 634 421 661 c 128,-1,43
 361 688 361 688 286 688 c 0,44,45
 249 688 249 688 211 679 c 1,46,47
 206 609 206 609 206 401 c 1,48,49
 206 401 206 401 332 404 c 0,50,51
 350 404 350 404 361.5 395 c 128,-1,52
 373 386 373 386 373 371 c 128,-1,29
 373 356 373 356 361.5 347 c 128,-1,30
EndSplineSet
EndChar

StartChar: Ntilde
Encoding: 209 209 147
Width: 691
GlyphClass: 2
Flags: W
LayerCount: 2
Fore
SplineSet
594 709 m 2,0,-1
 589 372 l 1,1,-1
 591 41 l 2,2,3
 591 18 591 18 578.5 4 c 128,-1,4
 566 -10 566 -10 544 -10 c 128,-1,5
 522 -10 522 -10 506 17 c 0,6,7
 501 25 501 25 470 82 c 0,8,9
 372 260 372 260 324.5 340.5 c 128,-1,10
 277 421 277 421 234 499.5 c 128,-1,11
 191 578 191 578 174 605 c 1,12,-1
 174 372 l 2,13,14
 174 204 174 204 176.5 126.5 c 128,-1,15
 179 49 179 49 179 34 c 128,-1,16
 179 19 179 19 167 4.5 c 128,-1,17
 155 -10 155 -10 138 -10 c 128,-1,18
 121 -10 121 -10 109 4.5 c 128,-1,19
 97 19 97 19 97 34 c 128,-1,20
 97 49 97 49 98.5 95.5 c 128,-1,21
 100 142 100 142 101 217.5 c 128,-1,22
 102 293 102 293 102 372 c 128,-1,23
 102 451 102 451 101 528 c 128,-1,24
 100 605 100 605 98.5 652.5 c 128,-1,25
 97 700 97 700 97 715 c 128,-1,26
 97 730 97 730 109 745 c 128,-1,27
 121 760 121 760 139 760 c 0,28,29
 171 760 171 760 187 733 c 0,30,31
 196 719 196 719 334.5 470.5 c 128,-1,32
 473 222 473 222 517 151 c 1,33,-1
 517 372 l 1,34,-1
 512 709 l 2,35,36
 512 731 512 731 524 745.5 c 128,-1,37
 536 760 536 760 553 760 c 128,-1,38
 570 760 570 760 582 745.5 c 128,-1,39
 594 731 594 731 594 709 c 2,0,-1
527 904 m 0,40,41
 527 870 527 870 501.5 844.5 c 128,-1,42
 476 819 476 819 441.5 819 c 128,-1,43
 407 819 407 819 359 846.5 c 128,-1,44
 311 874 311 874 290.5 874 c 128,-1,45
 270 874 270 874 256.5 859 c 128,-1,46
 243 844 243 844 231 828.5 c 128,-1,47
 219 813 219 813 204.5 813 c 128,-1,48
 190 813 190 813 180 824 c 128,-1,49
 170 835 170 835 170 849 c 0,50,51
 170 884 170 884 202 910.5 c 128,-1,52
 234 937 234 937 275.5 937 c 128,-1,53
 317 937 317 937 368.5 909 c 128,-1,54
 420 881 420 881 441.5 881 c 128,-1,55
 463 881 463 881 480 906.5 c 128,-1,56
 497 932 497 932 506 932 c 128,-1,57
 515 932 515 932 521 923.5 c 128,-1,58
 527 915 527 915 527 904 c 0,40,41
EndSplineSet
EndChar

StartChar: Ograve
Encoding: 210 210 148
Width: 774
GlyphClass: 2
Flags: W
LayerCount: 2
Fore
SplineSet
564.5 154 m 128,-1,1
 636 250 636 250 636 377.5 c 128,-1,2
 636 505 636 505 565 598.5 c 128,-1,3
 494 692 494 692 387 692 c 128,-1,4
 280 692 280 692 209 598.5 c 128,-1,5
 138 505 138 505 138 377.5 c 128,-1,6
 138 250 138 250 209.5 154 c 128,-1,7
 281 58 281 58 387 58 c 128,-1,0
 493 58 493 58 564.5 154 c 128,-1,1
717 376 m 128,-1,9
 717 213 717 213 622 99 c 128,-1,10
 527 -15 527 -15 386.5 -15 c 128,-1,11
 246 -15 246 -15 151.5 99 c 128,-1,12
 57 213 57 213 57 375.5 c 128,-1,13
 57 538 57 538 152 651.5 c 128,-1,14
 247 765 247 765 388 765 c 128,-1,15
 529 765 529 765 623 652 c 128,-1,8
 717 539 717 539 717 376 c 128,-1,9
429 824 m 0,16,17
 429 803 429 803 402 803 c 128,-1,18
 375 803 375 803 329.5 846 c 128,-1,19
 284 889 284 889 284 932 c 0,20,21
 284 947 284 947 293 958.5 c 128,-1,22
 302 970 302 970 320 970 c 128,-1,23
 338 970 338 970 349.5 956 c 128,-1,24
 361 942 361 942 371.5 916.5 c 128,-1,25
 382 891 382 891 389.5 881.5 c 128,-1,26
 397 872 397 872 408 859 c 0,27,28
 429 836 429 836 429 824 c 0,16,17
EndSplineSet
EndChar

StartChar: Oacute
Encoding: 211 211 149
Width: 774
GlyphClass: 2
Flags: W
LayerCount: 2
Fore
SplineSet
564.5 154 m 128,-1,1
 636 250 636 250 636 377.5 c 128,-1,2
 636 505 636 505 565 598.5 c 128,-1,3
 494 692 494 692 387 692 c 128,-1,4
 280 692 280 692 209 598.5 c 128,-1,5
 138 505 138 505 138 377.5 c 128,-1,6
 138 250 138 250 209.5 154 c 128,-1,7
 281 58 281 58 387 58 c 128,-1,0
 493 58 493 58 564.5 154 c 128,-1,1
717 376 m 128,-1,9
 717 213 717 213 622 99 c 128,-1,10
 527 -15 527 -15 386.5 -15 c 128,-1,11
 246 -15 246 -15 151.5 99 c 128,-1,12
 57 213 57 213 57 375.5 c 128,-1,13
 57 538 57 538 152 651.5 c 128,-1,14
 247 765 247 765 388 765 c 128,-1,15
 529 765 529 765 623 652 c 128,-1,8
 717 539 717 539 717 376 c 128,-1,9
489 932 m 0,16,17
 489 889 489 889 443.5 846 c 128,-1,18
 398 803 398 803 371 803 c 128,-1,19
 344 803 344 803 344 824 c 0,20,21
 344 836 344 836 360 854 c 128,-1,22
 376 872 376 872 383.5 881.5 c 128,-1,23
 391 891 391 891 401.5 916.5 c 128,-1,24
 412 942 412 942 423.5 956 c 128,-1,25
 435 970 435 970 453 970 c 128,-1,26
 471 970 471 970 480 958.5 c 128,-1,27
 489 947 489 947 489 932 c 0,16,17
EndSplineSet
EndChar

StartChar: Ocircumflex
Encoding: 212 212 150
Width: 774
GlyphClass: 2
Flags: W
LayerCount: 2
Fore
SplineSet
564.5 154 m 128,-1,1
 636 250 636 250 636 377.5 c 128,-1,2
 636 505 636 505 565 598.5 c 128,-1,3
 494 692 494 692 387 692 c 128,-1,4
 280 692 280 692 209 598.5 c 128,-1,5
 138 505 138 505 138 377.5 c 128,-1,6
 138 250 138 250 209.5 154 c 128,-1,7
 281 58 281 58 387 58 c 128,-1,0
 493 58 493 58 564.5 154 c 128,-1,1
717 376 m 128,-1,9
 717 213 717 213 622 99 c 128,-1,10
 527 -15 527 -15 386.5 -15 c 128,-1,11
 246 -15 246 -15 151.5 99 c 128,-1,12
 57 213 57 213 57 375.5 c 128,-1,13
 57 538 57 538 152 651.5 c 128,-1,14
 247 765 247 765 388 765 c 128,-1,15
 529 765 529 765 623 652 c 128,-1,8
 717 539 717 539 717 376 c 128,-1,9
528 857.5 m 128,-1,17
 532 850 532 850 532 839.5 c 128,-1,18
 532 829 532 829 523 820.5 c 128,-1,19
 514 812 514 812 501.5 812 c 128,-1,20
 489 812 489 812 478 821 c 128,-1,21
 467 830 467 830 456.5 844.5 c 128,-1,22
 446 859 446 859 442 862 c 1,23,24
 402 910 402 910 386.5 910 c 128,-1,25
 371 910 371 910 331 862 c 1,26,27
 327 859 327 859 316 844 c 0,28,29
 293 812 293 812 276 812 c 128,-1,30
 259 812 259 812 250 820.5 c 128,-1,31
 241 829 241 829 241 839.5 c 128,-1,32
 241 850 241 850 245.5 857.5 c 128,-1,33
 250 865 250 865 254.5 869.5 c 128,-1,34
 259 874 259 874 272.5 885.5 c 128,-1,35
 286 897 286 897 298 908.5 c 128,-1,36
 310 920 310 920 327.5 943 c 128,-1,37
 345 966 345 966 356.5 975 c 128,-1,38
 368 984 368 984 386 984 c 128,-1,39
 404 984 404 984 416 975 c 128,-1,40
 428 966 428 966 446 943 c 128,-1,41
 464 920 464 920 476 908.5 c 128,-1,42
 488 897 488 897 501 885.5 c 128,-1,43
 514 874 514 874 519 869.5 c 128,-1,16
 524 865 524 865 528 857.5 c 128,-1,17
EndSplineSet
EndChar

StartChar: Otilde
Encoding: 213 213 151
Width: 774
GlyphClass: 2
Flags: W
LayerCount: 2
Fore
SplineSet
564.5 154 m 128,-1,1
 636 250 636 250 636 377.5 c 128,-1,2
 636 505 636 505 565 598.5 c 128,-1,3
 494 692 494 692 387 692 c 128,-1,4
 280 692 280 692 209 598.5 c 128,-1,5
 138 505 138 505 138 377.5 c 128,-1,6
 138 250 138 250 209.5 154 c 128,-1,7
 281 58 281 58 387 58 c 128,-1,0
 493 58 493 58 564.5 154 c 128,-1,1
717 376 m 128,-1,9
 717 213 717 213 622 99 c 128,-1,10
 527 -15 527 -15 386.5 -15 c 128,-1,11
 246 -15 246 -15 151.5 99 c 128,-1,12
 57 213 57 213 57 375.5 c 128,-1,13
 57 538 57 538 152 651.5 c 128,-1,14
 247 765 247 765 388 765 c 128,-1,15
 529 765 529 765 623 652 c 128,-1,8
 717 539 717 539 717 376 c 128,-1,9
565 912 m 0,16,17
 565 878 565 878 539.5 852.5 c 128,-1,18
 514 827 514 827 479.5 827 c 128,-1,19
 445 827 445 827 397 854.5 c 128,-1,20
 349 882 349 882 328.5 882 c 128,-1,21
 308 882 308 882 294.5 867 c 128,-1,22
 281 852 281 852 269 836.5 c 128,-1,23
 257 821 257 821 242.5 821 c 128,-1,24
 228 821 228 821 218 832 c 128,-1,25
 208 843 208 843 208 857 c 0,26,27
 208 892 208 892 240 918.5 c 128,-1,28
 272 945 272 945 313.5 945 c 128,-1,29
 355 945 355 945 406.5 917 c 128,-1,30
 458 889 458 889 479.5 889 c 128,-1,31
 501 889 501 889 518 914.5 c 128,-1,32
 535 940 535 940 544 940 c 128,-1,33
 553 940 553 940 559 931.5 c 128,-1,34
 565 923 565 923 565 912 c 0,16,17
EndSplineSet
EndChar

StartChar: Odieresis
Encoding: 214 214 152
Width: 774
GlyphClass: 2
Flags: W
LayerCount: 2
Fore
SplineSet
564.5 154 m 128,-1,1
 636 250 636 250 636 377.5 c 128,-1,2
 636 505 636 505 565 598.5 c 128,-1,3
 494 692 494 692 387 692 c 128,-1,4
 280 692 280 692 209 598.5 c 128,-1,5
 138 505 138 505 138 377.5 c 128,-1,6
 138 250 138 250 209.5 154 c 128,-1,7
 281 58 281 58 387 58 c 128,-1,0
 493 58 493 58 564.5 154 c 128,-1,1
717 376 m 128,-1,9
 717 213 717 213 622 99 c 128,-1,10
 527 -15 527 -15 386.5 -15 c 128,-1,11
 246 -15 246 -15 151.5 99 c 128,-1,12
 57 213 57 213 57 375.5 c 128,-1,13
 57 538 57 538 152 651.5 c 128,-1,14
 247 765 247 765 388 765 c 128,-1,15
 529 765 529 765 623 652 c 128,-1,8
 717 539 717 539 717 376 c 128,-1,9
342 941.5 m 128,-1,17
 352 928 352 928 352 907.5 c 128,-1,18
 352 887 352 887 338 866.5 c 128,-1,19
 324 846 324 846 303 846 c 128,-1,20
 282 846 282 846 271.5 860 c 128,-1,21
 261 874 261 874 261 897 c 128,-1,22
 261 920 261 920 275.5 937.5 c 128,-1,23
 290 955 290 955 311 955 c 128,-1,16
 332 955 332 955 342 941.5 c 128,-1,17
502 941.5 m 128,-1,25
 512 928 512 928 512 907.5 c 128,-1,26
 512 887 512 887 498 866.5 c 128,-1,27
 484 846 484 846 463 846 c 128,-1,28
 442 846 442 846 431.5 860 c 128,-1,29
 421 874 421 874 421 897 c 128,-1,30
 421 920 421 920 435.5 937.5 c 128,-1,31
 450 955 450 955 471 955 c 128,-1,24
 492 955 492 955 502 941.5 c 128,-1,25
EndSplineSet
EndChar

StartChar: multiply
Encoding: 215 215 153
Width: 504
GlyphClass: 2
Flags: W
LayerCount: 2
Fore
SplineSet
421 432.5 m 128,-1,1
 431 423 431 423 431 409.5 c 128,-1,2
 431 396 431 396 421.5 385.5 c 128,-1,3
 412 375 412 375 390 354 c 0,4,5
 319 285 319 285 293 257 c 1,6,7
 321 228 321 228 368 182 c 128,-1,8
 415 136 415 136 424.5 126.5 c 128,-1,9
 434 117 434 117 434 103.5 c 128,-1,10
 434 90 434 90 424.5 80 c 128,-1,11
 415 70 415 70 401 70 c 128,-1,12
 387 70 387 70 375.5 81 c 128,-1,13
 364 92 364 92 346 112 c 0,14,15
 304 158 304 158 252 213 c 1,16,17
 143 94 143 94 130 81.5 c 128,-1,18
 117 69 117 69 103 69 c 128,-1,19
 89 69 89 69 79.5 79 c 128,-1,20
 70 89 70 89 70 102.5 c 128,-1,21
 70 116 70 116 79.5 125.5 c 128,-1,22
 89 135 89 135 111 156 c 0,23,24
 183 227 183 227 211 256 c 1,25,26
 185 284 185 284 138.5 329 c 128,-1,27
 92 374 92 374 82.5 384.5 c 128,-1,28
 73 395 73 395 73 408.5 c 128,-1,29
 73 422 73 422 83 431.5 c 128,-1,30
 93 441 93 441 107 441 c 128,-1,31
 121 441 121 441 132.5 429.5 c 128,-1,32
 144 418 144 418 184.5 373.5 c 128,-1,33
 225 329 225 329 252 301 c 1,34,35
 352 411 352 411 367.5 426.5 c 128,-1,36
 383 442 383 442 397 442 c 128,-1,0
 411 442 411 442 421 432.5 c 128,-1,1
EndSplineSet
EndChar

StartChar: Oslash
Encoding: 216 216 154
Width: 755
GlyphClass: 2
Flags: W
LayerCount: 2
Fore
SplineSet
698 376 m 0,0,1
 698 213 698 213 605.5 99 c 128,-1,2
 513 -15 513 -15 377 -15 c 0,3,4
 320 -15 320 -15 268 7 c 1,5,6
 264 -1 264 -1 252 -32.5 c 128,-1,7
 240 -64 240 -64 213 -64 c 0,8,9
 198 -64 198 -64 188 -54 c 128,-1,10
 178 -44 178 -44 178 -28 c 128,-1,11
 178 -12 178 -12 202 46 c 1,12,13
 135 99 135 99 96.5 186.5 c 128,-1,14
 58 274 58 274 58 376 c 0,15,16
 58 538 58 538 150.5 651.5 c 128,-1,17
 243 765 243 765 379 765 c 0,18,19
 432 765 432 765 484 744 c 1,20,-1
 494 769 l 2,21,22
 509 804 509 804 535 804 c 0,23,24
 552 804 552 804 561 793 c 128,-1,25
 570 782 570 782 570 768 c 128,-1,26
 570 754 570 754 551 706 c 1,27,28
 619 654 619 654 658.5 566.5 c 128,-1,29
 698 479 698 479 698 376 c 0,0,1
519 632 m 1,30,31
 396 345 396 345 295 78 c 1,32,33
 333 58 333 58 378 58 c 0,34,35
 480 58 480 58 548.5 154 c 128,-1,36
 617 250 617 250 617 376 c 0,37,38
 617 452 617 452 591 520 c 128,-1,39
 565 588 565 588 519 632 c 1,30,31
344 382 m 1,40,-1
 458 674 l 1,41,42
 421 692 421 692 378 692 c 0,43,44
 275 692 275 692 207 598.5 c 128,-1,45
 139 505 139 505 139 376 c 0,46,47
 139 302 139 302 164.5 234.5 c 128,-1,48
 190 167 190 167 234 122 c 1,49,50
 282 230 282 230 344 382 c 1,40,-1
EndSplineSet
EndChar

StartChar: Ugrave
Encoding: 217 217 155
Width: 683
GlyphClass: 2
Flags: W
LayerCount: 2
Fore
SplineSet
341 -15 m 128,-1,1
 224 -15 224 -15 161.5 61.5 c 128,-1,2
 99 138 99 138 97 247 c 0,3,4
 91 705 91 705 91 718.5 c 128,-1,5
 91 732 91 732 102 746 c 128,-1,6
 113 760 113 760 132 760 c 128,-1,7
 151 760 151 760 162 746 c 128,-1,8
 173 732 173 732 173 716 c 128,-1,9
 173 700 173 700 172 648 c 0,10,11
 168 525 168 525 168 409 c 128,-1,12
 168 293 168 293 171.5 256 c 128,-1,13
 175 219 175 219 185.5 179 c 128,-1,14
 196 139 196 139 214 114 c 0,15,16
 257 55 257 55 341 55 c 0,17,18
 446 55 446 55 483 138 c 0,19,20
 515 210 515 210 515 328.5 c 128,-1,21
 515 447 515 447 512.5 577 c 128,-1,22
 510 707 510 707 510 709 c 0,23,24
 510 732 510 732 521 746 c 128,-1,25
 532 760 532 760 551 760 c 128,-1,26
 570 760 570 760 581 746 c 128,-1,27
 592 732 592 732 592 709 c 0,28,29
 592 521 592 521 586 246 c 0,30,31
 584 137 584 137 521 61 c 128,-1,0
 458 -15 458 -15 341 -15 c 128,-1,1
394 824 m 0,32,33
 394 803 394 803 367 803 c 128,-1,34
 340 803 340 803 294.5 846 c 128,-1,35
 249 889 249 889 249 932 c 0,36,37
 249 947 249 947 258 958.5 c 128,-1,38
 267 970 267 970 285 970 c 128,-1,39
 303 970 303 970 314.5 956 c 128,-1,40
 326 942 326 942 336.5 916.5 c 128,-1,41
 347 891 347 891 354.5 881.5 c 128,-1,42
 362 872 362 872 374 859 c 0,43,44
 394 836 394 836 394 824 c 0,32,33
EndSplineSet
EndChar

StartChar: Uacute
Encoding: 218 218 156
Width: 683
GlyphClass: 2
Flags: W
LayerCount: 2
Fore
SplineSet
341 -15 m 128,-1,1
 224 -15 224 -15 161.5 61.5 c 128,-1,2
 99 138 99 138 97 247 c 0,3,4
 91 705 91 705 91 718.5 c 128,-1,5
 91 732 91 732 102 746 c 128,-1,6
 113 760 113 760 132 760 c 128,-1,7
 151 760 151 760 162 746 c 128,-1,8
 173 732 173 732 173 716 c 128,-1,9
 173 700 173 700 172 648 c 0,10,11
 168 525 168 525 168 409 c 128,-1,12
 168 293 168 293 171.5 256 c 128,-1,13
 175 219 175 219 185.5 179 c 128,-1,14
 196 139 196 139 214 114 c 0,15,16
 257 55 257 55 341 55 c 0,17,18
 446 55 446 55 483 138 c 0,19,20
 515 210 515 210 515 328.5 c 128,-1,21
 515 447 515 447 512.5 577 c 128,-1,22
 510 707 510 707 510 709 c 0,23,24
 510 732 510 732 521 746 c 128,-1,25
 532 760 532 760 551 760 c 128,-1,26
 570 760 570 760 581 746 c 128,-1,27
 592 732 592 732 592 709 c 0,28,29
 592 521 592 521 586 246 c 0,30,31
 584 137 584 137 521 61 c 128,-1,0
 458 -15 458 -15 341 -15 c 128,-1,1
444 932 m 0,32,33
 444 889 444 889 398.5 846 c 128,-1,34
 353 803 353 803 326 803 c 128,-1,35
 299 803 299 803 299 824 c 0,36,37
 299 836 299 836 315 854 c 128,-1,38
 331 872 331 872 338.5 881.5 c 128,-1,39
 346 891 346 891 356.5 916.5 c 128,-1,40
 367 942 367 942 378.5 956 c 128,-1,41
 390 970 390 970 408 970 c 128,-1,42
 426 970 426 970 435 958.5 c 128,-1,43
 444 947 444 947 444 932 c 0,32,33
EndSplineSet
EndChar

StartChar: Ucircumflex
Encoding: 219 219 157
Width: 683
GlyphClass: 2
Flags: W
LayerCount: 2
Fore
SplineSet
341 -15 m 128,-1,1
 224 -15 224 -15 161.5 61.5 c 128,-1,2
 99 138 99 138 97 247 c 0,3,4
 91 705 91 705 91 718.5 c 128,-1,5
 91 732 91 732 102 746 c 128,-1,6
 113 760 113 760 132 760 c 128,-1,7
 151 760 151 760 162 746 c 128,-1,8
 173 732 173 732 173 716 c 128,-1,9
 173 700 173 700 172 648 c 0,10,11
 168 525 168 525 168 409 c 128,-1,12
 168 293 168 293 171.5 256 c 128,-1,13
 175 219 175 219 185.5 179 c 128,-1,14
 196 139 196 139 214 114 c 0,15,16
 257 55 257 55 341 55 c 0,17,18
 446 55 446 55 483 138 c 0,19,20
 515 210 515 210 515 328.5 c 128,-1,21
 515 447 515 447 512.5 577 c 128,-1,22
 510 707 510 707 510 709 c 0,23,24
 510 732 510 732 521 746 c 128,-1,25
 532 760 532 760 551 760 c 128,-1,26
 570 760 570 760 581 746 c 128,-1,27
 592 732 592 732 592 709 c 0,28,29
 592 521 592 521 586 246 c 0,30,31
 584 137 584 137 521 61 c 128,-1,0
 458 -15 458 -15 341 -15 c 128,-1,1
485 857.5 m 128,-1,33
 489 850 489 850 489 839.5 c 128,-1,34
 489 829 489 829 480 820.5 c 128,-1,35
 471 812 471 812 458.5 812 c 128,-1,36
 446 812 446 812 435 821 c 128,-1,37
 424 830 424 830 413.5 844.5 c 128,-1,38
 403 859 403 859 399 862 c 1,39,40
 359 910 359 910 343.5 910 c 128,-1,41
 328 910 328 910 288 862 c 1,42,43
 284 859 284 859 274 844 c 1,44,45
 250 812 250 812 233 812 c 128,-1,46
 216 812 216 812 207 820.5 c 128,-1,47
 198 829 198 829 198 839.5 c 128,-1,48
 198 850 198 850 202.5 857.5 c 128,-1,49
 207 865 207 865 211.5 869.5 c 128,-1,50
 216 874 216 874 229.5 885.5 c 128,-1,51
 243 897 243 897 255 908.5 c 128,-1,52
 267 920 267 920 284.5 943 c 128,-1,53
 302 966 302 966 313.5 975 c 128,-1,54
 325 984 325 984 343 984 c 128,-1,55
 361 984 361 984 373 975 c 128,-1,56
 385 966 385 966 403 943 c 128,-1,57
 421 920 421 920 433 908.5 c 128,-1,58
 445 897 445 897 458 885.5 c 128,-1,59
 471 874 471 874 476 869.5 c 128,-1,32
 481 865 481 865 485 857.5 c 128,-1,33
EndSplineSet
EndChar

StartChar: Udieresis
Encoding: 220 220 158
Width: 683
GlyphClass: 2
Flags: W
LayerCount: 2
Fore
SplineSet
341 -15 m 128,-1,1
 224 -15 224 -15 161.5 61.5 c 128,-1,2
 99 138 99 138 97 247 c 0,3,4
 91 705 91 705 91 718.5 c 128,-1,5
 91 732 91 732 102 746 c 128,-1,6
 113 760 113 760 132 760 c 128,-1,7
 151 760 151 760 162 746 c 128,-1,8
 173 732 173 732 173 716 c 128,-1,9
 173 700 173 700 172 648 c 0,10,11
 168 525 168 525 168 409 c 128,-1,12
 168 293 168 293 171.5 256 c 128,-1,13
 175 219 175 219 185.5 179 c 128,-1,14
 196 139 196 139 214 114 c 0,15,16
 257 55 257 55 341 55 c 0,17,18
 446 55 446 55 483 138 c 0,19,20
 515 210 515 210 515 328.5 c 128,-1,21
 515 447 515 447 512.5 577 c 128,-1,22
 510 707 510 707 510 709 c 0,23,24
 510 732 510 732 521 746 c 128,-1,25
 532 760 532 760 551 760 c 128,-1,26
 570 760 570 760 581 746 c 128,-1,27
 592 732 592 732 592 709 c 0,28,29
 592 521 592 521 586 246 c 0,30,31
 584 137 584 137 521 61 c 128,-1,0
 458 -15 458 -15 341 -15 c 128,-1,1
298 941.5 m 128,-1,33
 308 928 308 928 308 907.5 c 128,-1,34
 308 887 308 887 294 866.5 c 128,-1,35
 280 846 280 846 259 846 c 128,-1,36
 238 846 238 846 227.5 860 c 128,-1,37
 217 874 217 874 217 897 c 128,-1,38
 217 920 217 920 231.5 937.5 c 128,-1,39
 246 955 246 955 267 955 c 128,-1,32
 288 955 288 955 298 941.5 c 128,-1,33
458 941.5 m 128,-1,41
 468 928 468 928 468 907.5 c 128,-1,42
 468 887 468 887 454 866.5 c 128,-1,43
 440 846 440 846 419 846 c 128,-1,44
 398 846 398 846 387.5 860 c 128,-1,45
 377 874 377 874 377 897 c 128,-1,46
 377 920 377 920 391.5 937.5 c 128,-1,47
 406 955 406 955 427 955 c 128,-1,40
 448 955 448 955 458 941.5 c 128,-1,41
EndSplineSet
EndChar

StartChar: Yacute
Encoding: 221 221 159
Width: 554
GlyphClass: 2
Flags: W
LayerCount: 2
Fore
SplineSet
237 40 m 0,0,1
 237 47 237 47 238 86 c 0,2,3
 242 177 242 177 242 314 c 1,4,-1
 132 507 l 2,5,6
 113 540 113 540 92 575 c 2,7,-1
 59 630 l 2,8,9
 26 686 26 686 20.5 700 c 128,-1,10
 15 714 15 714 15 726 c 128,-1,11
 15 738 15 738 24 749 c 128,-1,12
 33 760 33 760 48 760 c 128,-1,13
 63 760 63 760 73 752 c 128,-1,14
 83 744 83 744 95 724 c 128,-1,15
 107 704 107 704 118 682 c 0,16,17
 193 528 193 528 281 391 c 1,18,19
 373 536 373 536 434 662 c 0,20,21
 441 677 441 677 449.5 692.5 c 128,-1,22
 458 708 458 708 462.5 717 c 128,-1,23
 467 726 467 726 472.5 734.5 c 128,-1,24
 478 743 478 743 481.5 747 c 128,-1,25
 485 751 485 751 490 754 c 0,26,27
 497 760 497 760 509.5 760 c 128,-1,28
 522 760 522 760 530.5 751 c 128,-1,29
 539 742 539 742 539 730.5 c 128,-1,30
 539 719 539 719 536 708.5 c 128,-1,31
 533 698 533 698 523 679 c 128,-1,32
 513 660 513 660 503.5 643.5 c 128,-1,33
 494 627 494 627 471.5 589 c 128,-1,34
 449 551 449 551 431 519 c 2,35,-1
 314 314 l 1,36,37
 314 175 314 175 316.5 110 c 128,-1,38
 319 45 319 45 319 40 c 0,39,40
 319 -10 319 -10 278 -10 c 128,-1,41
 237 -10 237 -10 237 40 c 0,0,1
388 932 m 0,42,43
 388 889 388 889 342.5 846 c 128,-1,44
 297 803 297 803 270 803 c 128,-1,45
 243 803 243 803 243 824 c 0,46,47
 243 836 243 836 259 854 c 128,-1,48
 275 872 275 872 282.5 881.5 c 128,-1,49
 290 891 290 891 300.5 916.5 c 128,-1,50
 311 942 311 942 322.5 956 c 128,-1,51
 334 970 334 970 352 970 c 128,-1,52
 370 970 370 970 379 958.5 c 128,-1,53
 388 947 388 947 388 932 c 0,42,43
EndSplineSet
EndChar

StartChar: Thorn
Encoding: 222 222 160
Width: 567
GlyphClass: 2
Flags: W
LayerCount: 2
Fore
SplineSet
103 375 m 1,0,-1
 98 710 l 2,1,2
 98 760 98 760 136 760 c 128,-1,3
 174 760 174 760 174 710 c 0,4,5
 174 692 174 692 171 605 c 1,6,7
 219 622 219 622 289 622 c 0,8,9
 401 622 401 622 470 562 c 128,-1,10
 539 502 539 502 539 411.5 c 128,-1,11
 539 321 539 321 470 261 c 128,-1,12
 401 201 401 201 288 201 c 0,13,14
 218 201 218 201 170 218 c 1,15,-1
 174 40 l 1,16,17
 174 -10 174 -10 136 -10 c 128,-1,18
 98 -10 98 -10 98 40 c 2,19,-1
 103 375 l 1,0,-1
414.5 304.5 m 128,-1,21
 464 345 464 345 464 411.5 c 128,-1,22
 464 478 464 478 415 518.5 c 128,-1,23
 366 559 366 559 295 559 c 128,-1,24
 224 559 224 559 172 543 c 1,25,26
 170 501 170 501 170 411.5 c 128,-1,27
 170 322 170 322 171 280 c 1,28,29
 223 264 223 264 294 264 c 128,-1,20
 365 264 365 264 414.5 304.5 c 128,-1,21
EndSplineSet
EndChar

StartChar: germandbls
Encoding: 223 223 161
Width: 544
GlyphClass: 2
Flags: W
LayerCount: 2
Fore
SplineSet
58 502 m 2,0,-1
 108 500 l 1,1,-1
 108 585 l 2,2,3
 108 678 108 678 153 719 c 128,-1,4
 198 760 198 760 271 760 c 128,-1,5
 344 760 344 760 385 718.5 c 128,-1,6
 426 677 426 677 426 615 c 0,7,8
 426 575 426 575 409 539 c 128,-1,9
 392 503 392 503 371 482 c 0,10,11
 316 429 316 429 316 396.5 c 128,-1,12
 316 364 316 364 336.5 340 c 128,-1,13
 357 316 357 316 386.5 297.5 c 128,-1,14
 416 279 416 279 445 258.5 c 128,-1,15
 474 238 474 238 494.5 205.5 c 128,-1,16
 515 173 515 173 515 131 c 0,17,18
 515 70 515 70 473 30 c 128,-1,19
 431 -10 431 -10 373.5 -10 c 128,-1,20
 316 -10 316 -10 275.5 13 c 128,-1,21
 235 36 235 36 235 63 c 0,22,23
 235 97 235 97 268 97 c 0,24,25
 276 97 276 97 306 76 c 128,-1,26
 336 55 336 55 365.5 55 c 128,-1,27
 395 55 395 55 418.5 75 c 128,-1,28
 442 95 442 95 442 125.5 c 128,-1,29
 442 156 442 156 427 178 c 128,-1,30
 412 200 412 200 390 214 c 128,-1,31
 368 228 368 228 341.5 246 c 128,-1,32
 315 264 315 264 293 281.5 c 128,-1,33
 271 299 271 299 256 327.5 c 128,-1,34
 241 356 241 356 241 387.5 c 128,-1,35
 241 419 241 419 258 449 c 128,-1,36
 275 479 275 479 296 501 c 0,37,38
 351 559 351 559 351 602 c 128,-1,39
 351 645 351 645 328 669 c 128,-1,40
 305 693 305 693 266.5 693 c 128,-1,41
 228 693 228 693 204.5 668 c 128,-1,42
 181 643 181 643 181 576 c 2,43,-1
 181 41 l 2,44,45
 181 18 181 18 170.5 4 c 128,-1,46
 160 -10 160 -10 142 -10 c 128,-1,47
 124 -10 124 -10 113.5 4 c 128,-1,48
 103 18 103 18 103 33.5 c 128,-1,49
 103 49 103 49 104 96 c 0,50,51
 109 237 109 237 109 375 c 2,52,-1
 109 442 l 1,53,-1
 58 440 l 1,54,55
 20 440 20 440 20 470 c 0,56,57
 20 486 20 486 31 494 c 128,-1,58
 42 502 42 502 58 502 c 2,0,-1
EndSplineSet
EndChar

StartChar: aacute
Encoding: 225 225 163
Width: 571
GlyphClass: 2
Flags: W
LayerCount: 2
Fore
SplineSet
467 242 m 1,0,1
 467 167 467 167 478 119.5 c 128,-1,2
 489 72 489 72 504 66 c 0,3,4
 510 63 510 63 518.5 62 c 128,-1,5
 527 61 527 61 530.5 59 c 128,-1,6
 534 57 534 57 534 51 c 0,7,8
 534 24 534 24 519.5 7 c 128,-1,9
 505 -10 505 -10 476 -10 c 128,-1,10
 447 -10 447 -10 431 27 c 128,-1,11
 415 64 415 64 415 122 c 1,12,13
 390 66 390 66 341.5 28 c 128,-1,14
 293 -10 293 -10 232.5 -10 c 128,-1,15
 172 -10 172 -10 128 30 c 0,16,17
 48 103 48 103 48 239 c 0,18,19
 48 348 48 348 111 429 c 128,-1,20
 174 510 174 510 273 510 c 0,21,22
 348 510 348 510 403 459 c 1,23,24
 403 510 403 510 441 510 c 0,25,26
 487 510 487 510 487 439.5 c 128,-1,27
 487 369 487 369 467 242 c 1,0,1
409 233 m 1,28,-1
 404 387 l 1,29,30
 344 445 344 445 278.5 445 c 128,-1,31
 213 445 213 445 166 386 c 128,-1,32
 119 327 119 327 119 244.5 c 128,-1,33
 119 162 119 162 149.5 108.5 c 128,-1,34
 180 55 180 55 236 55 c 128,-1,35
 292 55 292 55 338 105 c 128,-1,36
 384 155 384 155 409 233 c 1,28,-1
388 722 m 0,37,38
 388 679 388 679 342.5 636 c 128,-1,39
 297 593 297 593 270 593 c 128,-1,40
 243 593 243 593 243 614 c 0,41,42
 243 626 243 626 259 644 c 128,-1,43
 275 662 275 662 282.5 671.5 c 128,-1,44
 290 681 290 681 300.5 706.5 c 128,-1,45
 311 732 311 732 322.5 746 c 128,-1,46
 334 760 334 760 352 760 c 128,-1,47
 370 760 370 760 379 748.5 c 128,-1,48
 388 737 388 737 388 722 c 0,37,38
EndSplineSet
EndChar

StartChar: acircumflex
Encoding: 226 226 164
Width: 571
GlyphClass: 2
Flags: W
LayerCount: 2
Fore
SplineSet
467 242 m 1,0,1
 467 167 467 167 478 119.5 c 128,-1,2
 489 72 489 72 504 66 c 0,3,4
 510 63 510 63 518.5 62 c 128,-1,5
 527 61 527 61 530.5 59 c 128,-1,6
 534 57 534 57 534 51 c 0,7,8
 534 24 534 24 519.5 7 c 128,-1,9
 505 -10 505 -10 476 -10 c 128,-1,10
 447 -10 447 -10 431 27 c 128,-1,11
 415 64 415 64 415 122 c 1,12,13
 390 66 390 66 341.5 28 c 128,-1,14
 293 -10 293 -10 232.5 -10 c 128,-1,15
 172 -10 172 -10 128 30 c 0,16,17
 48 103 48 103 48 239 c 0,18,19
 48 348 48 348 111 429 c 128,-1,20
 174 510 174 510 273 510 c 0,21,22
 348 510 348 510 403 459 c 1,23,24
 403 510 403 510 441 510 c 0,25,26
 487 510 487 510 487 439.5 c 128,-1,27
 487 369 487 369 467 242 c 1,0,1
409 233 m 1,28,-1
 404 387 l 1,29,30
 344 445 344 445 278.5 445 c 128,-1,31
 213 445 213 445 166 386 c 128,-1,32
 119 327 119 327 119 244.5 c 128,-1,33
 119 162 119 162 149.5 108.5 c 128,-1,34
 180 55 180 55 236 55 c 128,-1,35
 292 55 292 55 338 105 c 128,-1,36
 384 155 384 155 409 233 c 1,28,-1
427 633.5 m 128,-1,38
 431 626 431 626 431 615.5 c 128,-1,39
 431 605 431 605 422 596.5 c 128,-1,40
 413 588 413 588 400.5 588 c 128,-1,41
 388 588 388 588 377 597 c 128,-1,42
 366 606 366 606 355.5 620.5 c 128,-1,43
 345 635 345 635 341 638 c 1,44,45
 301 686 301 686 285.5 686 c 128,-1,46
 270 686 270 686 230 638 c 1,47,48
 226 635 226 635 216 620 c 1,49,50
 192 588 192 588 175 588 c 128,-1,51
 158 588 158 588 149 596.5 c 128,-1,52
 140 605 140 605 140 615.5 c 128,-1,53
 140 626 140 626 144.5 633.5 c 128,-1,54
 149 641 149 641 153.5 645.5 c 128,-1,55
 158 650 158 650 171.5 661.5 c 128,-1,56
 185 673 185 673 197 684.5 c 128,-1,57
 209 696 209 696 226.5 719 c 128,-1,58
 244 742 244 742 255.5 751 c 128,-1,59
 267 760 267 760 285 760 c 128,-1,60
 303 760 303 760 315 751 c 128,-1,61
 327 742 327 742 345 719 c 128,-1,62
 363 696 363 696 375 684.5 c 128,-1,63
 387 673 387 673 400 661.5 c 128,-1,64
 413 650 413 650 418 645.5 c 128,-1,37
 423 641 423 641 427 633.5 c 128,-1,38
EndSplineSet
EndChar

